<mxfile host="app.diagrams.net" modified="2024-07-22T14:57:32.865Z" agent="Mozilla/5.0 (Windows NT 10.0; Win64; x64) AppleWebKit/537.36 (KHTML, like Gecko) Chrome/126.0.0.0 Safari/537.36" etag="x6ZTT4UGgd8eX1uPtu6U" version="24.7.1" type="github">
  <diagram name="PÃ¡gina-1" id="fghpk_DSbCEyxcrB_opl">
    <mxGraphModel dx="2074" dy="1116" grid="1" gridSize="10" guides="0" tooltips="1" connect="0" arrows="1" fold="1" page="1" pageScale="1" pageWidth="827" pageHeight="1169" background="#000000" math="0" shadow="0">
      <root>
        <mxCell id="0" />
        <mxCell id="1" parent="0" />
        <mxCell id="uI7jijBP5rXE629CTqQX-1" value="" style="shape=image;verticalLabelPosition=bottom;labelBackgroundColor=default;verticalAlign=top;aspect=fixed;imageAspect=0;image=data:image/png,iVBORw0KGgoAAAANSUhEUgAAAgAAAAIACAYAAAD0eNT6AAAABHNCSVQICAgIfAhkiAAAAAlwSFlzAAAOxAAADsQBlSsOGwAAABl0RVh0U29mdHdhcmUAd3d3Lmlua3NjYXBlLm9yZ5vuPBoAACAASURBVHic7d13vGVVefDx353LDMzQ60gfOiKgIAiIUlXUgGAUS6JEsUXUWCKoMTFqrBiNvaASFSOWWBDFhjQL+Ip0kCogvQ0wzDDDtPv+se7NXC7n3HvuOXvtZ5ff9/N5PryvgbPKPnfv56y9CkiSJEmSJEmSJEmSJEmSJEmSJEmSJEmSJEmSJEmSJEmSJEmSJEmSJEmSJEmSJEmSJEmSJEmSJEmSJEmSJEmSJEmSJEmSJEmSVF1D0RWokJnAhqOxEbAOsMbo/20dYBmwePT/vxi4D5g/GvcBK8usrCS12AzSvXqDcf+cPfp/m026ny8Y/f8vAR4k3afHYlmZla2qtiUAw8AOwG7A7sC2wDxgG2DTAT53KXAL8FfgRuDPwOXAlcCtA3yuJLXZlsATSPfsx5Pu11sDWwCzBvjcO0j36puAG0j368uA64EVA3xurTQ9AdgYeCqw/2jswaossSx3A38ALgB+B5xPShgkSausDuxHulfvMxqblFyHxcBFwO+B347+896S66A+DZO+PB8ALiQNy49ULBYCZwBvIY1ASFJbbQu8lXRPXET8/XlirAD+CPwH6cfkcJ5uUL9mAAcBnwfuIv4LM924GPg30qsJSWq6HYH3AJcQf/+dbtwJfBY4gPTsUZBtSL/0byP+S1FErCQNOb2aNOlQkppiHeA1pHtc9L22qLgFeD9pToJKMAT8DfBz0tBM9BcgVywAPgPsVEy3SVKInUm/mBcQf1/NFSuAnwHPofnz6kKsTvplfBXxF7vMWAn8hPTuSZLqYn/Se/0qzsPKGVcAx5KeWRrQLOAfSUMt0Rc2Os4CDhysOyUpq4OBs4m/X0bHzaRXHjMH6852GgJeTlqnGX0hqxZnkNbESlJVPJE0DB59f6xa3AD8Pb4a6Nl+pHXz0ReuyrEC+CppnwNJijIX+G+aPSeriDgfeEqffdwKGwFfp33vjAaJ+cDrcTmKpHINA28A7if+PliXWAmcTNq2WOP8HWnHvOgLVNc4nzTbVpJy2wVHaQeJO4EXT7vXG2gT4DTiL0gTYjFwPO5UJSmPYeAdpHtN9P2uCfFD0sh3Kz2T5mziU6U4B9i898sgSVPaAjiP+Ptb0+Iu0t42rbEa8Al8158z7qFlXypJ2RxBOhAn+r7W1FgJnEh6NjbaxsCZxHd4G2Il8BGcICipP0OkIX9n+JcT5wKP6+nK1NDewK3Ed3Lb4jQ8W0DS9KwLnE78/att8Vdgzx6uT60cSToGN7pz2xqXk97hSdJUtiRtaRt932prPAQcPuVVqok3AcuJ79S2xy24g6Ckye2GI7VViOXAcVNcq4Hl3p7w34H3Zi5DvXsQ+GV0JSRV1rNIw/+qhn8jHXufRc4E4P2kykuSpP6cCLyTNDJQqFybxnwSOCHTZ0uS1Bb7k0ZlflH0B+dIAD4EvD3D50qS1Eb7kvYJOLvIDy06AXg36b2/JEkqzgHAEuB3RX1gkQnAK4FPFfh5kiRplUOBm4BLi/iwoiYBHkR6PzGroM+TJEmPtQx4LmlX3YEUkQDsAvwel45IklSGB0jzAq4Z5EMGTQDWBi4gJQGSJKkc1wBPARb0+wGDHBQzBPw3PvwlSSrbTsA3GOCH/CAjACcAHx3gv6+SRcC1pIzqGuCG0f9twWgsIk2YnAnMATYg7a2/KbAjKQnacfT/LknKZznpfn0ZaULcbaRDdB4i3a+Xj8ZapFHqdUb/39sCO5Pu1TuR7uVN8Dbgv/r5D/tNAPYEzqe+k/7uJR29eBZpXeXVDL7L0izSiYdPI02KPAhYY8DPlKS2exj4Lel+fQ5pBvySAT9zCHg8cDBwCHAgsOGAnxnlEWAf+lgZ0E8CMAf4EymTqpN7gVOBbwIXAiszl7cmcBjwQuD5mAxIUq8WAT8BvgecASzOXN4M0g+4lwEvpX7JwJWk+ufuJz5F/ElJvcZK0pnWRxI7WrEe8HrSRYruE8MwjKrGlcAbSMP2UWYBR5ESkJXE90mv8YkcnTHefsCKCjR0qlhO+rVfteNvh0jrN88jvo8MwzCqEr8njZjmPqF2unYHvk19nntPydMNsDr1+AX7LWCHTH1QpOeS3tlE95dhGEZUXEx68FfdTsB3iO+vqeIyMk1G/5cKNG6y+DNpQkedzACOA+4nvv8MwzDKivmkof5cJ9Lm8gxWTRqvahR+Eu9mpCUW0Q3rFIuBd1HfFQkAjwO+T3xfGoZh5I4fAJtQX6uTDr5bQnxfdooFpGdKYb5egUZ1imuBPYpsaLBjqW6iZRiGMUg8ABxDczwZuJ74fu0UXy2qkXtSzZmQ3yZ2pmguO5FeZ0T3r2EYRlFxJWkDnqZZl7RUMbp/J8YK4IlFNPAnFWjMxIa9tYiGVdg6wI+J72vDMIxB4wekHfma7O1U74fyjwZt1N4Va9Qy4JWDNqomhoEvEt/nhmEY/cbnGOzMmTr5e2Ap8X0+PgZaFviLCjRgLBZSj+UiRfsA8X1vGIYx3Xgv7fNs0rMquu/H4qf9NuSJFaj8WDwMPL3fhjTAB4m/BoZhGL3Ge2mvA0ir06KvwQhpBH/XbhWdbA3miRQ0iWBAy4EXAb+Krkigs0iTTfaLrogkTeETpH1j2upm0qTHo4l//TEEzAZOm85/tBnphKEqZC/H9tHoJppBNWebGoZhjMW3qd52vlFeTTXm0C0hHV3/GN1GAN5K2vEo2gco4YCDmhghrch4JrB5cF0kaaI/kg7RWRZdkYq4iLRpUPTr69VIu83+ZuL/oVOmNgP4C7B15kpN5WzSw25FcD2qZivSF6tux1VKaq67SZuy3R5dkYoZJr3CPSC4HjcC25NGJP5Pp/cThxH/8L+bdC6zD//H+itpN62R6IpIEule9Gp8+HeygjSH7c7gemwDHDLxf1ytw7/4D/nrMqkR0sPfL1N3ZwBfIB0kFGk+aXtPSTHWH41InwNOD65Dld0FvAL4GbHzI14BnDnZvzCH+DWMJxfS1OZbE7iB2Gv13eytlDSZHxJ7D7gZWCt7K5vhG8ReqwWkFQFdHR1cwfuAjXvrSwHPJfZ6PcQUXyhJ2cwBFhF7D/ib7K1sjrnEH/3+t5NV8LvBlXtdjx2pVX5G7DU7Kn8TJXXwfGL/9n+Yv4mNcxyx1+zUbhWbSXqfG1WxS4jfNKGOnkBadhN13b6Rv4mSOogcUl4O7JK/iY0zDFxG3HWbT+e5fxwQWKkR0usH9ecU4q7bXbjxh1S2YdLNPOrv/mvZW9hcLyH2Wbt/p0p9OLBCf8Zf/4PYhbTcJOr67Za/iZLGeTJxf+/Lge3yN7GxhoFriLt+HxiryPiH7mPWCJboI0zYoEDTchWxy3AODSxbaqPI3eV+RFqBpP6sIP3gjvKYZ/0c4s4xvoM0/0CDOYy4jPLHJbRP0io/IO7v/akltK/pZpI2B4q4fkuANcZX5qCgiowAH++3B/UoQ8B1xFzDe0ton6RkCLiHmL/1K0toX1t8krjn7tNh1SuAyGNmTwkseypbAgeS1ro+C9gHWC+0Rt2NAP8TVPaGwLygsqW22QHYKKjsrweV24v1SffoZ5Hu2QeS7uFVFbmC6lGjON8hJgu5NF/7+jIDeDZpm93b6F7vPwHvIS3Bq5InEJdRTrrBhKTCvJCYv/GVwBYltG86dgX+nXRAWrd630q6px9G9SabX0HMtXzUfgB/DqrEvwzScwV7BnAx02/D6aSMvCquIuZafrCMxknivcT8jV9YQtt6tTXpF/RKpteGq6jWkvP3EHMtrxirwGzSso6ISuwzYOcVYV3SQ3yQdiwFTii74l18gphr6URAqRzfJ+Zv/D1lNG4KQ8A7GXzS+mnAOiXXvZP9ibmWy4DVAZ4YVIEH6bIjUYm2I01qKapNpxK/N/7hxFzPq8ponKSwNeQdN5Ap0eqkOQhFtecaYOdSW/BYM0lnqkRcz10h7eUeUfhPCui8QWwK3ELx7fohse+Z1iFmU6DFVO/9mtQ0w8Rs/b2Y0V+MQWaQ9h8oul23Ez+v4QxinsHPm0Hc7O1zg8qF9Cv9R+S58EcB78vwub1aQMpsy7YG8X9IUtPNJWbk9ELgkYByx3wQODLD525Keh0wJ8Nn9yrqWThvBrBNUOGR60k/Ajwl4+e/Gzg44+dP5eKgcl8QVK7UFpsHlRu5YutQ4B0ZP39PYicxRz0Lt5lByoAiRPxKBdgW+MfMZQyRJuNFDYlfFlTux4HXBpUttUFUAnDF1P9KFkPAR8l/4NhxxJ1vEPUs3HQGaROXsj0C3BRQLqSDEGaVUM6TiPtF/JegcoeAL2ISIOUSlQBcHVTui0gHH+U2i7hXtzeSVjWUbcMZxOwodR1polrZ1gKeX2J5x5RY1ng3BpULJgFSTusHlXtLULn/UGJZLwTWLrG8McuB6wPK3WgGsEFAwXcGlAnwHCYcgpDZM4n5Qt0eUOZ4JgFSHhGT1UZIO6OWbS3KnUu1OumeHSHimbjBDGK+UA8FlAkpASjT6qSDlso2P6DMicaSgOOiKyI1yFoBZS4inSBXtkMp9wcbwHNLLm/MwoAy58ygnPfhE0U0FmL27o8ocwlp3W60IeCzOBIgFaVNP9jacr+GtHy7bKtHJQBRX6iIFQ+PCygTYtfsjufrAKk4EQlA1A+2Nt2vI56Js2YQs6lExHASlD+cBLBmQJmQ3ttVhUmAVIyIv+vcS/C6adP9+uGAMmfOIG0rWbao/fIjhsWjsueqMQmQBhexXCzqzJY23a8jtlleOoOYL1TEzHiImckaUSbEZbKTMQmQBhNxv474JQ7tul9H/Che0rYEIGKHvIgdtGYTM7ejFyYBUv8i5vZsSMxrgMtbUibE/GBbMoOYdw8RS1kAflpyeQuBc0ouE+I2C+mVSYDUn4gEYCYx95SzSUsQyxR1Sm3E5MMlM4D7AgqO2s7yTMr9Qv2cmAmPWwaUOV0mAdL0RdyvATYJKHMx8MsSy1sInFVieeNtFlDm/TOAewMK3o6YiSWLgVNLLO9rJZY13tZB5U6XSYA0PXcHlbt9ULn/XWJZ3yLmB9sQMUep3xU1AjCTdCpfhH+nnNce51H+K4cxUada9cMkQOrdXUHl7hJU7umkVwG5LQb+o4RyOtmamP0d7ppB3L7xOwWVezvpqN6cVgBvz1zGZJ4UWHY/3DZY6k3UCMDjg8oFeBf5D4/7GHBr5jK62S2o3DtnEHcsb1SjIR37+OuMn3888MeMnz+V3QPL7tfYtsGvia6IVGF3BJW7Z1C5AH8A3pnx839N3K9/iLtf3wFwBGl3qbLjF/nbN6kNSccSF92uk8tsRAfrk7LliGtaRKzEJEDqZog0Wa3sv8sVxJwcO97XKL5d1xHfrjOIudc+F2DXoMIXEb9WfWPgXIpr05eI2zVrzFHEXM8iwyRA6u4iYv4ujyyjcZMYBj5Cce05n7i9/8cMAw8Scz23g7QF4dKgCjx98P4b2BrAV0gPnX7bsQD4h7Ir3sWniLmWRYdJgNTZt4j5m/xUGY3rwStJ99xB7i0nEbP97kT7EHMtl5CSDyDtfhRRifcN2HlF2ov0Lmg69V9K+tUfnUWOdwMx1zJHmARIj/UeYv4e/0rcwUATbUgaDVjC9NrwO+CpAfXt5sPEXMtH7VD7P0GVuGaQnstkT1Jicgmd36U/TNrg5x+J2bxhMnsQcx1zhkmA9GgvIO7vcb8S2jcdmwGvJ92TF/PY+q4ALgbeS7o/Vs3VxFzHb4yvxNuDKjEC7DtA5+W2Bmn5y17Ak4GtgBmhNZrcB4l/YOcIkwBplc2I+1vMvYR6EDNIa+qfTLpnP564g4x68STiruMbx1fkqYEV+Vz//adxViOtY41+WOeKlbhPgDTmRmL+Du+h2g/VOvkscffTvcdXZHU6D5+UEffhF6oIzyP+IZ07HAmQkm8S93d4TAnta7rZwP3EXL8ldJgA+ZugyozgL7si/JL4B3QZYRIgpXtm1N/gH0poX9O9nrjrd06nCr03sEI3kc4HUH/2Iv7BXGaYBKjtIt8fjwCH5m9iY61G7Gqtd3WqVNR6xLF4xTQ7Uat8n/iHctlhEqA2GyJ2zs/v8zexsV5O7L2z47bOw6QJHlGVugZHAfqxL4NtYlTnMAlQm32e2L+/5+ZvYuOsTtwEzhHSaZJdV7KdElixEeCEaXSk0q+A84l/EEeGSYDa6jBi//auxB9t0/XPxF6zSc+qiToYaCweArbssSMFLyP+AVyFMAlQG80CHiD2b+8d2VvZHJsRN/N/LA6brIKrV6CC3++tL1tvE2Jf2VQtTALURqcS+3e3kLT5jqb2Q2Kv1T1MOKyu077OXyP+YJujgf8NrkPVfQ94YXQlKmaE9ItIaos1SGvKI51DWhWwMrgeVfZi4NvBdTgJeN1U/9JBxP+aewDYdtDWNtgxxF8jwzCMsXg36mYb4kfWR4CnTaxYpxGAIdIBBTsO2OhBXUiq8CPB9aia3UkT/+ZEV0SSRi0n/Xj8XXA9qmYmaZO9fYLrcSWw68T/sdNygBHgK9mrM7W9gI9HV6Ji1iO9Gol++I/gcJ+kVVYjzd/aOroiFfMF4h/+AF+czr+8EenY2+ghixHg+L6a2zyrA2cTfz1GgJ8Bx9L5uGTDMNoblwJrIYg9ZXd8LATWnW7lv1CBio+Qfmm2/fCJIeBbxF+LsThktF4mAYZhTIyf0+GwmZZ5GdW5N/Z14u6OFWrAUuDwfhrRAMOkVzLR12As/jShfiYBhmFMjNNJ+xS00d8Cy4i/BiOj9dim34ZUaY/5R4CX9NuQmpoFfIf4vh8fL+1QT5MAwzAmxg9p30jAi0jPqui+H4tTBmnM7lTrxr4C+KdBGlQjc4AziO/z8XEFaUSiE5MAwzAmxjnA+rTDG6jWPXAlHWb+T9e3K9CQifERJjnQoAG2Ip25Hd3PE+P5U9TbJMAwjIlxJTCP5lqNtGItup8nxreKaNzOVOd9xvg4E5hbRAMr5tnAvcT378T4A533jZjIJMAwjIlxL808PXBD4FfE9+/EWMIA7/4n+kwFGtQp7mDVjPS6GwbeR3UfnodOoy0mAYZhTIyVwIeZsB99jT0TuJX4fu0U/1lkQzcA7qtAozrFcuATwDpFNrhke5Nm10f3Zbf4Xh9tehUmAYZhPDYuAvakvtYCPkVKaKL7slPcR3pmF+qNFWjYZHEb6cCFOlmXNLqynPj+6xYPAVv02T6TAMMwOsUy4GPUb9OgFwC3EN9/k8WrcjR8GLigAo2bKs4E9s3RAQWaDbyZ9Aojur+mikF3YjQJMAyjW9xJ+nFZ9T0DDgHOJb6/porz6G2uVl92I23KE93IXuJM4OA83dC3NUnbQ95JfP/0EpeQDrMYlEmAYRiTxQ3Aa4k/52SiZ5AO84nun17iEWCXPN2wyvsr0NDpxAXAa0gH6UTZA/gkcA/x/dFrLCHtA1EUkwDDMKaKe0kTBecRZ2PgLaRzDaL7Yzrxbzk6Y6KZwB8DGjdoLAa+CzyP9Es8t+2BfwYuK6l9Rcc7i+8SkwDDMHqKlaSjhd8EbEp+G5J28fsh9RnlHh+/o4/VFf2+K9iRNJOzjAdpDstI69rPGo2LSJPd+jVE2rxnf9JyuUOp97GYvwcOID2si/Yq4CSavZGTpOKMAH8mDcWfNxq3DviZm5JGOA8mDfPvQX3vSQtI9f/LdP/DQSYLvBr48gD/fdXcBlwzGjcBD5A6diHpaOQZpKWGa4/GRsBOpGRoJ+qbDE10H/Bk4OaMZZgESBrEA8D1pLkDN5Bm5j9Cul8/Qrpnr0V69TsWm5Heke9Cs7YnPoY+9/wfdLbgV8i05EAhVgJ/QzrOM7dXkr4/JgGS1J8vAMf1+x93O9ilV78EDgM2H/BzVA3vAU4uqaxLSFn7EWRctiJJDXUB6XTWvl/VFnHj3Zr0Pr2J+/K3yQ+Ao0mjAGXydYAkTc8dwF7A7YN8SFG/vJ5M2iShKe/B2+ZC4CBgUVD5vg6QpN48TJpofsGgHzToK4Axd5DWTL4Yb+J1cyPpy3R/YB18HSBJU1tGOpb9nCI+rKgEAOA60g53h+NNvC7uJi2ByTnjv1eXkFZi+P2RpMcaIb0y/X5RH1hkAgDpRLuHSBMDVW33kn75XxVdkXEuxiRAkiYaAd4KfKnIDy06AQA4nzQr8ZAMn61izCf98r8suiIdmARI0qO9jXQEcaFyJACQdmp6mPSQ8SZeLfeRRmgujq7IJEwCJCl5G+ksmcLlvrkeRzrv3omB1XAr6eFfpWH/ydRlieBNpD0xpLo7Epd0V8UK0lHJX4yuyCBeQjpZLvqwhLbHVaTzCuqmDgcIrSSdOCnV3bbA1cT/TbU9HgaOmuJa1cbTSJPOoju1rfEb0tkFdWUSIJVnQ9LpctF/U22N+0gHyzXKjqQTnaI7t21xEjCrh+tTdSYBUnnWAL5O/N9U2+IyYLserk8trU1awxjdyW2IpQxwSERFmQRI5fon0r0k+u+qDfFdWrCb7hBwAn6pcsaNwH69XpCaMQmQynUU8X9TTY+v0LIVT3sB1xDf8U2LH9Css647eSX1SAKaNgKjdtqZ+L+npscJPV+NBlmLlPmsJP4C1D3uJ/06bgtHAqRymADkj1YmAGMOwNGAQeKnwJbT7vX6cyRAys8EIH+0OgEAmAOciHMDphO3kvZZaDNHAqS8TADyR+sTgDE7kGZDRl+QKscjpH2h1+6zj5vGkQApHxOA/GECMMFhwIXEX5iqxUrgoP67tbEcCZDyMAHIHyYAXTyDdMxw9AWqUtxM2rJTj+ZIgFQ8E4D8YQIwiSFSInA68ReqKmES0NmxmARIRTIByB8mAD3aGzgFWEz8RYuOG4GtB+vORvJ1gFQcE4D8YQIwTeuTtqm8hPiLFxk3YhLQiUmAVAwTgPxhAjCAbYB3kI68jb6QEeHrgM58HSANzgQgf5gAFGRb4LWkpYQLiL+wZYVJQGcmAdJgTADyhwlABrOApwJvB35E2jgn+kLnjBvxdUAnvg6Q+heVANwLLCu5zDuD2hqSALTq9KFRGwBPBJ4AbE96fTCPtJVuEw7RuYm0T8DNsdWonFcBJwEzoisyiRHgdcCXoysijbMz8OeAcl8FfAvYBdgN2JFV9+t5wCbAcB+fOx+4hXSvvBG4DrgSuJx0f7hnoFr35x2knXBLtVrZBVbAfODs0ZhoNWDD0ZgNrEdKktYgZaIrgHcBh5RS0/7MA87BJGCir47+s8pJwBDwpdF/nhRcF6kKlgAXjUYn6wEbA+sAa5JGfYeBmaP/7QjwAGnV2H2jsXyS8jYqpNZqrNnAr4gfMp4qnBPQmXMCpOmJegVwbBmNm2CjAeo7SIS8AqjqL6EqWww8DzgzuiJT2Io0ymES8Ggnk961r4yuyCSGgM9iEiApIxOA/pgE1JtJgKTWMwHon0lAvZkESGo1E4DBmATUm0mApNYyARicSUC9mQRIaiUTgGKYBNSbSYCk1jEBKI5JQL2ZBEhqFROAYpkE1JtJgKTWMAEonklAvZkESGoFE4A8TALqzSRAUuOZAORjElBvJgGSGs0EIC+TgHozCZDUWCYA+ZkE1JtJgKRGMgEoh0lAvZkESGocE4DymATUm0mApEYxASiXSUC9mQRIagwTgPKZBNSbSYCkRjABiGESUG8mAZJqb7XoCrTYYuBI4HTgkOC6TGYrUqJyMHBzcF2q5GTSQ/YkqptIjyUBzwPWAjYYjVnA6sCc0X9vEbCUlNDcNy7uBW4Cbhz95/XA7WVVXpKabg7wa2Ck4vEXYOtMfVBnrwJWEH99yop7Sd/XTwJ/R0oQ1Ww7E/NdO7aMxk2w0QD1HSROKKNxqiaTgHprWxIwMW4B/gc4Bpg7YF+qekwA8ocJQMuZBNRb25OAsVgJ/An4V2DHgXpUVWECkD9MAGQSUHMmAY+Ni4DjcWSgzkwA8kdIAlDVyUtt9TBwBHBWdEWmsA1pdYBJwKN9FXgt1V4dULY9gBOBvwLfA55FmpwoKZgJQPU8DBxO9ZcIbgOch0sEJ/oq1V8iGGEW8ELgF8A1wJuB2aE1klrOBKCaxpYIVn0kYGyJoCMBj3YyjgRMZgfSKoK/AG/DREAKYQJQXb4OqDdfB0ztccDHSfsLvJE0SiCpJG4EVG1jSUDVNwsaSwLcLOjRvjr6zypvFlQFmwGfAd4CvB34UWx1VBEbU/4rxvVLLk+akqsD6u0DxF+bOsWZwC599bRyiFoF0KZwFYC6qtvEwG2iK1IRM0iT3d4eXZGaORS4BPgIactiSWo9RwLqY2fgfOKvRd3jSmCfafa9iuUIQP5wBEBTciSg+oZIk/8uBPYNrksT7AL8ljQaMDO4LpIUzpGAanoccC7x/d7U+C3t+j5VhSMA+cMRAPXMkYDq2RO4ADgguiINtj/pnIFnRVdEagITgPqq02ZBv6bZv9xeAfyOZrexKjYEzgDegVsKSwMxAag3RwJirUZ6N/3fwBrBdWmTYVK/fxv7XeqbCUD9ORIQY23g56RfoorxItJogJu3SH0wAWgGtw0u10akZObQ6IqIg4HfAJtGV0SqGxOA5vB1QDk2JSVae0dXRP/nCcDvge2iKyLViQlAs/g6IK9tSJv77BZdET3GPNL3fvvgeki1YQLQPI4E5DEX+Bn1S1raZCtSEjAvuB5SLZgANNNi4HlUPwnYCjiH6icBY+/8d4quiKa0JfArnBMgTckEoLl8HVCMdUiz/Z8QXRH1bHvgF6Rrp8HNia5AC9jHymI26RdR9FaXU8XNVG8kYBg4nfi+MfqLs4FZj7mqmo61gYuIv5ZNj4eB/Xq8JtK0eHZAfz5FfJ8Yg8VXHnNV1auZpNGv6GvYlrgT2LanKyNNkyMB03Ms8X1hFBNvRv34PPHXrm1xPbBxLxdHmi5HAnpzALC0Q72MesZS4OloOv6V+OvW1jiPkra49jCN9plDeq99SHRFpnAjaZe3m0sud0PgEmCLksvN7S5SX95Get+4CFhImuewJrAuJUrg/QAAG+NJREFUsBbpne9ONO9XyJ2kExvviK5IDbwc+Do+HyJ9F3gpsDK6ImoeRwI6GwJOy9COMmM5cCFp+PZY4Imk1z/TtT6wL+mkw88DV1egbYPGL/ChNpVDgEeIv1YGfGyKayX1zSTgsd5UUpuKjgdJJ+O9jLRnQS6bjZZxKmkUIbrd/cRbC++V5tgVeID4a2SsijdMesWkAZgErPJ40t4J0W3tNVaS9nh4OTFriNcFXgWcO1qX6P7oNZbgVs6dbAb8lfjrYzw6lpM2dZOyMAlIG2L9tgJt7CUeIS1t2yFLT/RnF+AUYBnx/dNL/D/S3AclawMXE39djM6xCA8fU0ZtTwKOq0DbpoqlwGdIW91W1bbASdTjHfLbMvVB3bjWvx7hHgHKqq1JwBakd+jR7ZosfgbsXGCbc9uZ6n+XFlKtTaeifIX4a2H0FleTVilJWbQxCfhuBdrTLW4HjiionRH+jtSG6H7sFt/N1/RacK1//eI3lLRHgNqpTUnAflR3Att3aEa2vx7wPeL7s1scmK/plfZyqvvdNyaP7+BBfsqoDUnAEPC7CrRhYiwhrb1vmjeS2hbdvxPjItp3M3Wtf/2jkD0C3BRD3TR9x8AXAP9bfHUGcg/wfFJi0kR7At8H5gXXY6KXkH5VtcGupBUv60ZXpIOHSK8llkRXZJxXU90Z+G8EPhddCTVXU0cChqneznZXUI1DkHLbFLiU+P4eH3+mHcsCq7zWfxnw7HxN79tc4Abi+6dTuEeAsmtiEvCiCtR3fPwKWKfHujfBeqQNhKL7fXwck7XF8aq+1v/V+Zo+sJ2Ae4nvo06xCHhKvqZLzUoChkjvfaPrOhbnEbOTX7Q1gJ8Q3/9jcSXNfSW6GtVe6/8f+ZpemKdR3Z1C78I9ApTZbNIv1egv+1RxM5MPpT+nAnUci0tIh+601WxSAhR9Hcbi8LzNDfN54vu2W5xKfRKvo4EVxPdZp7ie5p3gqYppwkjA2RWo3wjpF2fOg3vqYn3gcuKvxwjpu9E0VV7r/2tgVr6mZ/F24vutW7hHgLKrcxKwcwXqNULa1nPzHvu7DTYHbiH+uowAu2dua5mqvNb/ctJckDr6LPH91y3cI0DZ1fV1wMcrUKcVwDOn09ktsQ/pvIPo6/Pp3A0tyYFUc9+FEdLukFvna3p2M4AfEN+P3eLEfE2XkrolAbOAuytQn3/tp7Nb4h3EX5/7qf+kzF2A+cT3ZadYAOyRr+mlmQ38nvj+7BZvytd0KanT64DjK1CPn+Pw3GSGgJ8Sf53+LndDM3Ktf3ncI0CtV5ckIDoWkE4e1OTmEv/r9fTsrczDtf7lc48AtV5dXgdExj/33bvtcxyx12opsEH2VhZrGPgx8d/zbvH+fE0PV+U9Au4BdsjXdClxJKB7XEbajEW9GQb+SOw1e0XuRhbsK8R/z7vFN6jPWv9+vYjq7hFwNc04WVQVZxLQOZ42SKe21N7ELmH7Yf4mFsa1/tVQhXlG3cI9AlQKXwc8Os4YrDtb7YfEXbcF1OPB9RKqu9b/Stq30+Wnie/3bvFdnISsEjgSsCr89d+/vYi9dgfnb+JA9gUeIf473iluA7bK1/TKGgZOI77/u8X78jVdWsUkAM4ZtBMVeojNh0toX7/WIy1vjf6Od4qmrPXv15rA/yP+OnSK5cBB2VoujdP2JOBZg3dh6x1I3PX7TQnt69fJxH+/O0XT1vr3q8p7BNxCelUrZdfWOQE30vyZz2W5hphruIRqTpzalvSgjf6Od4rjMra7branGruPdgp3ClRp2jgS4Lu24ryHuOv41BLaN11fIv773Sk+kLPRNfV0qrlHwF+BmRnbLT1K20YCdiym2wq1C/Au0na7VwN3jcbVo//bu0b/naqZR9xM9zfnb960DAP3Ef/9nhin4ohXN0dTzT0CDszZaGmitowEnF9UhxVgBnAM6SHfa/2vHv1vqrRk6LfEXMuvlNG4adiP+O/3xGjTWv9+VXGPgA9lbbHUQRuSgOML663B7A9cSv/tuJTqDIG/m5hr+YcyGjcNVXuQXEFakaCpfY746zU+zsvbXKmzpicBexXXVX17NcWsEV8GvKHkuncS9ct3EdUa2v4v4r/fY9HWtf79qtp5Ddfnba7UXVPnBDxA+kOP9D6Kb1f0pMbVgAeJuaabltC+Xn2L+O/4CK7179ds0ivC6Os3AizM3FZpUk0cCTit0B6avpeTr23HltiOTn5KvrZNFvuX0bge/Yj477hr/Qczl4ps4lSlST5qn4eBI4CzoitSoMj3ansAJ2X8/M8R+6vvT0Hlzgsqt6peT9qhUf25C3gOMD+6IiYAita0JODqwLL/k7wb16wBfDLj50/lmqByfc+9ygep3sqIOroGOIq02ZTUek2ZE7BD0R3To8OnUcdB429KatNEUYcDfbyMxvUo8hWAa/2LF71HgFQZdU8ClhG3u1aZcyl+XVKbJlqbmA2BvlZC23oVlQCcA6yev3mtdAJx9yypUuo8MfC6DP3Riw0od2/45cCGpbTssSL2Vj+9lJb1JiIBuBvX+uf2PQLuWc4BUNXUeU7AXUHlPpe0TK4sw6RJTBEWBJS5TkCZVTKftLxV+fwlolATAFXRw6R32mdGV2SaFgeV+5SAMvcOKBNi1i479K1GMgFQVS0Gnke9koCoBGBeQJnbBJQJ8FBAmSYAaiQTAFXZYuBI6vM6IGpJT8QQ9boBZULMKwATADWSCYCqrk5zApYFlbs8oMyotkbcsyL6V8rOBEB1UJc5AesHlRuxo1jULmZzAspcFFCmlJ0JgOqiDnMCNg4q99qWlAkxCcDDAWVK2ZkAqE6qPicgKgGI6I+ozYAi5h5ETe6UsjIBUN1U+XXAJkHlngfcV2J584HflFjemCFgi4ByfQWgRjIBUB1VdSRgNrBRQLnLgR+XWN5pxEyM24jUx2UzAVAjmQCorqq6OmDHoHL/A3ikhHKWAR8qoZxOtg4q97agcqWsTABUZ1V8HRCVANwInFRCOZ8Hri+hnE6eGFTuX4PKlbIyAVDdVW11wJMCy34PeWfnXwO8N+PnT2WPoHJvCSpXysoEQE1QpTkB+waW/QApGcpxcMsC4AWZPrtXUcnVrUHlSlmZAKgpqjInYA9gjcDyryElQ0WuCriP1LdXFviZ0zUH2CuobF8BqJFMANQkVUgCZgEHBJYPaVngPhTzwL4W2H/0MyMdQMye/HcTc/6AlJ0JgJqmCknAcwPLHnMDKQl4H/0dobuQ9L5/T9KoQrRnBpV7UVC5kqQ+zSH9ah0JiKhZ8t3MBT4IXMXUdb9q9N+dG1LTzoZIfRpxLT9YQvum40eU3wdXl9KydvsoAd/v1UppmlS+h4EvAk8PKHs7YG/gjwFld3IX8O7R2JHUJ9uwatOie0nLCH9D3B7/k9mX1KcRHAFQY5kAqMkuCCz7GKqTAIx3LdV8yE/mpYFlmwCosZwDoCb7C2kSV4SXErNtbdPMAf4+qOz5wE1BZUvZmQCo6aJGATYEXhZUdpO8HNggqOyzSe9KpUYyAVDT/Sqw7LeQJrCpP0PAPwWWH/ndkbIzAVDT/TKw7F2AowLLr7u/JfVhlMjvjpSdCYCa7lrSDPcoH8bJtv0YBt4fWP51xH5vpOxMANQGZwSWvRNxk9jq7Bhif/07/K/GMwFQG/xvcPkfBdYLrkOdrAN8ILgOPwguX8rOBEBtcB5wR2D5c4kdzq6bjwKbBZZ/O3BOYPlSKUwA1AYrgdOC63Ac6VAdTW5/4LXBdTgVWBFcByk7EwC1xdeDyx8GTiENb6uz9Uh9FH1f+mZw+VIpov/QpLJcQOx59pD23/98cB2q7CRSH0W6CrgkuA5SKUwA1CZfja4AaUXAW6IrUUFvBY6OrgTwlegKSJKKtxHplMCIY2XHxzLgGZnbWieHA8uJvy4PUv1XNB4H3EwhxwE7AqA2uRf4RnQlSBsDfR/YM7oiFbAH8C3SHIloJwMLoisxhZUtKbNtIvp4hQmA2ua/qMYNbR3gZ8CO0RUJtCtpu921oytCmvX/6ehK9GBhQJkPBZTZNiHX1QRAbXMN8NPoSozahLTePHLHuyiPB84kvZapgtOox9a/twaUeUtAmW0Tcl1NANRG76c6x7xuSkoC2vQ6YF/S5kxzoysyagT4UHQlenRpS8psG6+rVKKIyVSTxUPAEVlbXA2HA4uI7+/x8Z2sLS7WesBSyu2fJ5XSsnYbAv5Kudf1xaW0TKqgJ5LmAkQ/fMbHCuB40s2gaYaAd1ON2f7jYymwQ8Z25/BLyuufm8ppkoDPUN51fYTqr3iRsvoG8Q+gTvFjYMOM7S7bBsBPiO/XTvHFjO3O5WjK659/KalNSiMtKyjnukbvjCqF25w09B79EOoUtwDPztf00hxBOlwnuj87xSJiDx3q1xDwB/L3z23AnJLapOQU8l/XxcDWZTVIqrJ3E/8gmixOoToz5adjE8q5mQ0SJ2RrfX5PJ//rlFeU1Rj9n63J/6Pkw6W1Rqq4NUhLA6MfRpPFfODtwOqZ+qBIawDvIO2qF91vk8UlpA2Z6ux48vXPl0tshx7tKPK9CjgLmFleU6TqO5DqTQjsFDcCr6GaicAawD+S6hjdT1PFCmCfPN1Quq9RfP+cC8wqsQ16rHdR/HW9jmbNLZIK8wXiH0y9xu2kX9mPy9IT0/M4Ul2q+p6/U3wmS0/EmAGcSHF98218718Vr6e4JZ+/Ib2Wk9TBFsQ/mKYby4EzgJcAs4vvkq5mAy8dLbtqy/p6iS2K75JwLwPuo/8+eRh4J81cglpnBwM3M9g94rM4oiNN6inEP5gGiQdJmxu9GdiNYm/kQ8Duo5/9I6r/fn+qeEqBfVMl65NGAxYzvQfEycCWAfVVb9YgzfeYz/S+5z8hnbfRldmelLyMNGu9Ke4B/kg6yvXacfEQ3U+8W2c0diRtjrMjsDOwN7Bx5vqW6eXAN6MrkdF6wHOBI0nzWyZuuXw/cD7p/IMfA3eWWjv1azbwTNJ1PRTYikc/wxcCfyJd09OAG8quoFRXY+cDtCUeJL23v536/6KfbryfdlkLmAdsC6wbWxUVaDYpCdiWPpcK130ZjFSUnaIrULKxX/tt1LYjmBcSc9ys8lpMOj+gb54GKCVteyi0mddawjkAEqS/gwWkoVI13yJgbdLrAKm1HAGQ0pkAPvzbY03SNZdazQRAat/7f/kaQDIBkPBh0EZec7WeCYDkw6CNvOZqPRMAyYdBG/naR61nAiD5MGgjkz61nssA1XazSMvC3BSrXVaQTr1bGl0RKYojAGq77fDh30bDpC1UpdYyAVDbOfzfXl57tZoJgNrOd8Ht5bVXq5kAqO18CLSX116tZgKgtvMh0F5ee7WaCYDazvfA7eW1V6u5DFBtti7wQHQlFGp9/A6opRwBUJv5C1A7RFdAimICoDbzHbBMAtVaJgBqMxMAOQKg1jIBUJtFJQD/AHwTWB5UfpUsB04h9UkERwAkqYUuBkYCYr3R8ucBnwKWBNUjMpYC32BVErZuUD0uQpLUKkPAQsp/4NzZoS5bAx8D7g6oT9lxN3AisFWHfrgzoD4LcTWUJLXKFsQ8AM+dpE6zgKOBXwErg+qXKy4EXgvMnqT95wXVbYtJ6iRJaphDiHnYfLnH+u0E/DtwaVA9i4hLR9vQ61yLLwfV85Ae6ydJaoDXE/OwOb6Pum4PnABcQDrHPvrB3i2WA+eP1nW7Ptp5fFC9X99HXaXa8xx0tVXUCoBr+vhvrie9Nz8RWAvYF3gasD9wAOnVQYQVwCXA74DfAr8G5g/wedcWUak+uBRQrWQCoLaKSgCuG/C/XwicORqQEoK9gV2B3Ub/uROwwYDlTHQPcANwOXDZaFw0Wp+iRCUALgVUKzn7VW11HWlovUzLgTVJS+ByW5u0umAesAkpIdgA2JD0d7/ehH///tF/PkCaqX8fcC9wM3AjxT7ou5kFLKL8HybX4yiAJLXCLGAZ5b9rHvTXfxtcT8zchajXKFIYdwJUG21HzOuvft7/t01EHw0D2waUK4UyAVAbRb3zjXrHXSfOA5BKYgKgNoqaAGgCMLWoPvJgKLWOCYDayASgukwApJKYAKiN6rQHQNtE9ZEJgCS1wF2UP9PcQ2d6MwQ8RPnXp9MhTVKjOQKgtlmXtC6+bNeSHjSa3AhpKWDZ5vLYvRGkRjMBUNu4AqD63BJYKoEJgNrG9//V5zwAqQQmAGobVwBUnysBpBKYAKhtfAVQfW4GJJXABEBtU9dTANvEVwCSpEK5xKw+XKopZeYIgNpkc2CtgHKdADh9EX22JrBZQLlSCBMAtYnv/+vDeQBSZiYAahNXANSHKwGkzEwA1CYmAPVhAiBlZgKgNnEToPpwJYAkqTDXU/7M8uXArDIa1zCzgGWUf71crilJDeMDpX5M2KSMfAWgttgOWC2gXIf/+xfRd8PAtgHlSqUzAVBbOAGwflwKKGVkAqC2cA+A+nElgJSRCYDawhGA+jEBkDIyAVBbmADUjwmAJGlgd1L+jHIPlxmMhzdJGTkCoDZYF5gbUO61pAeK+jNCWgpYtrnAegHlSqUyAVAbOAGwvqL6cIegcqXSmACoDdwCuL7cEljKxARAbRB1M3cXwMFF9aEJgBrPBEBt4AhAfUX1oZsBqfFMANQGUTdzRwAG5ysASVJfXEpWf3fhEk6pcI4AqOk2B9YKKNfh/+JE9OWawGYB5UqlMQFQ07kEsP48FEjKwARATecWwPXnlsBSBiYAajoTgPozAZAyMAFQ07kEsP5cCSBlsFp0BaTMom7i5+M5AEWJmo3vHAA1mstc1GSzgEWY6Ko/K4A5wNLoikg5+ApATbYdPvzVv2Fg2+hKSLmYAKjJfIerQfkaQI1lAqAm8+atQZlEqrFMANRk3rw1KL9DaiwTADWZN28Nyu+QGssEQE3mzVuD8jWSGssEQE21PzA3uhKqvbnA06IrIeXgPgBqou2B3wMbR1dEjTCflAT8OboiUpFMANQ0m5Ie/vOC66FmuRV4KnBLdEWkovgKQE2yNvBTfPireFsAZwDrRVdEKooJgJpiJvA9YI/oiqixdgV+AKweXRGpCMPRFZAKMAR8FXhBdEXUeNuQ5pj8ILoi0qBMANQEHwbeGF0JtcaupFGAX0dXRBqECYDq7nXAR6IrodZ5GnA/8IfoikhSGx0BLAdGDCMgVuBrJ9WYywBVV/sAZ5HOa5eiLAGeCfw2uiLSdJkAqI7c6EdV4kZBqiUTANWNG/2oitwoSLXjPgCqEzf6UVW5UZBqxwRAdeFGP6o6NwpSrbgMUHXgRj+qCzcKUm2YAKgO3OhHdeJGQaoFEwBVnRv9qI7cKEiVZwKgKjsC+AbOVVE9HQZcicsDVVEuA1RVudGPmsCNglRZJgCqIjf6UZO4UZAqyQRAVeNGP2oiNwpS5ZgAqErWBs6lumv9zwOujq6EJrUzcEB0Jbq4BDgQWBBdEUmqkpnAz4k/4a1bnI0bvNTBTOCXxH9fusVZ+D2SpP8zBHyN+Jtzt7gCt3itk3WAi4n/3nSLU3H0VZKAtNFP9E25W9wKbJmv6cpkM+Am4r8/3eLD2VouSTXxOuJvxt3iAWD3fE1XZruQZuBHf4+6xT/la7okVdsRwHLib8Sd4hHg0HxNV0kOABYT/33qFCvwfAtJLbQPsIj4m3C3G/PR+Zqukj2P6iaai0l7BEhSK2wP3E38zbdbvCVf0xXk9cR/r7rFfcDj8zVdkqphU+BG4m+63eLEfE1XsI8R//3qFrfgZFNJDbY2cBHxN9tu8W08eKjJhkiHS0V/z7rF5bjcVFIDudGPqsCNgiSpRG70oypxoyBJKokb/ahq3ChIkjJzox9VlRsFSVImbvSjqnOjIEkqmBv9qC7cKEiSCuJGP6obNwqSpAG50Y/qyo2CJKlPbvSjOnOjIEnqgxv9qAncKEiSpunLxN8cu8VlwLr5mq6GWZf0nYn+3naLL+druiRNz4uJvyl2Czf6UT+qvlHQy7K1XJJ6tBWwgPgbYqeYDzwhX9PVcE+guhsFLQC2yNd0SZra54m/GXYKN/pREaq8UdBnMrZbkia1GdW8ObrRj4p0NOk7Ff29nhiLSctuJal0byH+Jtgp3OhHRavqRkGeFyApxM+IvwFOjI9lbbHa7D+J/35PjJ9mbbEkdTADeJj4G+D4OBU3+lE+M0jfsejv+fhYSNrASJJKszHxN7/xcTZukKL8qrhR0EZZWyxJE+xK/I1vLK7ALVJVnnWAi4n/3o+FS13VF4dL1a+q7Kx3C3AY8EB0RdQaC4DDSd+9KjD5VV9MAFRnD5JuxLdFV0StcxvwbOD+6IpI/TIBUF0tBV5A2rNdinAVcBSwJLoiUj9MAFRHK0l7of86uiJqvfNIZ2GsiK6INF0mAKqjfwa+F10JadSPgTdFV0KSyrI/MTOeP11G46Q+fJqYv4n9y2icmscRANWNw/6qKr+bqhUTAEmSWsgEQJKkFjIBkCSphUwAJElqIRMASZJayARAkqQWMgGQJKmFTAAkSWohEwBJklrIBECSpBYyAZAkqYVMACRJaqHVoiugwq0JbAIMZS5ns8yf381cYNugsqXJzA0qdzPy/02sBO4BFmUuRyXK/ZBQfusAzwaOBA4GNo2tjqQGuwM4G/gR8HPgodjqaBAmAPW1JvBG4F9ISYAklWkR8FngQ8CC4LqoDyYA9XQU8CXSUL8kRboLeB1wWnRFND3D0RXQtAwB7wBOAtYKroskQboXvZh0fzo3uC6aBhOAevkE8G84ciOpWoaAg4C1gV/GVkW9MgGoj1cAH4muhCRNYj/gduCi6Ipoav6SrIfdgT8Cs6IrIklTWArsBVweXRFNzo2A6uFj+PCXVA+zgI9GV0JTcwSg+g4FzoyuhCRN0yGkPQNUUY4AVN9roysgSX14TXQFNDlHAKptdeBu3OhHUv08SNqrZGl0RdSZIwDV9nR8+Euqp3WBp0VXQt2ZAFTbk6IrIEkDeGJ0BdSdCUC1bR5dAUkawJbRFVB3JgDVtmZ0BSRpAG5ZXmEmANX2SHQFJGkAD0dXQN2ZAFTbXdEVkKQB3B1dAXVnAlBtV0VXQJIG4D2swtwHoNrWJWXQbgMsqW4eIe0DsCC6IurMEYBqexDP15ZUT2fjw7/STACq73+iKyBJffhWdAU0OV8BVN8wcAmwa3RFJKlHlwN7ACuiK6LuHAGovhXAu6IrIUnT8E58+FfecHQF1JNrgY2Bp0RXRJKm8GngM9GV0NR8BVAfqwE/Bw6NrogkdXEm8BxgeXRFNDVfAdTHcuBvgZ9EV0SSOjiddI/y4V8TvgKol0eA7wBrAE/FERxJ8VYCHwFei9uX14oJQP2MkIbZvg9sBewYWx1JLXYm8CLgm6R7k2rEX5D1tz/wQuBIYJvgukhqvr8ApwH/C/w+uC4agAlAs8wDdgLWI20jLElFeBB4ALgGuCm2KpIkSZIkSZIkSZIkSZIkSZIkSZIkSZIkSZIkSZIkSZIkSZIkSZIkSZIkSZIkSZIkSZIkSZIkSZIkSZIkSZIkSZIkSZIkSZIkqQ3+P6kFauIF7lxnAAAAAElFTkSuQmCC;" vertex="1" parent="1">
          <mxGeometry x="40" y="1020" width="60" height="60" as="geometry" />
        </mxCell>
        <mxCell id="uI7jijBP5rXE629CTqQX-2" value="" style="shape=image;verticalLabelPosition=bottom;labelBackgroundColor=default;verticalAlign=top;aspect=fixed;imageAspect=0;image=data:image/png,iVBORw0KGgoAAAANSUhEUgAAAgAAAAIACAYAAAD0eNT6AAAABHNCSVQICAgIfAhkiAAAAAlwSFlzAAALEwAACxMBAJqcGAAAABl0RVh0U29mdHdhcmUAd3d3Lmlua3NjYXBlLm9yZ5vuPBoAACAASURBVHic7d15tFxVge/x7725ISRBIIAyBbiEMaCGQUGQFpQoyCBCE/A90RZReIiirxsFR5SnNooDrR3bAQdAngKiTCqKotAoiKCAzCAziAzBIAkJkKT/2DeLGHKHqrPr7H3O/n7WqrUckl2/qtTwq3322acPKZ51gV2AbYFtgEFgtaHb5HSxJHXpKWDu0O0+4Nqh2xXAnQlzKYK+1AHUeOsBbwb2B3YE+tPGkVSTa4FzgTOAOxJnURcsAOrWpsB7gMOBlRNnkZTOYuAnwKcJMwNqCAuAOrU68AngKGBc4iyS8nIh4bPh3tRBNDo/wNWJ/wX8GHgNTvVLer7NgXcA84CrEmfRKJwB0FgMAJ8Ejk0dRFJjXAC8hbCAUBmyAGg0UwgLfV6VOoikxrkB2Ae4J3UQPZ8FQCNZDfg5sEPqIJIa6x5gVywB2bEAaDgvIHz5vyJ1EEmNdzuhBPwldRA9x4VcGs5X8ctfUhybAT8CVkodRM/xLACtyLtxwZ+kuKYCkwgzi8qAhwC0vG2AK4EJqYNIap0lwBsI+wUoMQuAljUA/A7YLnUQSa31F+DFwJzUQUrnGgAt66P45S+pt9YFTk4dQs4A6DkzgN8D41MHkVSEAwgLA5WIBUDg1L+k+nkoIDEPAQic+pdUPw8FJOYMgLYhXLQj9tT/I8DpwEWEK4M9HHl8Sb03BdgQ2A04dOg/x/YGwnUDJNVoPHAt4dScWLdFwGfxNEKpbfqBfwMWEPcz40FC0ZBUo48T9438DLBfnQ9AUu12AP5O3M+O02p9BFLhtgGeJu6b+KhaH4GkVPYGniXu58e+tT4CqVADwNXEffOeV+sjkJTaZ4l/KGCNWh+BVKBPEPeN+yiwdq2PQFJqE4Ab8FCA1BgziD/1f3Ctj0BSLnYk/qGA/Wt9BFIhnPqXFJuHAqQGcOpfUmweCpAy59S/pF7xUICUKaf+JfWahwKkDH0cp/4l9VYvDgWcWusjkFpmBrAQp/4l9Z6HAqRMOPUvqW4eCpAy8HGc+pdULw8FSIk59S8pFQ8FSIk49S8pNQ8FZK4vdQD1xPGE6f9YHgVeDPw14phjsQtwALA98CLgceAu4ELgXOCpmnLMAGYBOwHrAPOBe4CLgLOBuTXlUJ4mAm8kXM1uY2B14GFCCf8h8JuacgwQrtL3BmALYE3Ce/dG4EfAxcDimrIArAz8Edgy4pinAf8ScTypVXpxmd831foIwofXJaNkuhc4qMc51gF+QPjQHC7HY8B7sEyX6mDgPkZ+rf4S2LzHOV4D3DRKjmsIU/N1egXxDwXsU+sjkBpiPKFxx3yznVPrI4DdCL/0x5rvkz3KsTWjf7AvezsdGNejLMrTpxj762MOsGuPchwBPDPGHAuofy1P7EMBDwBTan0EUgMcT9w32iPUu+p/Czr78l96OzJyjhcSDjV0muOkyDmUr3fT+etjDrBZ5Bz7Aos6zLGQcHitLisDN3eYcbSbZwVIy2jDqv9fdplzPrBBxBzf7DLHYsKUp9ptfWAe3b1GfhUxx2TCwrhuctxKmDGsi2cFSD3Shqn/XSrm/WKkHBtQ7YPKsyXa7z+o9lrdOVKO91bMcUikHGPloQCpB44n7hur7ql/gC9UzHwPcRbivadijqeAVSLkUJ76CAtQq7xGPhcpy6UVc/wwUo6x8lCAFFkbpv4Bft1l1mVva0XI8a0IOXaIkEN5ehHVXx+XRMry94o57o6UoxMeCpAiacPU/1Ixfhm8JEKOn0TIsV+EHMrTS6j++rg5Qo7JEXIsjJCjGx4KyER/6gCq5MOE8/5jeQx4V8TxOrFSJmPEWBgVI4fylMvrNJcxuvFRwuZEsawHnBxxvGJYAJprBvDByGMeRf27/Ukqy0LgMMLpi7G8FQ8FdMwC0EwDhFPVYjb484AzI44nScP5HWHhb0yz8VoBHbEANNNHCPvjx/IYYTcxSapL7EMB6xLvdOAiWACax6l/SW3Qq0MBb4w4XqtZAJrFqX9JbdKLQwFfwUMBY2IBaBan/iW1jYcCErEANIdT/5LayEMBiXgN8/z1Ey5Nexpxz/lfBFwbcbyqXgxMqDjGzYQLA1WxGbBqxTHuJFzVUO0zCZhecYyFwA0VxxhHnM+DayKMEct0wvMby4OEUwP/QNh9UMuxAORpIrA3cBAwE3e5kqRuPUm4bsLZwLnA3LRx8mEByMtUwsVo3olf+pIU2zzCbOrJwG2JsyRnAcjD6oTj+0cTrpglSeqdZ4FvE66k+pfEWZKxAKS3F/A1wq9/SVJ95gIfAL5BuLBQUSwA6axEmIY6MnUQSSrcD4G3ES6xXAwLQBprAOcDr0wdRJIEhLOIXg/ckzpIXSwA9VsX+DnhtDdJUj7uA14H3JI6SB0sAPVajXA6yozUQSRJK/QgsDMFzAS4E2B9xhP23ffLX5LytR7wU6pvCJY9C0B9/h3YNXUISdKopgOnpA7Ra+NSByjEHsBsPOQiSU2xNfAAYSvhVvILqfcmAdcDm6QOIknqyFxgK8K6gNbxEEDvHYNf/pLURKsBJ6QO0SvOAPTWFMKV4VZPHUSS1JVFhMMBt6YOEpszAL11FH75S1KTjQP+NXWIXnAGoHfGAX8GNkodRJJUyXzC9VoeTx0kpoHUAVpsN+J/+T9BOD/1UsLq1PmRx5ekplqZsNPqTsC+wFoRx54EHAB8M+KYarHZhKtLxbg9C3wGDydI0lhMBI4F5hHvc/iCWh+BGu1O4rzoniDsIyBJ6sz2hFP4YnwWzyfs6CqNaG3ivOAWAW+oObsktcm2xJsJ2KHm7GqgvYnzYvtq3cElqYU+RJzP5CPrDq7mOZrqL7RnCBelkCRVMwl4lOqfy5+vO3gvuQ9AbwxGGONyWrr9pCTVbD5wYYRxBiOMkQ0LQG/EuIzklRHGkCQFV0QYY7UIY2TDAtAbkyOM8ZcIY0iSggcijLFKhDGyYQHojRiXWV4QYQxJUhDjM7VVm+dZACRJKpAFQJKkAlkAJEkqkAVAkqQCWQAkSSqQBUCSpAJZACRJKpAFQJKkAlkAJEkqkAVAkqQCWQAkSSqQBUCSpAJZACRJKpAFQJKkAlkAJEkqkAVAkqQCWQAkSSqQBUCSpAJZACRJKpAFQJKkAlkAJEkqkAVAkqQCWQAkSSqQBUCSpAJZACRJKpAFQJKkAlkAJEkqkAVAkqQCWQAkSSqQBUCSpAJZACRJKpAFQJKkAlkAJEkqkAVAkqQCWQAkSSqQBUCSpAJZACRJKpAFQJKkAlkAJEkqkAVAkqQCWQAkSSrQQOoAGtb+wLTUISSpJQZTB8iNBSBfew7dJEmKzkMAkiQVyAIgSVKBLACSJBXIAiBJUoEsAJIkFcgCIElSgSwAkiQVyAIgSVKBLACSJBXIAiBJUoEsAJIkFcgCIElSgSwAkiQVyAIgSVKBLACSJBVoIHUADesi4LrUIYAdgd0qjnEd4fGUYj9gy4pjxPj3343w71fF74BfVxxjBrBnxTFuAc6rOMYgcHDFMR4CTq04RpO06f0/SPV/f2lUZwFLKt4Orz31ih1L9cfytdpTp5XLv/+JEXKcGCHH4RFynBUhx8wIOa6OkKNJ2vT+999/OR4CkCSpQBYASZIKZAGQJKlAFgBJkgpkAZAkqUAWAEmSCmQBkCSpQBYASZIKZAGQJKlAFgBJkgpkAZAkqUAWAEmSCmQBkCSpQBYASZIKZAGQJKlAFgBJkgpkAZAkqUAWAEmSCmQBkCSpQBYASZIKZAGQJKlAFgBJkgpkAZAkqUAWAEmSCmQBkCSpQBYASZIKZAGQJKlAFgBJkgpkAZAkqUAWAEmSCmQBkCSpQBYASZIKZAGQJKlAFgBJkgpkAZAkqUAWAEmSCmQBkCSpQBYASZIKZAGQJKlAFgBJkgpkAZAkqUADqQNIWqEPAYdXHGP9CDn+BZhZcYy1IuSYCVxdcYxVI+SQWsMCIMWzMnAgsEOEsTYauqW2ztAttSnA9qlDANOAdwHfBZ5InEWqxEMAUnX9wGHAHcDp5PHFrd6YAswG7gaOASYkTSNVYAGQqhkELgFOIc6Uu5phCnAScBXwksRZpK5YAKTuvQL4HbBr6iBK5qXAFcB+qYNInbIASN3ZCfgF8KLUQZTcZOAc4ODUQaROWACkzm0JXET44JcAxgGnAa9KHUQaKwuA1JmJwNl4SpmebyXge8ALUweRxqLppwH2ExZerQGsQliRO5dwes79wFPpoqmljgNenDqEsrUeYXHg2xLnkEbVtAKwJrA78FrCOcFbAJOG+bOLgXuAGwirtC8Gbqwho9prPeADqUMoe28FvgxckzqINJImFIABYG/gHcDrCcfaxqIf2Hjotu/Q/3Yr8C3gVOCvcWOqAO8lbPYjjaQPOBY4KHUQaSQ5rwHoB2YBNwHnAvsw9i//4WwBfAa4F/ga4RedNBYTCSVUGosDgA1Th5BGkmsB2BG4DjgL2KwH469E2Gf9duD9VC8War8DCWtNpLEYBxyaOoQ0ktwKwHjgs8BvqGeh1aSh+/stsHkN96fmqnphHpXnMPxxoYzlVADWJJxbneIX+Q6EK43tO9ofVJGmA69MHUKNswFh3ZKUpVwKwMbA74HXJMzwAuBHwBEJMyhPRxAWdkmdcuZI2cqhAGxA2FJ149RBCDMP/wUcmTqIsjEReEvqEGqsvXAxoDLVzWmA6wG7EY7RDwKrERbVdWsr8lqN3wf8J+EMhEVdjuHVwdoj1uK/eUNjPRthLNXjm1T/8l66GPAT1eNIcY21AEwi7Gz1NuDlvQqTkX7g1alDKAuxpnC/T1jjouY4BTghwjiHAZ+k+x8UUk+MdghgHHAUcBcwmzK+/KWltgZ2iTTW1yONo/p8izgzNi4GVJZGKgCDwOWE6XAveaoSvTPSONcCV0UaS/V5APhxpLFcDKjsDFcAXknYx/oVNWaRcjKRsKd7DP76b65Y/3Z7AVMjjSVFsaICsCvwc9z1TGU7EJgSYZx5wBkRxlEaPyNcVKyqcYS1AFI2li8AWwHnMfwV9qRSxFz890SksVS/RYSzAWJwZ0BlZdkCMImw9/5qibJIuXDxn5blYkC10rIF4MOED74mWkA4U+FGYE7iLGq+WL/+XfzXDi4GVCstLQAbAMekDNKFJcA5wB6EWYtphM2J1gS2BD4GPJ4snZoq5s5//vpvDxcDqnWWFoB/o9pufnV7iLBY8UDCgsWnl/v/bwX+H7AJcG690dRws3Dxn57PxYBqnX5gAvFOd6rDA8COwH+P4c8+Dvwz8RbxqP1c/KcVcTGgWqcfeC1xfvHUYRGwP3BvB39nMfAu4Hc9SaQ22Zp4l/11+r99XAyoVukn7SV4O/VtwmWDO/U08D7CugFpOC7+00hcDKhW6Qe2Sx2iA1+u8HevpLvyoDJMBA6JNJa//tsr5mJALxOspPqBTVOHGKP7gesrjhGrvat9ZhHvsr8u/muvmIsBD40wjtS1fppz/P/2CGPcEWEMtZOL/zQWiwhrAWJ4By4GVEIDhKnPqg4l/PIZzquBIyvex5MV/z7A3Ahj3E7YNGkk/4oXUmoSF/+pE98EPkr4/KxiKmEx4IWVE0ldGAD6IoxzHiNvujOe6gUgxiWJ140wxv3A2aP8mVlYAJok1q//63HxXwmWLgbcL8JYh2MBUCLDXQ44thi/vLcGVq44xrYRcvwtwhjKR8yd/74WaRzlz50B1Xh1FYBOztsfzirA6yr8/QHiNPb7IoyhfMTc+e+7EcZRM7gzoBqvrgJwF2FDnqo+QveHLA4D1o+QwYWE7eLiP3XDnQHVeHUVgCeB2yKM83LCArtObQJ8KsL9A1wTaRylF3Px3zcijaPmcGdANVpdBQDgikjjfIbOjtluBFxAuEpgVQuAP0YYR3mI9ev/OtxqukTuDKhGq7MAXBRpnHHAacBsRv5S7wPeRFiVPT3SfV8GPBVpLKXlZX8VQ8zFgBtEGksak6rnsXbiZ4Qvzxj7DkC4wM+bgXMI5eJuwkKs9YGdCIu7Xhzpvpb6QeTxlE6sxX9PE2a3pkUYS81zO/AI8MKK44wD3g58onIiaYzqLABzgfOBgyOOuRrhTfP2iGMOZy7wvRruR723MfCeSGOtBPwh0lgq2zsIe4zclDqIylDnIQCAr9R8fzGdRpzdCJXGRsDxhA/XO4GXpY0jPc9U4EbCWVMnAVuljaO2q7sAXEa4Kl/TLAa+mjqEurId4TDRncDHibceROqVQeAYQhn4BbBbyjBqr7oLAMDRxNkToE7fxGm5plmXMGtzNXAAaV7rUlW7A78iFAHLq6JK8aH4e+A7Ce63W3OAD6UOoY4cAtxMWOUf41oXUmq7E05B/r/4mlYkqX4VHUf4Ym2CDwGPpg6hMZkAnAqcTlggKrXJBOALhL0HfH2rslQF4BHC9pe5Hwo4H3d4a4o1gUuAt6YOIvXY6wmnnm6UOoiaLeVx0XMJ19TO1U2EKeTcS4rC+fwXATunDiLVZDphUbX7T6hrqRdG/TtwRuIMK/IwYWcuL+6Sv0mETaY8rU+l2RC4mOqbEKlQqQvAEsImPv8/cY5l3Q/MJM6lPtVbfYRj/i9PHURKZBpwHmF9gNSR1AUAwlaqh5DHFpg3Eq4O96fUQTQmRwMHpg4hJbYTYTZV6kgOBQDCTMDHgXcTCkEKPwd2Ae5NdP/qzNaEK0NKgvcRThWUxiyXArDUbGBH6v0FPo9wbu2ewN9qvF91rw/4T5z2lJbqI3x+rpQ6iJojtwIAcC1h+9b3AY/18H6WAGcSVtOePPTf1Qz74/ao0vK2IFwlVRqTHAsAwLPAfxCu2nYccaflFxLOPJgBvAm4L+LY6r0+4GOpQ0iZOpZ4l1xXy+VaAJb6O+E47zTgIxHGu45wxa1DcKFfU72OUN4kPd86hM83aVQDqQOM0SLgtgjjPILb+jbdO3s49hJcB6J6rAqM69HYh+MOphqDphQACcKH5r6Rx7wR+BrwE8Khpmcijy+tSD+wPrAHYS+UnSKO/TLCeoBbI46pFsr9EIC0rD2Jt8p5IXAU4XDCl4E/45e/6rOYsP7oFMIW1gcBcyOO/4aIY6mlLABqkpmRxnmKsJbgK4TDS1JqZxOKQKxDlLHeK2oxC4CaZMdI47yTcCEVKSc3EXa2jHEBsh3w812j8AWiphgPbBVhnF+T5wWoJIBLge9GGGd1vFywRmEBUFNsSJxFq5+LMIbUSydFGmfjSOOopSwAaor1I4wxD/hlhHGkXroBuDPCOFMjjKEWswCoKVaJMMZdwIII40i9dnOEMWK8Z9RiFgA1RYztTR+JMIZUh4cijDE5whhqMQuAmiLGa9VT/tQUMV6rfr5rRL5AJEkqkAVAkqQCWQAkKT9LUgdQ+1kAJEkqkAVAkqQCWQAkKT8eAlDPWQAkSSpQjL3VpTo8HWGMmfjLSuVw10uNyBkANcUTqQNIDTM3dQDlzQKgprg7dQCpYe5KHUB5swCoKe4BnkwdQmqIJcS5oJBazAKgplgMXJ46hNQQNwEPpw6hvFkA1CTnpw4gNcQFqQMofxYANcmZwFOpQ0iZWwKcljqE8mcBUJPMAb6VOoSUufPx+L/GwAKgpvk0nhIoDedZ4GOpQ6gZLABqmgeBD6cOIWXqi8D1qUOoGSwAaqLZwHmpQ0iZuQr4SOoQag4LgJpoCfC/gStSB5EycRewH3G2zFYhLABqqvnAPlgCpFuBVwMPpQ6iZrEAqMnmEC7w853EOaRUfgy8krBTptQRC4Cabj5wKHAgcH/iLFJd5gBHAPsCjyXOooayAKgtzgE2B94L/DlxFqlXHiSc5rcJ8HW8vLUqGEgdQIroKeBLwJeBnYA9gF2ALYD1E+aSuvUIYVOfK4GLgV8Bi5ImUmvkXAD6gb2BA4DtgakRxtwVuI2wYvYnwBnAoxHGVV6WAL8dui1rNZz1UnM8njqA2i3XArAdcAqwbeRxxwObDd1eB5wAfIKweYZTae03N3UAScpFjr+G9gH+m/hf/iuyKvB54HTyfC4kSeqJ3L70tgG+D0yq+X7fDHyq5vuUJCmZ3ArAbGByovv+APXMOkiSlFxOBeA1wM4J778feH/C+5ckqTY5FYD9UwcgnHWwUuoQkiT1Wk4FYEbqAIRFgYOpQ0iS1Gs5FYC1UgcYsnbqAJIk9VpOBeBvqQMMcV9tSVLr5VQAbksdAFiIV9WSJBUgpwJwYeoAhH2256UOIUlSr+VUAM4D7kic4QuJ71+SpFrkVACeAd4HLE50/+cQrrYlSVLr5VQAAH4MHEf9F+a5Bji05vuUJCmZ3AoAwEmEvfnruBTmEsKFgF4F/L2G+5MkKQs5FgCA7wGbAMcD1xF/RuAR4FRgJ+CtwPzI40uSlLWB1AFG8DhwwtBtPGGDnhjb9D4MPBlhHEmSGivnArCsZ4D7U4eQJKktcj0EIEmSesgCIElSgSwAkiQVyAIgSVKBLACSJBXIAiBJUoEsAJIkFcgCIElSgSwAkiQVyAIgSVKBLACSJBWonzhX2ls1whiSJKkm/cCCCOP8FFgnwjiSJKkG/YTL7lY1HfgZsFaEsSRJUo/1A3dEGuulwGU4EyBJUvb6gT9EHG86cAmWAEmSstZP+MKOycMBkiRlrp/wZT0n8rgeDpAkKWP9wNPA6T0Y25kASZIytXQjoM8DC3sw/kuBX2IJkCQpK0sLwH2EEtALHg6QJCkzy24F/Engxh7dj4cDJEnKyLIF4CngIGBuj+7LwwGSJGViYLn/fhOwH2Fr34k9uL+lJeD9wOIejJ+LtVMHkCRpJMsXAIBLgT2BnwCTe3CfLyUcDpAkSYkMdzngy4C9gHk1ZpEkSTUZrgCAJUCSpNYaqQCAJUCSpFYarQCAJUCSpNYZSwEAS4AkSa0y1gIAlgBJklqjkwIAlgBJklqh0wIAlgBJkhqvmwIAlgBJkhqt2wIAlgBJkhqrSgGAUAL2J1xISJIkNUTVAgBwMTATmBNhLEmSVIMYBQDgt8D2wJWRxpMkST0UqwAA3A3sArwbeDTiuJIkKbKYBQBgETAbGASOBv4YeXxJkhTBQI/GnQd8eei2MbAbMAPYFFgNmNij+83FNGBK6hCSJA2nVwVgWXcN3UpyFjArdQhJkoYT+xCAJElqAAuAJEkFsgBIklQgC4AkSQWyAEiSVCALgCRJBbIASJJUoDr2AZBS2QjYGZgOrI2bM6lZ5hK2Vb+FcJ2VW9PGUdtYANQ2LwLeAbwF2DJxFimme4EzgK8Trr0iVeIhALXFC4CTCLtOfgq//NU+GwIfBG4DvkEou1LXLABqg92Am4BjgElpo0g9N54wy3ULcGDiLGowC4Ca7j3AL4CpqYNINZsCnA2cCPQlzqIGsgCoyT4IfAkYlzqIlNCxwH9hCVCHLABqqrcDn04dQsrEEcDxqUOoWSwAaqIZwOzUIaTMfBTYM3UINYcFQE3TTzgNauXUQaTM9BPODlgldRA1gwVATXMosEPqEFKmphLOhpFGZQFQk/QDx6UOIWXuaMK+GNKILABqkt2BTVOHkDI3BTgodQjlzwKgJjk4dQCpIXyvaFQWADXJ7qkDSA2xCzAhdQjlzQKgplgDGEwdQmqIiYSrYErDsgCoKTZLHUBqmM1TB1DeLABqijVTB5AaZq3UAZS3gdQBpDGKcZW/m4GTI4wj9dohwD9VHMMNgTQiC4CaIsaFTh4g7CIo5W57qhcALw6kEXkIQJKkAlkAJEkqkAVAkqQCWQAkSSqQBUCSpAJZACRJKpAFQJKkAlkAJEkqkAVAkqQCWQAkSSqQBUCSpAJZACRJKpAFQJKkAlkAJEkqkAVAkqQCDaQOoGHtD0xLHQLYMdIYJ1YcY8sIOTaNkEOqQ4z33Z7AlAxyxHj/xzCYOkBu+lIHaKmzgFmpQ0iSoroGeFnqELF4CECSpAJZACRJKpAFQJKkAlkAJEkqkAVAkqQCWQAkSSqQBUCSpAJZACRJKpAFQJKkAlkAJEkqkAVAkqQCWQAkSSqQBUCSpAJZACRJKpAFQJKkAg2kDqBhXQRclzqEJLXEIHBw6hA5sQDk60fA11OHkKSWmIkF4B94CECSpAJZACRJKpAFQJKkAlkAJEkqkAVAkqQCWQAkSSqQBUCSpAJZACRJKpAFQJKkAlkAJEkqkAVAkqQCWQAkSSqQBUCSpAJZACRJKpAFQJKkAlkAJEkqkAVAkqQCWQAkSSqQBUCSpAJZACRJKpAFQJKkAlkAJEkqkAVAkqQCWQAkSSrQQOoAqt2GwMHArkP/GeBe4NfAmcB9NeV4IXAgsAewATABeBC4HDgLuKWmHKsA/wzsBQwCLwAeAq4CfgBcXVMOtdt04CDglcB6wELC++5nhNfZozXl8P0v9dhZwJKKt8MjZ1oZ+CLhg2e4+1wAfH7oz/ZKP/BB4IkRciwCTgWm9DAHwGHAX0fIsQS4kOc+KKVOrQGcTnhND/camwscR29nZH3/w8wR7nOsN38QaFS5FYA1gCs7uO8rhv5ObBOA8zrIcRuwcQ9y9AGzO8jxEPCyHuRQu00Dbmfsr7NzgZV6kMP3f2ABUC1yKgADwCVd3P/FxD9E9O0uctxAmJaP6aNd5HgQmBo5h9prVeBGOn+dnRI5h+//51gAVIucCsBRFTIcESkDwJ4VcpwYMccWwDNd5jgrYg612+fo/vX+2og5fP8/xwKgWuRSAPqB+ytkuI94xyUvr5BjPrB6pBynVcixGNgqUg611xTgKbp/nV0aKYfv/39kAViOpwG22yuA9Sv8/anADhFyrAvsVOHvTySs0q9qPLBvhb/fB+wfIYfabW+qLaTbBVg7Qg7f/xqRBaDdtstkjG2o/lrbNkKOaVT/JRHj+VC7VX2t9hPeM1X5/teILADtFuNXxLoRxjCHSrJOhDHa9HrPJYeWYwFot/GZjBHj1KY2jaF2y+U94/tfI7IASJJUIAuAJEkFsgBIklQgC4AkSQWyAEiSVCALgCRJBbIASJJU7UlaYAAABStJREFUIAuAJEkFsgBIklQgC4AkSQWyAEiSVCALgCRJBbIASJJUIAuAJEkFsgBIklSggdQBNKzpwMyKYwxGyDFI9RzTI+RYO0KO7SLkWDVCDrXb2hHG8P3/j3J5/7dKX+oALXUWMCt1CElSVNcAL0sdIhYPAUiSVCALgCRJBbIAxNcHrJ46hCQpulWA8alDxGIBiGsQuBh4beIckqT4tiCsA9g+dZAYxqUO0BJ9wOHAj4AtE2eRJPXO2sDbgcnAZcCitHG651kA1Q0CpwC7J84hSarXn4BDCbMCjeMMQPf81S9JZWv0bIAzAN0ZxF/9kqTnNG42wBmAzvirX5K0Io2bDXAGYOwG8Ve/JGl0jZgNcAZgdP7qlyR1ohGzAc4AjGwQf/VLkrqX7WyAMwAr5q9+SVIM2c4GOAPwfIP4q1+SFF9WswHOADzHX/2SpF7KajagDTMAfcD6wKrAxC7HWBk4AXhNrFAduAOYm+B+JUnhe2OrBPd7LfB+4PEu//5C4AngATI6rFCHHYATgSuB+cCSBt7mAe/FCzJJUmpvAh4h/fdCN7eFhDJxMrAbLf1O6QfeDFxP+ie86u0yYNO4T48kqYK1gXNI//1Q9fZn4EhgQtynJ51tgKtI/8RWvfmrX5Ly1uTZgGVvtxBmBBrtXcAC0j+ZVW/+6pekZmjLbMAiwvq2Rq73O5H0T2DVm7/6JamZ2jIb8F1gIPJz01MnkP5Jq3r7DbB57CdGklSbFwFnk/77pOrtdBoyEzCL9E9Wldt84Fj81S9JbTELeJj03y9Vbu+P/qxENpVwXnzqJ6rbm8f6Jamdmr424Glg2+jPSkRNnWqZBxyNv/olqe2avDbgCjI9FDADWEz6J6jTm8f6JaksTV4bsE8Pno/KvkP6J6aTm7/6JalsTZwN+FVPnokKJgN/J/0TM9abx/olSdC8tQGLgY168kx0aS/SPyljubnCX5K0Ik06U+D/9Og56MqnSf+EjHbzV78kaSRNmQ04o1dPQDfOJf0TMtztfuBwYFzPHr0kqU1mkvfF6/7Qu4feuatJ/4Qsf/s94apKk3r4uCVJ7TQAHEJYdJfbGW6P5HQu4C3AFhXHeIBwbeRuzAUeBe4GrgQuB26rmEeSJIANgX8CdgI2AdYcunWjHxismOeZin8/qj9TvdFsX3tqSZLqNYUIswCuZJckqUAWAEmSCmQBkCSpQBYASZIKZAGQJKlAFgBJkgpkAZAkqUAWAEmSCmQBkCSpQBYASZIKZAGQJKlAFgBJkgpkAZAkqUAWAEmSCmQBkCSpQAOpA0T2AsJ1kiVJaqvVYwySUwF4OsIYv4owhiRJbbcgp0MAc1MHkCSpEH/LqQDcnTqAJEmFuCunAvCn1AEkSSrEDTkVgEtTB5AkqRC/7kudYBkDwH3AOqmDSJLUYk8D6+U0A/AscHrqEJIktdy5wGM5zQAATAXuACakDiJJUku9HLg6pxkAgPuBL6UOIUlSS50JXA2Q2wwAwCrAdcC01EEkSWqROcBLgAchz2sBPAkcDCxMHUSSpJZYDLyNoS9/yLMAQJieOIiwMFCSJFVzDHDBsv9DrgUA4HxgFrAgdRBJkhpqCfAB4IvL/x85rgFY3s7A94ENUgeRJKlB5hCm/S9Y0f85rtYo3bkP+A6wKrAdec9aSJKUgzOBNwLXDPcHmjADsKzNCVMZBxPOFpAkScFC4Dzgs4zwxb9U0wrAUpOBPYBXAy8lFINVgUkpQ0mSVJMFwBPAncD1hOvp/BR4fKwD/A9jeMfku9tVTgAAAABJRU5ErkJggg==;" vertex="1" parent="1">
          <mxGeometry x="120" y="1020" width="60" height="60" as="geometry" />
        </mxCell>
        <mxCell id="uI7jijBP5rXE629CTqQX-3" value="" style="shape=image;verticalLabelPosition=bottom;labelBackgroundColor=default;verticalAlign=top;aspect=fixed;imageAspect=0;image=data:image/png,iVBORw0KGgoAAAANSUhEUgAAAdAAAAIABAMAAADApSCBAAAABGdBTUEAALGPC/xhBQAAAAFzUkdCAK7OHOkAAAAYUExURQAAAAAAAAAAAAAAAAAAAAAAAAAAAAAAAFY3HCoAAAAHdFJOUwsAOGaPtNujvtlnAAALi0lEQVR42uzcwXObRhTHcWHH9pW3SPLVqyblGho7XKNEKVfLScvVmqTmKgvB79/vCMGsO100UljDIr3vzbODtR8D1vDG8oDKxF2Coyv/JqlsQNve4kj7/F/oOxxtDy+hb3DEfVJQkeCIyyVV0BBHXVpBPRx5QQkNceSlW6jA0ScL6CWOvscCGuHoW2+gAieQpAGNcALNaUA+TqAVDSjCCbSmAeEkooHASSQHHk6iYDDCSTQfjHESLQbXOImeTwd6hZNoyVCGMpShDGUoQxnKUIYylKEMZaht0G831KvO7n4Jmr2n3nUeHw7NJPUwER8MDaiXeYdC76mnXRwGXVNviw6CTqm3DQ+BrqnHRQdA59TjRgdAHepx7v7QlHpduDd0Tr1utDdUUq8T+0Iz6nnJntCUel64J3RJPe9qT+icet5oT2hAPc/bEyqp54k9oQ697GwirYdNbuhl7p5Qetk7AA9ka2qLTaEX6jMytvbm/5OCw6ECRblD1uYmKJKNoNXqI1nbZUVpBI3tfxKPsC1rAvXsf8sRqAoaQMf2D5GGqFo0gKrFZ7K0a2VpAA1RtSJL81GVNoBG9j+6hahaM5Shp3eP+vZPHdT+V0beXhZkaWMjby9D+6cOHqqmDaAuynKytgRlTgMoher6t/23UUpNoEN15dp+7U4bQSm0faStttgMKhIAmUMW58YActkQSuLr0zeHrM69e/ouqQG0VzGUoQxlKEMZylCGMpShDGUoQxnKUIYylKEMbQydfLCwiXGoiGBla2kW6sawtMwxCvVhbSuTUAGLkwahV7C4pUFoDIvLzEEFrE4ag45gdVNj0GtY3bMxqA8A60ldMQBMakt2LwNAvns5q12NAGBlDBqqC0RXpA7SFe9eLiS7P9673v1nyalZqLQRKhjKUIYylKEMZai10LOJ3AF1JxNHA1UH3+ihal0LVd+8Lai7kT3UQs8TIAtqoXcAfjq1UPcjgB9OHdSLgfxTS9AQm+5roB425bIG+js2pVqoWl/VQEWCTUEr0CGKckcPDVG00kMFtk21ULUe6KE+itI2oJUEjwqqkcDRQquXS3VQJcFKC3VRFrw+VEnWCqqRYK6FRihz9NAE23ItdISyZQvQIaocHTRE2UoHdVE11UIFqgId1EdZ2gK0OCAp9qKDJgDyYnc6qIdqeaGFjlA110Gj6rXzFqA+gNQFgKkGul24rPaioAqSOxGApRZ6DSArjnjWQTfGxyEAOK8JVV88F7iFBiqKXXgAoIOOi31dAVjpoOWKD2CpgwJA4AKAbAe6oHAXlEQd9LqAFNxa6LLk1kAl2QZ1fgHq7wsNXh8a7YR6bUH5jJqD8hnle5TPKN+jfEb5HuUzyvcon1G+R19CBUPNQqUVUGfng3dacusnDFcFt2uoX+wlATCvmxkFw7qZ0bhQ+bXQ64IV7poZzb2WZkbFAV9rp4DFxmLNFFDNSr9DQXRTwBkALOqmgJl6udeFjnbPdaOdc12BqrkW6u051123OanPSANVe1nooJSgTGqhLqocHXSMslULUIrVi2mgQyXRQX11SjRQNehPSQcVKJu2Ab3EtkALpVjtVAP1sO2xBjqsJBqo+jlkThtQN1EnVAO9QFGgh1KodqqDUoSSpoV6KLqnNqDkbaRrpwZKHwHggWqgIgaQB6SDqnVZA6V3APCD2oGSuJ19dqgOSr/NZu+pDkru7eyLJB1UrTtUB6Xz2ewP/qsUhjKUoQxlKEMZ2jE0sBHqmYX6ALCyDap2Zgx6BatbnsqnDefGoB6sLjAGpQQWl5M5qA+LWxmEerC4wCCUQlhbSiahAtYmjULpHJb2nsxCSdz+ZWFfJP8/I4YylKEMZShDGcpQhjKUoQxlKEMZylCLoGcfOuimfegbdNKntqECHSVbhl6ho5YtQ2N0VNYuVKCzZKvQITpr2ip0hM6aM5Qv3QZQD50VtAp10VlOq1AK0VEptQsdoaPmLUMpQietqW2o+BMd9FPygzdDGcpQhjKUoQxlKEMZylCGMpShDGUoQxnKUIaahorbWcO+yD5APRgo6AE0hoEy+6FDGGlqPdSHkVbWQ2MYKbMeCkPZDnVhKIehDG0VSgmMlJPt0BBGSq2HjmGkhfVQN4GBcsd6KF3AQPdkP5Te/v3UsH8+84M3QxnK0H/bu5/eRo0wjuMmasKVB7BzXbbaci1KV1xrtbtcN7uRuMZtFa4ONvzefuXKaJo/I03MkITneb7XWMEf2TDMGBuFKlShClWoQhWqUIW+MvQskAE9RxeIgDbArQRoAmAnARoC6CRAKyHQGAD2AqBLKdBSCDRqIOOom0AINJQCrXCoZQ+NIQS6kgIthUCjYdvcoakU6LDFe+7QWgg0hhDoCsc2zKGlEGgEIdAUQ9e8obkUaI2hNWtoDCHQlRRoCQwVnKERhEBTKdBcCrSGKWMMjSEEeiEFWgKmgC80ghBoKgWaWzbDDtoIgSYQAn24qZ4vtBICjfAQenUs4wZd4vn6jBk0h6UtM2gDSzte0AS2Ol7QELb2vKAVbLWsoDGsXbOCLmEtYwXNHXZRFtAGtrasoAmsFaygIWz1xADqNLgwgLoNLqygS1gLGEDdBhdO0KiBrVsGULfBhRU0hK2OGECdBhdW0BjW1qygK1gLWEFz2NoRK2gFWxsp0IwXtISlPfGCXsDSlhfUfgZYMINS/PHQh8UiWAGmPuAGNV0Cppb4QkPAdM0YmgOmTMb1utgTY2gF05YztIap4AxtLAu67KAwtVKuqV9zhsYwBZyhiWXOzflbEhsp0Iw1dIWhjlhDL82WeUNDy+DC+JtMAW9oaQYXIdBr5tAKxzLm0NrMuXlDcWz7DqFnHzP/k5fC82rqh/HQTwC+k6di33Nu8xTHQs9x6HfPk5eWPPYTDn0bB43NkrpP6PUEn3dko6Ch34tk0glOiy4Gygio9+FgaU6LvA/N3RhogqHM5+TldpLFmWIEdOV5shH6Py1KMbQZATV/vPc4eekmmuGOgJYYaj1C22kmfrsR0Mrzml3pf85dYmj/TqDm/wX8obX5V1NC334fbczR8X3to7nnRbsJ5twhhlovw8vmvf4O/8rL8JJiqPAG3U71ac56BDTCsd7fkyqm+mg5GAGl0uuxKAbQT7VUvKMx0NTv0kcNtFN9ErkeBaXK67zqHCgmWive0zho3ADoMvLUz7+S9+IaQJ+dAA2ITPGXux8Zveviz3c3GZEpcoRmNPNiR2hBMy9xhK5p5qWO0A3NvJUjtKWZlztC9zTzKkcoApp1ESxQbkej1Bm6pVkXOkM7mnW1DcrslCGBDcpsgMntUFanuzFsUGYvaW6F8npJYzhAOZwdVS+E4i+aZb/gpVB8pxn2CS+HYp/RzDqrcAoU+OePqxn121fAAcohhSpUoQpVqEIVqlCFKlShnKGXENG9QtlBVxDRZpFCROtFAhEViwgiChbUQEA9LaiEgHa0oBAC2tKCEgiooAVFDdjXB7QgysG+lg7QFOxbH6AC3rt98B+ULsC8WzpA+b+kfXCE0jlY940GKJVg3I4MNK7Bti4zUCNl6jRQij6DZT8CGqBDZ1d/PuoLZtbNY8HVByIDtZZgZhX0JIUqVKEKVahCFapQhSpUoQpVqEIVqlCF+oXGmFnZidAIMys4EUo1ZlVHp0JzzKr2ZOgSs+r6ZGjEYBc1UDbv3ZZOh0YNZlMfOEA5nDMUdBrU/Fre/8Pz3T2qefWH3WTkAHWvdLuRfO722w6XeK7e8Vb99DCFKlShClWoQhWqUIUqVKEKVahCFapQhSpUoQpVqEIVqlCu0NArdPkG0NwNeukGXbpB0zeArtygSzdo4gaN3wCauEFjN2jkBqXm9aHUOEGpcoJS6Xa5UP4G0As43R/mHM/UktPet3N7H3XTQqPa6fKBqMLT1m5H8Vu3Y+B2WijFX/G4v09/WPT0YfuATPYvZncvvHHUv310/TRpyz5dAAAAAElFTkSuQmCC;" vertex="1" parent="1">
          <mxGeometry x="200" y="1020" width="54.38" height="60" as="geometry" />
        </mxCell>
        <mxCell id="uI7jijBP5rXE629CTqQX-4" value="" style="shape=image;verticalLabelPosition=bottom;labelBackgroundColor=default;verticalAlign=top;aspect=fixed;imageAspect=0;image=data:image/png,iVBORw0KGgoAAAANSUhEUgAAAgAAAAIACAYAAAD0eNT6AAAACXBIWXMAAA7DAAAOwwHHb6hkAAAAGXRFWHRTb2Z0d2FyZQB3d3cuaW5rc2NhcGUub3Jnm+48GgAAIABJREFUeJzt3XmYXVWZ7/FvVRJCIIEwz2EIBARBUVpl7FaRVluItIqNirN2e0XUi4rtvd1O7SOTAw2ifUXsxlZQhiYqijaOEBxaBZkkKBFCGAUSkkBIQqr6j1V1OxQ1napz1rv2Wd/P86wnkFSd9e59VtX+nb3XXhskSZIkSZIkSZIkSZIkSZIkSZIkSZIkSZIkSZIkSZIkSZIkSZIkSZIkSZIkSZIkSZIkSZIkSZIkSZIkSZIkSeoSPdEFDDEN2AfYG5g38OeewCxgU2CLgT83iipQkqRhrAUeBZYBqwbaH4BFA+024FZgXVSBQ0UHgCmkA/6hwJHAUcDmoRVJktQZjwHXAlcBC4FfEBgIogLAfsAJwBuB7YJqkCQp0sPAJcBXgGtyd54zAMwC3ga8mRQAJElSchNwPvBF0uWDjssRADYD3gF8ANgyQ3+SJDXVCuDzwOmkMwQd08kAsAnwIeAk0qd/SZI0PiuAs4BTSXMH2q5TAeBo4J+B3Tr0+pIk1eBu0ofpC9r9wu0OALsA5wIva/PrSpJUs28B7wTuatcLtjMAvAz4V2CrNr6mJElKHgLeAFzRjheb0obXmAr8I2nSwqZteD1JkvRUmwDHkybU/xBYP5kXm+wZgC2Bb5IW8pEkSXlcDcwnrTw4IZMJADsAVwIHTOI1JEnSxNwCvJgJzguYaADYB/geMGeC3y9JkibvHlIIuLHVb5xIAHga8FNg6wl8ryRJaq8HgcNJDxsat1YDwE6kBxjs2uL3SZKkzllKmo+3ZLzf0NvCi88GvoMHf0mSSrMz8F1aWHJ/vAFgGvBtnPAnSVKp9gUuJx2zxzTedQBOB1490YokSVIWuwLTgavG+sLxzAF4KenTf85HB0uSpInpB44FFoz2RWMd1HcBrsPlfSVJapIHgQNJkwOHNdYcgM/hwV+SpKbZGjhntC8YLQC8nPRYX0mS1DzzGeU4PtIlgE2Am4DdO1GRJEnKYgnp7oBHh/7DSHcBfBg4ppMVSZKkjtsceAL48dB/GO4MwJbAHcCsjpYkSZJyWAHsxpAnBw43B+AkPPhLktQtNgNOHPqXQ88AbEr69O+DfiRJ6h4Pk84CrBz8i6FnAP4WD/6SJHWbLYG3bvgXQ88A3ADsn60cSZKUy83A0wf/Z8MzAM/Gg78kSd1qP+CZg/8zdYN/OCF/LWNaD1xLWs94IbCYNItxXWRRkiQNMQ3YAtgDOIy0CM/BjP+he7m8Hrh+w7+YAtxPeoBACe0x4DRg27ZvuiRJeWxLepruauKPq4PtXobM/zuogKIG28WkhxBJktQN5gCXEX98HWwHbljcKQUU1Ad8BB87LEnqPj2kY+164o+3J29Y2HeDi1kP/M1E9qgkSQ3yGtIH3shj7hWDxUwDVgUX86GJ70tJkhrlH4g95q4gHfvZP7iQi/G0vySpHj3EzwnYD+CVgQWsxgl/kqT67ES64y3q+HtsL7B3xzdzZGcBdwX2L0lShLuBzwX2vzfAvxGTPp7A+/wlSfXajri7Ar7cS1q1KMK1wANBfUuSFO1+4GdBfe/RC8wO6vzyoH4lSSrFgqB+N+8FZgV1fm1Qv5IklSLqWLhZLzAzqPPbg/qVJKkUfwjqd1YPsAbYKKDz6cDagH4lSSrFdODxgH7X9JBmA0Zw8R9JkoKOw71jf4kkSeo2BgBJkipkAJAkqUIGAEmSKmQAkCSpQgYASZIqZACQJKlCBgBJkipkAJAkqUIGAEmSKmQAkCSpQgYASZIqZACQJKlCBgBJkio0NbqAgk0BDgXmA4cAewBbANMii5IkjWgdsAxYDCwEFgDXAusjiypVD0HPIR7ou0QzgHcD/xvYJrgWSdLkPAB8CjgbWB1cy0hCjsMGgCc7Dvg0sFN0IZKktrqL9MHukuhChhFyHHYOQNIDfAS4CA/+ktSNdgG+AZyKxz7AMwCQBsKFpE//kqTu93XgNUBfdCEDPAMQ5BN48Jekmrwa+Fh0EdFqPwNwHCkJSpLq0g+8Crg0uhCcBJjdDGAR6bqQJKk+dwPzgMeC6/ASQGbvwYO/JNVsJ+DE6CKi1HoGYApwL97nL0m1u58UBCIXC/IMQEaH4cFfkgTbAQdHFxGh1gAwP7oASVIxqjwm1BoADokuQJJUjCqPCbUGgD2iC5AkFWNudAERap0EuAbYKLB/SVI51gAbB/bvOgAZRW2zJKlM1R2Tar0EIElS1QwAkiRVyAAgSVKFDACSJFXIACBJUoUMAJIkVcgAIElShQwAkiRVyAAgSVKFDACSJFXIACBJUoUMAJIkVcgAIElShQwAkiRVaGp0AZWJfNykJDWBj2vPxDMAkiRVyAAgSVKFDACSJFXIACBJUoUMAJIkVcgAIElShQwAkiRVyAAgSVKFDACSJFXIACBJUoUMAJIkVcgAIElShQwAkiRVyAAgSVKFDACSJFXIACBJUoUMAJIkVcgAIElShQwAkiRVyAAgSVKFDACSJFXIACBJUoUMAJIkVcgAIElShQwAkiRVyAAgSVKFpkYXoCL0As8G5gLbA9Mz9bsaeBRYAdwHLAIeyNR3SaYAB5H2/3ZAD2k//BH4JbAurjRNwnRgT2BrYFNgJjB74M9pA1+zivT+PgI8BNwNLCH9XEgdZQCo217A+4D5pANPCZYDtwE/B34M/AR4OLKgDtoXOBk4hnSQGM5y4Args8CvMtWl1kwBDiSFuL2BfYB5wG5M/CzrMuB24Drgt8D1A3+ummSt0pP0B7VINW7zhmYB5wJridsX423rSQe+k4EdO7EzAswGzgOeYPz7oQ+4kHSGRvH2AN4OfIP0yT3Hz8ITpJ+FU4EjgY06vpUxavz9HLbN7uw6tnnQ7sANxO2DybQngO8Dx9Lc+St7Arcw8X2wFPiz7FUL4JnAp4F7if9Z6CedGTuPFAamdHC7c6vx93PYNruz69hmgF0p55fXZNvNwAk06zLWXsCDTH7bV5HmbKjzdiRdJis9NN8HfIYUMJsuah9GCttmd3Yd2zyTdB0xats71RYBL27jfuqUzYCbaN923wPslHUL6rIfcAFpgl70GG+lrQf+EziaNJm0iaL2XaSwbXZn17HNZxK33Tnat0iTrkr1edq/zZdk3YI6PAu4lHQgjR7Tk22/Af6qvbsni6j9FSlsm93Z3b/NOwOPjVJXt7QVwOvatM/aaR6dm3B5SMbt6Gb7Ad8hfgx3ol0D/Hn7dlXHRe2nSGHb7M7u/m0+fYy6uq2dT7rvuhSfo3PbenHG7ehGm5J+PppwR8xk26U047JR1P6JFLbN7uzu3+bbxqirG9sNlPHLrge4i85t50pg42xb012OBu4gfqzmbI8Cp1D2XQNR+yZS2Da7s7t7m+e2WGM3tTtJi+1EOoDOb+eR2bamO2xDmjMSPT4j2y+AXSa7Izskap9ECtnmpt5LrfHbLbqAQHOAq4HnBdawe5f00S2OIK2u97LoQoI9h7TMdOTPhoIZALpft6yeN1FbAleSFnGJsEOGPmp/j8ejB3g3cBVlXBoqwfakhbX2iy5EMQwA3W9mdAEF2Jy0nn7EJ+Uc+9/3eHSDIfCz/M9DeJTMIk0O3Cy6EOVnAFAtdiQdBDaPLkRZ7QD8CDgqupCC7Q18MLoI5WcAUE3mkVZ3a+oKaWrNPqSnSh4QXUgDnEQ5TwRVJgYA1eYY4MToItRxfwb8lDQRVGPblPRsDVXEAKAanYkTn7rZEaTT/ttEF9IwTVw2WJNgAFCNNgK+gJcCutEBwALKWgmyKQ6lWU/X1CQZAFSrw4DXRxehttqdNNFzdnQhDTUN2Da6COVjAFDNzsBb6LrFtsD3yLPuQjczAFTEAKCabQP8r+giNGkbk9Z52Cu6kC6wMroA5WMAUO3ej2cBmu4zwEHRRXSJe6MLUD4GANVua+At0UVowl4N/F10EV3iduCx6CKUjwFAgrdHF6AJ2RP4l+giusg3owtQXt7yoXa4jvRQkVZMIa08tgPwXNKa5FH2JZ1C/lVgDWrNdOAbNGNp54eB20iPp36EdJ39iYF/m0F6VsGcgbZbQH2DLg7sWwEMAGqHnzO5tcSnA88HXgccT8yZqTdgAGiSU4ADo4sYRh9wPfBD0mJEvwQebOH7ZwPPAP4ceCFwMHkeYPQd4GcZ+lFh+oNapJq2+R0t1jiRdm4b63066ZdR7vfmXjqzMND7MtR+RgfqLtlcYDVxP8fDtVuAvwd2afO2bgX8LXBNB2tfS1nPS4h6DyOFbLNzAFSam0hLkn4QWJ+x3+1JlwJUvrNJt/6V4AekT+r7Ap8E7mrz6z9EmudwGPBs4N9p/8/FO4Eb2vyaagADgErUD5wGvJK8IeCFGfvSxPw18JLoIoCFpNPzR5JO9+fwG9IDe/YHLmvTa54KfLFNr6WGMQCoZJcD787Y3wsy9qXWzQA+G1zDg6TbRg8nzX2J8DvgFaQgtHiCr7EGeCvpsoUqZQBQ6T4HfDVTX8/I1I8m5i20/xp7K64kneo/n/hrxpDqeTrwAWBZC9/3LdLjkr/UiaLUHAYANcEpwKMZ+pkDbJKhH7VuI9KBLsITpE/KLwX+FFTDSFaTJoHOJS2IdAXDL+ZzM3A66XbXY4AbcxWocnkboJrgbtLEr8ncajgevaT15H/b4X7UuhOI+fS/GjgO+HZA361YRposOLgw0hakdTZWAg8A64LqUsE8A6Cm+FqmfnygTHmmkM4C5bYcOIryD/7DWQbcSgrPHvw1LAOAmuJGYFGGfrbI0Ida8yryB7NVpIP/NZn7lbIxAKhJrs/QR+SSxBreWzP3t450C+p/Ze5XysoAoCZZmqEPA0BZdiYtE53TW4HvZe5Tys4AoCZp5VaniZqRoQ+N3wnk/T31JeCCjP1JYQwAapLtM/SxKkMfGr/XZezrZuCkjP1JoQwAapKdM/SxMkMfGp+DyPd8hj7Sqf/h7qGXupIBQE3RCzw3Qz8rMvSh8Tk6Y1/nEbe0rxTCAKCmOBzYIUM/rTy7XZ2V69kMy4EPZepLKoYBQE3xpkz93JapH41uE+A5mfo6m/TYXakqBgA1wYGk2eCdto6JP11N7XU4af3/TnuUFACk6hgAVLpppF/QOcbq7bhsaily3ft/PuU94EfKwgCg0p0FHJqpL1d+K8fhmfr510z9SMUxAKhUPcDHgXdk7POHGfvS6J6WoY9bgN9k6Ecqko8DVolmAl8mrcee0w8y96fhbUeehzJdmKEPqVieAVBJpgBvJK3IlvvgfytwV+Y+Nby9M/VzVaZ+pCJ5BkAleCZwDHA8sE9QDRcF9aunyhEAVgK/ztCPVCwDgNrhKOAbLXz9LGBj0qnenYDNOlFUC/rxATAlyREArsU7PlQ5A4DaYe5Aa6qfAn+MLkL/3y4Z+rglQx9S0ZwDIMG50QXoSWZl6GNRhj6kohkAVLvfAZdEF6EnyREAfp+hD6loBgDV7hOkR8GqHDkCgGv/q3oGANXsFpz9X6IcAWBlhj6kohkAVKt+4F3A+uhC9BQzM/SxKkMfUtEMAKrVBbj0b6l6oguQamAAUI3+BLw/ugiNKMfp+RxnGaSiGQBUmz7gBHwEbMlyBIAc8wykohkAVJuPA9+LLkKjyhEAtsrQh1Q0A4BqciUpAKhsOQLAXhn6kIpmAFAtfgm8Cmf9N0GOABD10CmpGAYA1eD3wNF461dT5Hgs874Z+pCKZgBQt7sR+AvggeA6NH451uk/GJiWoR+pWAYAdbMfA0cA9wTXodbkCACzgIMy9CMVywCgbnUh8GJgeXQhatmtmfp5YaZ+pCIZANRtHgfeA7wGWBNciybmAWBZhn6Oz9CHVCwDgLrJLcBzgbOiC9Gk/S5DH/sCz87Qj1QkA4C6wWPAR4FnATcE16L2uDpTP2/I1I9UHAOAmqyP9DjfvYGP4Cn/bvKjTP28GdgmU19SUQwAaqI+4GJgf9J13KWx5agDriZPoNsUOClDP1JxDABqkjuBTwBzgeNI1/zVnR4jrd6Yw4n4bABVyACg0t0GfJ50P//uwP8F7ogsSNnkugwwGzg1U19SMaZGFyAN6AeWkA74twG/AH4I3B1ZlEJ9E/jHTH29GfgycG2m/qRwBgC1w/eB81r4+pXAE6TTvKsG2r3A6vaXpgb7NekyT451+3uBLwLPAR7N0J8UzgCgdridNClParcLyHd6fl/gHOBNmfrLZXtgk4H/XgE8GFiLCuIcAEkl+yrpro9c3kjzA8B00t0xVwB/Ip1du32g/Yk0mfYi4CigJ6hGFcAAIKlkS0lzQXL6AvCXmftshx7SXIalwNeAlwJbD/N1c4BXA98jrbj4olwFqiwGAEmla2V+STtsBFxCmg/QFFsC/wl8ieEP+iPZmxQEziFttypiAJBUuktId4bkNJN0YDw8c78TsQWp1ok+3bAHeCfwdWBau4pS+QwAkkq3HjgtoN/ZpAPr/IC+x2sr4MfAQW14rZcD57fhddQQBgBJTfAV0joRuc0ALiUtQFXa78vBgHJAG1/zdcAr2/h6KlhpA1qShrMOOD2o7ynAx4ErgW2DahhqNvBdOvM447NJl0DU5QwAkpriS8ScBRj0ItLCRG8l9nfnvqSVMp/XodffHvibDr22CmIAkNQUjwPvDq5hK9KKgQuBwzL33UuarPcLYF6H+3pLh19fBTAASGqSy0kL3ER7HumRxT8CjszQ3+HANaTb9XKcnn9Opn4UyAAgqWlOopznRvwF6f77W0kTBXdt42tPBY4deP2fAge38bXH0kt7JxeqQAYASU2zGPhkdBFD7E2aKLgYuB74NPAyWp80OAc4jvRkwnuAy8hzhmE4uwX1q0x8GJDUfEcw+QfmzAA2BtYC95OWk/0tcN0kX7dTTifdt/6s6EKG6AWeMdDeO/B3y0kLGS0BHiY9/XLdwL/NJM0rmAPsBWyTs9gx9EcXoM4yAEjN9xw6t2ztEuBC4AzgoQ71MRFrSJ+Ufw1sHlzLWGbT2feoU9ZGF6DO8hKApNHMAU4hPUnuvZT19LjbSbfkqTNuii5AnWUAkDQem5Oua1/E/zxbvgSXAOdGF9GFVgC/jy5CnWUAkNSK40gT00q6fHgy8MvoIrrMAqAvugh1lgFAUqv+EvhUdBEbeBz4K9KteGqPc6ILUOcZACRNxEnkXwlvNA8CLyHdOqfJuRLPqFTBACBpos6krEmBd5DOTiwLrqPJHgHeHl2E8jAASJqo59Ke59C3003AfNK99mpNH+muiruiC1EeBgBJk3FsdAHDuBp4PvCn6EIa5mTSXRWqhAFA0mS8KLqAEfyK9ACdO6MLaYhPAp+NLkJ5GQAkTcac6AJGsYj0AJ3fRhdSuDOB/xNdhPIzAEid1e3rqW8DTI8uYhT3ki4HfDe6kEJ9DHg/3T9ONQwDQPdbmaGPFRn6aKpun4zWBzwRXcQYlpHWCfh7yq81l/WkpZ0/HF2I4hgAut+9Gfrw3uuRPRBdQIfdTzqYlK6f9MTEQ4E/BtcS7WHgpXjNv3oGgO53R4Y+nGg1sm5fne726AJa9EvSU/kWRBcS5CbS7Zvfjy5EZegPapFq2+Zbx6hrMu1xYFa+TWmkJcSNuU63D7ZxP+U2nxSQo/dhjtYHfAGY2Y4d12FR+yhSyDZ7BqAOnfy08wPyzDNoskujC+igJn+SXgA8DfgosCa4lk66EzgK+Du6f06KWmTa6v5t3gl4dJS6JtNekHE7mmpn0gEmatx1ql3Wzp0UbB/gW6RPytH7tV1tLXA2zTtDF7W/IoVtszu7jm0+jfZvz7ezbkGznUncuOtEW0f69Nxt9gcuIN0tEL2PJ9r6gG8A89q8b3KJ2m+RwrbZnV3HNs8A/ov2bct9wC5Zt6DZpgPXEzf22t3e1d7dU5ynkYLAOuL39XhbH2m9g9Kez9CqqP0XKWyb3dl1bDOkVdvuZfLbsRo4JHPt3WBXYDFx469d7V/avWMKtgPwbuAa4vf7SG0F6T3Zr0P7ILeo/RgpbJvd2XVs86CdgV8z8W24h3QbkSZmV5p7JqCPtHBMSY8AzukA0qWcpcS/F2tJt/K9jWbM7G9Fjb+fw7bZnV3HNm9oJmly0FrGX3sfcDFpQqEmZzppTsbjxI3FVtstwIs7sTMaaj/SZZD/IC2sk+M9uI90bf81wOzOb2KYGn8/h2xzD3EbHvkposZtHs6epEeAzied6hzOI8B3gLOAX2SqqxY7kk4vvwKYG1zLcNYCPwa+BnwVl9EdSS9wIOna+zzS/IF5wG7AlAm8Xh/pTNti0oOMfj7QFreh1iao8fdzyDYbAPIqLQAMGvwFNpd0UJpCWuL1DtLKaWvDKqvH7qQDx9YDbdooXzsD2Hjgvx8nzcmYrDXAYwP//TDpAHQTPudhMqaTfqa2Jz00aXPSJ/cNfw88Qtr3q4DlpJ+5O6n7Z67G388GgIxq3GZJaoIafz+HbLMrAUqSVCEDgCRJFTIASJJUIQOAJEkVMgBIklQhA4AkSRUyAEiSVCEDgCRJFTIASJJUIQOAJEkVMgBIklQhA4AkSRUyAEiSVCEDgCRJFTIASJJUIQOAJEkVMgBIklQhA4AkSRUyAEiSVCEDgCRJFTIASJJUIQOAJEkVMgBIklQhA4AkSRUyAEiSVCEDgCRJFZoaXUBl+qMLkCQJPAMgSVKVDACSJFXIACBJUoUMAJIkVcgAIElShQwAkiRVyAAgSVKFDACSJFXIACBJUoUMAJIkVcgAIElShQwAkiRVyAAgSVKFDACSJFWo1gCwNroASVIx1kQXEKHWAPBIdAGSpGIsjy4gQq0B4PboAiRJxfhDdAERag0AC6MLkCQVo8pjQq0BYEF0AZKkYlR5TOgB+gP7jjIFuAfYNrAGSVK8+4Edgb7AGkKOw7WeAVgPfCq6CElSuDOIPfiHqfUMAMDGwCJgTnAdkqQYS4F5wOrgOjwDkNnjwMnEBSBJUpx+4CTiD/5hag4AAJcAn4wuQpKU3T8B/xFdRKSaLwEM6gW+Brw6uhBJUhYXAa+lnGv/XgII0gccD3wULwdIUjfrB06jrIN/GM8APNkrgM8Au0QXIklqqyXAeyjztH/IcdgA8FQbA+8iTRDcLrgWSdLk3A+cCZxDmvxdIgNAYXqBQ4D5A3/OBbYANoosSpI0orXAMtLzXhaSVvj7GeWf7jcASJJUIScBSpKkPAwAkiRVyAAgSVKFDACSJFXIACBJUoUMAJIkVcgAIElShQwAkiRVyAAgSVKFDACSJFXIACBJUoUMAJIkVcgAIElShQwAkiRVyAAgSVKFDACSJFXIACBJUoUMAJIkVcgAIElShQwAkiRVyAAgSVKFDACSJFXIACBJUoUMAJIkVcgAIElShQwAkiRVyAAgSVKFDACSJFXIACBJUoWmRhdQsCnAocB84BBgD2ALYFpkUV1gHbAMWAwsBBYA1wLrI4tqA8dLZzhe1IpuHS8d0x/USjUD+CDwAHH7prZ2P/CBgX3fNI4Xx0srHC+Ol+FE7Zu4jgt0HLCU+AFba1sCvHLMd6kcjhfHSyscL46XkUTtk7iOC9IDfAToI36Q1t76gFMpe36K46Wc5nixdcN4idofcR0Xohf4OvED0/bkdhHl/ZCC46XU5nixNXm8RO2HuI4L8UniB6Nt+PZPo7xvURwv5TbHi62p4yVqH8R1XIDjiB+EtpFbH/CKEd+9/BwvZTfHi62p4yVkH/QM/EeEnqB+B80AFgG7BNeh0d0NzAMeC67D8dIMjhe1opTxEnIcLukaSG7vwR/OJtgJODG6CBwvTeF4UStKGS8haj0DMAW4F9gmsAaN3/2kH9SoxTwcL83ieFEroscLeAYgq8Pwh7NJtgMODuzf8dIsjhe1Inq8hKk1AMyPLkAti3zPHC/N43hRK6p8z2oNAIdEF6CWRb5njpfmcbyoFVW+Z7UGgD2iC1DL5gb27XhpHseLWhE5XsLUOglwDbBRYP9q3Rpg48C+HS/N4nhRKyLHCwQdh2sNAFHbrMmJGjOOl2ZyvKgV1R2Tar0EIElS1QwAkiRVyAAgSVKFDACSJFXIACBJUoUMAJIkVcgAIElShQwAkiRVyAAgSVKFDACSJFXIACBJUoUMAJIkVcgAIElShQwAkiRVaGp0AZWJfNxkO/m40zwcL2qF40Ut8QyAJEkVMgBIklQhA4AkSRUyAEiSVCEDgCRJFTIASJJUIQOAJEkVMgBIklQhA4AkSRUyAEiSVCEDgCRJFTIASJJUIQOAJEkVMgBIklQhA4AkSRUyAEiSVCEDgCRJFTIASJJUIQOAJEkVMgBIklQhA4AkSRUyAEiSVCEDgCRJFTIASJJUIQOAJEkVMgBIklQhA4AkSRUyAEiSVCEDgCRJFZoaXUBl+qMLUKM4XtQKx4ta4hkASZIqZACQJKlCBgBJkipkAJAkqUIGAEmSKmQAkCSpQgYASZIqZACQJKlCBgBJkipkAJAkqUIGAEmSKmQAkCSpQgYASZIqZACQJKlCtQaAtdEFqGVrAvt2vDSP40WtiBwvYWoNAI9EF6CWLQ/s2/HSPI4XtSJyvISpNQDcHl2AWvaHwL4dL83jeFErIsdLmFoDwMLoAtSyyPfM8dI8jhe1osr3rNYAsCC6ALUs8j1zvDSP40WtqPI96wH6A/uOMgW4B9g2sAaN3/3AjkBfUP+Ol2ZxvKgV0eMFgo7DtZ4BWA98KroIjdsZxP5wOl6axfGiVkSPlzC1ngEA2BhYBMwJrkOjWwrMA1YH1+F4aQbHi1pRynjxDEBmjwMnExeANLZ+4CTifzjB8dIEjhe1oqTxEqY/qJXiE8TtA9vo7WOjvG9RHC/lNseLranjJWofxHVciF7gIuIHo+3J7ULKPEPleCmzOV5sTR4vUfshruOC9AAfIU0EiR6Ytbc+4FTK+uEcyvFSTnO82LphvETtj7iOC/QKYAnxg7TWdidw7JjvUjkcL46XVjheHC8jidoncR0XamPg/cB9xA/YWtp9wPsG9n3TOF7TTZ4UAAAFA0lEQVQcL61wvDhehhOyb2q+DXAsvcAhwPyBP+cCWwAbRRbVBdYCy0jrpS8krcD1M5p/H67jpTMcL2pFU8dLyHHYACBJUqyQ43BpEyEkSVIGBgBJkipkAJAkqUIGAEmSKmQAkCSpQgYASZIqZACQJKlCBgBJkipkAJAkqUIGAEmSKmQAkCSpQgYASZIqZACQJKlCBgBJkirUS3p+cgSfey1Jqt30oH7X9AIrgzqfHdSvJEmliDoWruwFVgV1vkdQv5IklWLPoH5XRp4BOCyoX0mSShF1LFzRCywP6nx+UL+SJJXimKB+H+kFFgd1fjCwbVDfkiRF2x54XlDfi3uB24I6nwK8L6hvSZKivZ+42/EXAbwS6A9qq4E5nd5KSZIKsxvwOHHH32MBnh5YQD9wGdAzuf0oSVJj9ACXE3vs3RdgGulOgMhC/mFy+1KSpMb4MLHH3BWkYz8A3w0upg84fuL7UpKkRngt6ZgXecy9YsOCPhBczGAIOBWfTyBJ6j49wCnAeuKPtydvWNizCyhosF2GEwMlSd1jV+Kv+W/YDtywuCnAfQUUNdhWA2cA27W2jyVJKsb2wJnEzvYf2u5hmDPtnymgsKFtPXAN6V7JQ0iBwKcISpJKM510jDqUdFl9IWWc7h/aPjVY8Ia33z0L+HW79oQkSSrOM4HfwlPvv78B2D97OZIkqdNuJq39Azz1OsCX89YiSZIyOW/D/xl6BmBT4A5g61zVSJKkjnsI2J208B/w1DMAjwLn5KxIkiR13GfZ4OAPw6/Bvzlw58CfkiSp2VaQ1iJYvuFfDrfq3iPAP+eoSJIkddynGXLwh5GfwjeDNFtw905WJEmSOupO0pP/Hhv6DyOtu78aeG8nK5IkSR13IsMc/GH0B+8sAL7VkXIkSVKnXQ58e6R/HOkSwKBdgOuArdpZkSRJ6qgHSQ/9WTrSF4z16N27gNeT1g+WJEnl6wfewigHf0hPARzL70kLBB3ahqIkSVJnnQacO9YXjXUJYNA04AfA4ZOpSJIkddRPgCOBJ8b6wvEGAEgLA/0EeMYEi5IkSZ1zM3AE8PB4vriVAACwI+kZx7u1+H2SJKlzlpIu1S8Z7zeMNQlwqHuAl5BmF0qSpHgPAi+ihYM/tB4AAG4lzQVoqSNJktR29wAvIB2bWzKRAMBAR88Dbpjg90uSpMm5hXQsvnEi3zzRAABwL/B84OpJvIYkSWrdT4DDSOv1TMh41gEYzWrgK6RFB46g9UmFkiRp/PqBs4ETgEcn80LtPGAfCfw7sF0bX1OSJCUPAm8AvtOOF5vMJYChrgIOAr7ZxteUJEnpAX0H0qaDP7Q3AEC6D3E+cDTwxza/tiRJtVkMvAx4OWOs7d+qyc4BGMltwP8jLUX4LGB6h/qRJKkbPQKcCryWNNu/7XJM2psFvBn4ILB9hv4kSWqqh4BzgLOAZZ3sKOes/ZnA24A3Aftn7FeSpNLdCJwPnAesytFh1G17+5FuYXgDnhWQJNXpIeBS0u301+TuvIT79vcg3UJ4JGkt49mx5UiS1BGPAj8j3TV3FXAd0BdVTAkBYENTgb0H2ryBP/ciXT6YRQoHM4GNogqUJGkYa0mn7pcDKwfa70mT4m8DFg20J6IKlCRJkiRJkiRJkiRJkiRJkiRJkiRJkiRJkiRJkiRJkiRJkiRJkiRJkiRJkiRJkiRJkiRJkiRJkiRJkiRJkiSpa/03RE6cVyz9L84AAAAASUVORK5CYII=;" vertex="1" parent="1">
          <mxGeometry x="280" y="1020" width="60" height="60" as="geometry" />
        </mxCell>
        <mxCell id="uI7jijBP5rXE629CTqQX-5" value="" style="shape=image;verticalLabelPosition=bottom;labelBackgroundColor=default;verticalAlign=top;aspect=fixed;imageAspect=0;image=data:image/png,iVBORw0KGgoAAAANSUhEUgAAAgAAAAIACAYAAAD0eNT6AAAACXBIWXMAAC4gAAAuIAHVHB4bAAAAGXRFWHRTb2Z0d2FyZQB3d3cuaW5rc2NhcGUub3Jnm+48GgAAIABJREFUeJzs3XmUXFW5NvDn3VXV6aQzYBJIGMMkUxCUBkJ11Tl16MRoEBHkNg6AqPAhXmVwFrzgVa7zdUAURxQDXtGogAKBmDSna+gmkZYxiMhomBJApnSGrqr9fn+kwYAJJOl96tTw/NbqtViL7me/PaTOW/vss7eAiBpGJpPZSUR2TSCxg6ruAMGOALaHYhqAHQXSodAJCh0jkIkAxgEYswXRLwB4HoLnoXheoS8I5BmBPGdhHxPIY1bsowBWWGsf7+/vXxXht0lENSBxF0BELxcEwXQ7bA8QI3tDsbdC94Zgbyj2woYLej1YD2AFgHsB3K3QvyUkcU9iOPHXJcuWPB1zbUS0BdgAEMVHgnSwlyb0TVC8SaFvBPAmANPjLmyUngJwp0BusWqXpZD6c29/78NxF0VEL8cGgKhGZs6c2bb967Y/XFV9FfWhSAOYGHddNbJSVP4MwZ8BFCQlA2EYrou7KKJWxgaAKCJBECRRQdbCBqqaE8gsAGPjrqtOrFVoSUSWaFV7p+8yfXDBggXVuIsiaiVsAIgcCoJgqlZ0nqq+DcBbAGwXd00N4lkANwG4JlVOXct1BETRYwNANEq+779eq/ofInI0FLMAJOKuqcFVAORV9WpJytX5fH5F3AURNSM2AETbIJPJ7GRgThDIewEcFnc9TUwBDEJwpUmaX4Zh+ETcBRE1CzYARFtoTuecScNjh4+HxXshCMB3+rVWBXAjgPkmZa7hIkKi0WEDQPQavLR3uIh8CIJ3o36ew291zwL4tVr9WWGgsCzuYogaERsAok0IgqDdVuwJsDgbgkPiroc2TyCDEPx4uDp8+cDAwNq46yFqFGwAiDbS3dW9VwWVj0NwElrnGf1m8YRCfwyDHxYKhcfjLoao3rEBIALged4hYuUzAI4H7+03umEAC4yar4b94V1xF0NUr9gAUEsLskFWrX5GRd8G/ntoNioq1wH4Yl9/35/jLoao3vAFj1qSn/GPAvAFAIfGXQtFTkXlOhH5UlgKb467GKJ6wQaAWkqQDbJVrX5FINm4a6FYLLJizysWi4NxF0IUNzYA1BKCruBAK/YCAD1x10KxUwC/tWI/WywWH4i7GKK4sAGgptbd1T2jIpWvATgBrfv3vg7Ayx+PExgoJsVTTt1YJ5CLJSVfDsPw2biLIaq1Vn1BpCYXBEF7tVz9lEA+i+bavGcYwEMA7hfIo6r6BAyeAvCkqDwuKk/apB2y1j6rqpVSqfTCawXOnDmzbfLkyZMSlcSkSqIyKYnk66q2OklEpgpkZ4XuBmAnCHaBYlcA46P9FmvuaQguNEnz/TAMK3EXQ1QrbACo6Xhd3jtE5FsA9oy7llF4BsCtArkdir8q9P4kkvdP2XnKI3EfmxsEwVQt6/5Q7KfQfSE4AMB+AHZHY7+m3CEqZ/T19w3EXQhRLTTyP1ail8lms/uIykUCeWvctWwVwXNQlASyVKG3WbG3FYvFf8Rd1taa0zln0vq29YfC4HCBHAbBYVDsEnddW8mq6KWVauWzAwMD/4y7GKIosQGghhcEQXJkuv/zAMbEXc8WeAJAQVSKAslvv/P2d8b9rj4qnuftKFZ8KLoh6Aawd9w1baEnIfhkvpi/HBsWDRI1HTYA1NA8zzvIWPMzhXbGXcurqAJYBsV1UFyfH8jfhha9qGSz2d3ESreIzAEwD8DkuGt6Db1JTX6wt7/34bgLIXKNDQA1pJkzZ7ZNed2U86A4D0Aq7no2YQ2AawH8waTMjWEYPhV3QfUmCIJkdX01B4N3COQdAHaLu6bNeF5Uzunr7/t53IUQucQGgBrOyL79PwdwUNy1vEIZgkVQ/GrkvPrVcRfUSDzPO8RY8x8KPQnArnHXswnXpCqpDy1ZumRl3IUQucAGgBqJeBnvHIF8FUBb3MVs5GYAl6XKqd8uWbbk6biLaQIml8nlALxPoccDmBB3QRt5UkQ+1FfsuyruQohGiw0ANQTP87YXK5cBOCruWkY8r6K/VOiPisXi7XEX06w6OzvHdbR3HKfQM+pp+2YV/UkimTgrDMN1cddCtK3YAFDd87v8bgguB7BT3LVA8RcV/UEilbiSU/y1FXQFb1TRjyj0RABj464HwG3Gmp5wILwv7kKItgUbAKpbPT09iZWPr/wCFOcCMDGXs0itfr0wUFgScx0tL51OT06a5KkAPiKQGbEWI3hOrZ5a6C/8LtY6iLYBGwCqS+l0enLKpK4E8OYYy7Cicr1Ve2FhoLAsxjpoEzo7O1MdYzveM9Ig7hdrMYofP/3c02cuX758ONY6iLYCGwCqO37af4MavUoge8VUQlVF54uRC/P5/IMx1UBbzvgZvwfAeYjzyRBBf6qceiefEqBGwQaA6orX5R0vIpchngNnVER+J1U5PxwI74lhfBod8bq8Y0TkywAOiKMAhT4Mg2MKhcIdcYxPtDXYAFC9ED/rfxqKLyOG+/0KXZxA4tywFN5S67HJOZPL5o5X1a9jwwFFtbZaVU8q9BeuiWFsoi3GBoBil06nx6ZM6goA76z54IK/isrZfaW+P9V8bIpUZ2fnuHHt484Wkc9AManGw1ch+Ey+mP9mjccl2mJsAChWIyu6r4nhGe/nIfji0Nqh7w4ODpZrPDbVUBAEU23ZfhXAB1Hj1zyB/FRS8uEwDCu1HJdoS7ABoNh0p7t3rpjK9ajtwi0F8Fsk8Il8Pr+ihuNSzLLZbKeBuQSKw2s5rqhcO6zDJwwMDKyt5bhEr4UNAMUim80ebNRcj9pu7nOfGj2tUCj01XBMqiM9PT2JVY+u+oga/WJNbwso+trWt71j8eDi52o2JtFrYANANZfL5I5U0atq+AJcVdGL1qxdc/7g4OCaGo1JdczzvB3Fyg8BHFOzQRV/qaAyr7+/f1XNxiR6FWwAqKaCTHCohb0JtXvMj+/6abNy2VyPqv4QwOQaDflAUpNze/t776/ReESbFff2qtRCgiAYb2GvRm0u/grFNzsmdhzIiz9tTl+xb4GpmIMhuLFGQ+5ZMZXQ9/3X12g8os3iDADVTC6T+6JCz6/BUKuMmFPCYnhDDcaKkwSzgp1twu4Jg93FylRr7DSjZgcopip0goiMV+gYAONGPtZiw0LIF60D8BwEz0PxPBTPAFglRh5X1Ues2EfHlMc80gK724mf8U8H8C1s+DlFbYUVGxSLxQdqMBbRJrEBoFoxfsb/B4CdIx7npiqqJ5VKpcciHqdmgiBIlsvlfY2aN4jIwaJyoIruDWAPAGNqUoTgOSjuVdV7jJh7rNrlKU3d0jvQ+2hNxq8R/wh/fyTwGwAH1mC4FUggx+2mKS5sAKgmRlb93xbhEBWFXlAoFb4GwEY4TuS6urp2SCQSXVKVLARdAA5BrS70W+9xALcI5BYRySOJm8MwXBd3UaMxd+7cjrWr1/5ARE6uwXAPIIGAj6RSHNgAUE34Gf+dAKI6MvVptfquRj2qt7Ozc1xHe0cAYJ5A3qzQfeOuaRTWKfRmA3MTFH/q6+9bigZtyPys/z4oLgHQEfFQ9yVtMmi22RSqf2wAqCZy2dx7VPX/XOcK5HapyrHhzeFDrrOj5HnejrA4XiDHAPAAtMddU0RWQXGtQv+wZv2aPzXaY5ie5x0kVq5B1GcKCP7atrYtzX0CqJbYAFBN+F3+3AhWWv+6vaP91EWLFg05zo3E7Fmzp1VSleOt2h6B+Gi9p3DWAviDFXvF2rVrb2yULZg9z9terPwOGxq1yIjIb/uKfT1RjkG0MTYAVBNBEGxny/ZJAEkHcarQzxVKha/i5Sva604QBEmt6DxVPQ3AUXDz/TeDpwD82sBc1ggnMM6cObNtynZTLgFwapTjGDFHhsUwjHIMohexAaCa8TP+jQDmjjJmGIIP5It557cTXOru6p5RleqHFHoKarvdceMRLIPiEpMyv673BYRexjtHIP8LIBFFvqhc29ff9/YosoleiQ0A1YzneRmxUhxFxPNGzPFhMVzsrCjHcl25w2DwcVX9D/Dd/tZ6WkUvtWovqufHOL0u7x0iciWiWbexxqTMlHpvhKg5sAGgmvKy3jdF5ePb8KVPqNG3FQqFvzgvyoFsNnu0UfMpAH7ctTSB9VD8Ionk1+t1y1y/y/dh8IcozrOoonpgqVRa7jqX6JVabRESxWz6jtM/LSK/3aovEvwVCXTV48U/l8nN8zP+MqPmj+DF35UxEJxekcrfvC7v/zKZTN09Fpnvz+ctbA4b9kFwKolkrc4loBbHGQCKg/Ey3oUC+RSA1Kt8ngrkF5KSM8MwXF2r4rZEkA3mWLVfBJCOu5YWUFHRn6eqqS/U27Py2Wx2T6PmRgB7u8o0at4Q9od3ucoj2hw2ABQb3/dfjwo+AsHbAey50f96EMAio+Z79fZCmM1m90nYxDdV9Oi4a2lBa1X04kQy8ZUwDJ+Nu5gXBUEw3ZbtTQD2cxC3vr2jfUqjPNpKjY0NANWFIAjay+XyZGvtMwMDA2vjrueVgiDYzg7bz0JwDup3W95W8TQEF+aL+YtRJ7sMep63o7HmJge7OC7Ml/JHOSmK6DWwASB6DX7GPxHAtwFsH3ct9C8KLaroR4vF4u1x1wJs2OipnCz3AjhgWzOMmHktcIol1Qk2AESb0d3VPaMs5R8K5K1x10KbVQHwHZMy59fDo3OZTGanBBI3AdhnG778+nwp/zbXNRFtDp8CIPp3xs/6Z1ekchcv/nUvCeCTtmxvDTLBEXEXUyqVHkvaZLdCt+rxRYXeX7blWpw+SPQSzgAQbaQ73b1zxVTmA+iOuxbH1mHDXvwbSwEYH0MtUamq6DfHTxh/wcKFC9fHWUhwRLC7TdglePni1k1S6A2JVOIDYRg+UYPSiF7CBoBoRC6bO05VfwJgSty1bIUVCr1fIPcL5AGr9h9QPKkJfaKt2vbUkB16YenSpc+/ytebbDY7yRiznbV2oljZBYIdRWQXhe4mKvsB2BdAIz2bfisSeFc+n/97nEV0dnaO6xjTcS4EpwGY/or/XQXQLyLf6Cv2XYs6P9OCmhMbAGp56XR6bDKRvEhU/l/ctbwagfzNiu2H4i+icodpM3fU6nE4z/O2T2jiYAt7KBSHKvRQgcyoxdjb6AUR+VBfse9XcRcCwHie90ZUsSuACVA8nhiTuD0Mw6fiLoxaGxsAamndXd0zKqj8HoJD4q5lE+4DcIOI9JZtudTf378q7oI21t3VPaMilQDAkRDMhmKXuGt6JRX9SSKZOKseFggS1Rs2ANSyRnbz+xWAqXHXMsJCUVDo7xKaWBgOhPfFXdDW8DzvEFE5BopjALwp7no2slSNHlcoFJxv20vUyNgAUEvyMt6nBPIVRHSs61a6WVR+VZHKb+v5FLytEaSDva3YEyE4CQ63yR2FR63YdxSLxcG4CyGqF2wAqKUEQZC0w/b7EJwecylPA7i8iupPm/3kt1xXLq2iZwA4AdEcobul1gD4YL6U/3WMNRDVDTYA1DLmzp3bsW7Nul9DEd9mK4I7ofhmx8SOK+N+VK3WgiCYqsP6QSv2P2NcQKii8sm+/r5vxTQ+Ud1gA0AtYWSb1j8COCyWAhRLVPUbhYHCIrT4I1+dnZ2pjvaO9wL4LNwcoLP1FF/L9+fPRYv/Lqi1sQGgphcEwXgta1GhB9d8cEWfiJzfV+or1Hzs+me8Lu+dYuSLUOxf89EVP5u287TTFyxYUK352ER1gFsBU9PTsv6g1hd/gQyq1Tn5/nzAi/9m2UJ/4bfTdpz2BgCnQfBITUcXfHDV46uuDIIgWdNxieoEZwCoqQWZ4FALuwy1+1tfCeBz+VL+56iTo2obRTqdHps0yU8K5FwAY2s49AKTMu8Nw7BSwzGJYscZAGpqVan+J2pz8a8K5NvrK+v3yZfyl4IX/602MDCwtlAqXIgEZgL4Yw2H7tGKXt7T01MPj4QS1QxnAKiZiZ/xVwLYPuJx7hCV0/r6+/4c8TgtxfO8Y8XKD/Dv++hH5Zf5Uv59YPNGLYIzANS0Zh8+ezKivfiXFXrB0LqhQ3nxd69QKFxtUuYNAH5ToyFP9LP+p2o0FlHsOANATSuTyeybQOKeiOLvE5X38sJfG37GfxcEP4JiUsRDlY01BzTaNsxE24IzANS0jDGvdgzuaMyvonoIL/61ky/lf520yU6BRL2Vb8oa+4mIxyCqC2wAqGlNnz59FQTPOYxcLyqn50v5U0ql0gsOc2kL9Pb33j9u4rgMFJdEPNSxEecT1QXeAqCmluvKXaWiLl7QHzMwx4el8GYHWTRKfsY/FcAlANqiyE9qcvfe/t6Ho8gmqhecAaCmZtX+cNQhgmVq9FBe/OtHvpS/VI3OBfBUFPkW9nVR5BLVE84AUNPzMt5NAgm26YsF17WPa3/XokWLhtxWFSmTyWSmJzU5Q0V3E5WdIZiqqkaNiljZbuTz1orIKiger5rqk1KVVW3VtvuXLFvydKzVb4Xuru69KqgshOD1LnONmjeE/eFdLjOJ6g0bAGp63enunSumciu2/pHAS03KnFHPO8R1dnamxo8Z/0YrdhYUh4vIYQD2xGimxjdsyXs7gNsEcnuimujvHeh91FHJzo0c9HQDgDc6irRlWx4/MDCw1lEeUV1iA0AtwT/C3x8JXA9g9y349DIE5+aL+W9GXNY2CY4Idq8mqseKyrEQHAFgTNRjCuR2Vb1BE7owkUiU6q0pmtM5Z9Jw+/AfAXijzVJosVAqjDqHqN6xAaCWkU6nJ6ckdQEEZ2DTF02F4HoVvaBQKPyl1vW9mu6u7r0qpvIeWBwHwSGxFiN4Dha/M2J+Uk/rItLp9NiUSV0LoHuUUaeNbOdM1NTYAFDLmdM5Z9L6MevnQbC/qEwH8AwM7k3a5JI6W/ktQTaYbdWeDuCdAOpxr/p7ILjMJM2lYRhGsiBva8ydO7dj3dC6hdjWmQDBnSZpDqm3GQ6iKLABIKoz6XR6bFKSp4nIRwHsE3c9W2gNgEvU6NcLhcKTcRaSyWQmJJC4EUB6q75Q8Byq8PID+TujqYyovrABIKofJpfNHa+qX8eWrVWoR0MQXFqxlS/19/eviquIkSbgCgDHbOGXPG7EnBAWw2KUdRHVEzYARHXA7/LnisjXFXpw3LU4IXgOiv8xKfOdGKfTTS6bO0NV/wvAjpv5nLJAfmGNPS/umQuiWmMDQBSjIAim27L9Ebb8nWpDEcigqJwW9oe3xVXDyC2VuSLyZlGZoaITATwOwYCFvapYLP4jrtqI4sQGgCgmXpd3vIj8EMDUuGuJWAWCS9rHtZ/XYBsqETU1NgBENRYEwXZa1osVelLctdTY3VbsccVi8d64CyEiNgBENZXJZGYmkLgWjbvIb3Q2rA14X76U/0PcpRC1unp8rpioKQXZYI5AbgAwPe5aYtQO4N0zdp0x9vAjDr/p7rvv1rgLImpVnAEgqgEv450hkIsBJOOupY5c0zGx410LFy5cH3chRK2IMwBEEfMz/lcE8lXw+O1X2q+8vnz41B2m/v7xxx8vx10MUavhDABRhLyM9zGBfCvuOupcvorq0aVS6YW4CyFqJWwAiCLS3dW9V0Uqd2M0R/O2jptNyswLw/DZuAshahWckiSKSAWV88CL/5Y6Qof1cvBNCVHN8B8bUQQ6OztTHe0dTwCYHFMJCsV9ENwHxQoYrBDIS3vzq6pAMRWCqQC2h2J/CGZi08ck14yonN7X3/eTOGsgahVsAIgikMlk9k0gcU+Nh70FimtV9ebEmMTSrZ1OD4IgWS6X900gkRWVt6roHADjI6p1cx4aWje0z+DgIBcFEkWMjyQRRSAlqR2t2sjHEchyC3tpSlO/7+3vfXg0WSOH9iwf+fjRzJkz2yZPmvxmA3Oair4NQMpFza9h9wljJ2QAhDUYi6ilsQEgioJiXYTpFsC1RszFYTFcAiCSzXSWL18+DOA6ANcFQTBdy3q6Qs8B8LooxnuRhQ3ABoAocmwAiCJgrFlhTQQzAIo+a+wnisXioPvwzQvD8AkAX5zTOeei4bHDHwNwDhSTIhlMsUskuUT0MlwDQBSRXCZ3j0L3dRS3QlXPLPQXrnGUNyojxxhfBOCECOJ/mS/lW+2gJKKa42OARBFR1csdRf3SpMxB9XLxBzbMCORL+XeJyDEAHnWZLZDHXOYR0aaxASCKSNv6tu8BeHIUEWtU9T35Uv6ket0gp6/Y98eKVg4BcJOrTIXe7CqLiDaPDQBRRBYPLn5OIKdgw6K9rbVSrR5Z6C9c6bou1/r7+1eZlJkrkG84iHu+vaP9Rgc5RPQaeBgQUYQeXvHwfTNmzHgEwNuwpQ234E5TNbPzN+eXR1qcQw899JB9eMXDf9pt193+KSJvxTauL1LoF24Kb+p1XB4RbQJnAIgili/mf6ZG5wC4+zU+taqiPyhXy7PCm8OHalCac4X+wsUQnAagurVfq9Di+InjeXASUY3wKQCiGuns7EyNHzv+aGttj4i8CcA0AGUI7hOVvqpUf1osFh+Iu04Xctlcj6pegS08C0Egg8ly8i1Lli15OuLSiGgEGwAiioTf5fsicolCZ77Kp1UA/LRsyx8fGBhYW6vaiIgNABFFqKenJ7Hq8VVHqdWjIZgJxQ4QrAXwqECKVale2SyzHkRERERERERERERERERERERERERERERERERERERERERERERERERERERERERERERERERERERERERERERERERERETU+CTuAoho680+fPaUSqpyOBT7K3RfCPYWyCSFTgIwHsAYx0OuBjAkkCEVfQKKvyv0bwlJ3PPC2heWDQ4OrnE8HhFFjA0AUWMQv8v3ABwDQTeAgwGYmGt60TCAmyG4SUV/XygU7oi7ICJ6bWwAiOpYNpvdzcB8EIr3Adgj7nq2hEBuh2K+tMn8MAyfirseIto0NgBEdcj3/T1gcQ4UH4L76fxaGYLgUlM23wiXho/EXQwRvRwbAKI6kk6nJ6ck9RUITgWQiLseR9ar6EVjx4394qJFi4biLoaINmADQFQfxM/47wPwDQDbx11MRFYAOCdfyv8+7kKIiA0AUexmzZo1cUxyzE8AnBB3LbWgqpePHT/2w5wNIIoXGwCiGGWz2U6j5jcA9oy7lhq7W432FAqFu+MuhKhVsQEgiomX9maLkasATIi7lpisFsg7+0p9f4q7EKJWVC/PERO1FD/rv1eMLETrXvwBYLxC/5jL5nriLoSoFXEGgKjG/Kz/XiguBxvwF1UBnMDFgUS1xQaAqIZGpv2vQ+M+2x+VYYEczdsBRLXDBoCoRvy0/yYY5LFhr356JcFzVa1mSqXS8rhLIWoFbACIaiAIgvFa1lsUum/ctdS5e6uoHloqlV6IuxCiZsd7kEQ1oGX9AS/+W2SfJJLfjbsIolbAGQCiiHld3rtF5Fdx19FgjueiQKJosQEgilAmk5mQQOKvAHaOu5YGs8KkzAFhGK6OuxCiZsVbAEQRSiL5BfDivy12tcP2v+IugqiZcQaAKCK+7++KKu4D0BbhMGUAN0HQq1W9TRP64JjymOfWp9YPuxwkWU52lJPlSUlJ7qNWD4FgDoBZiPY1ZF0V1b1KpdJjEY5B1LKScRdA1Ky0qp8SSFQX/ycV+u2qVi/t7+9fFdEYG3sGwCMAlgO4CsD5vu/voVbPEJUPI5odDduNmE8A+EQE2UQtjzMARBHo6uraISnJhwCMdRxtobi4KtXz6+VRuZHv9esATokgfsikzO5hGD4VQTZRS+MMAFEEkib5Qajzi/+QiJzcV+q7ynHuqIzMQLw/l83dqKqXwm3T02HL9v0A/tdhJhGBiwCJIiEqJzmOfFyN+n3F+rr4b6yv2PcrWMwB8KTj6JMd5xEReAuAyLlsNttp1NziMHKNGvUKhcJfHGZGZmTL4xDARFeZVuwbi8Xi7a7yiIgzAETOGZjjHMapqp7aKBd/AMgP5G9V1Q+6zHT8MyUisAEgisKRDrN+XOgvXOkwryYK/YXfCeQyZ4GKbmdZRASADQCRU0EQjIfiMEdxz5Zt+TxHWTVX1vJnALh6UmHW3LlzOxxlERHYABA5VV1fnQUg5SRM8P2BgYF/OsmKQX9//yooLnEU17Z+aP3hjrKICGwAiNwy2N9RkoXBjxxlxSaJ5A8AqJMwxX5OcogIABsAIqcE4urI31I+n1/hKCs2vf29DwO42UWWGmUDQOQQGwAit/ZxkqJY4iSnDghksYscVXXzsyUiAGwAiFzb3kWINXbQRU49sOrmezEwTn62RLQBGwAilxTjXcQkq8n7XOTUhQT+7iJGoVEcOETUstgAELkkbk7FS9jEMy5y6kEikXD1JAMbACKH2AAQuSRuDsJZjdVrXeTUg7Vr165xEiQY5ySHiACwASAiImpJbACIiIhaEBsAIiKiFsQGgIiIqAWxASAiImpBbACIiIhaEBsAIiKiFsQGgIiIqAWxASAiImpBbACIiIhaEBsAIiKiFsQGgIiIqAWxASAiImpBbACIiIhaEBsAIiKiFiRxF1APfN/fFRZHwmJXABPirocamOAcAGNGnaO4BUBl1Dn1IQnBoQ5y1kPxHQc59ApiRFR1F4XuICrj0LxvDleJyP2a0Ivz+fyDcRcTt5ZuAHKZnKfQ/wHgx10LERHVjog8oqofypfy18ddS1xatQEQP+t/HooL0Lo/AyKiliciP+8r9n0w7jrikIi7gDj4Gf+HAD4BXvyJiFrdm2bsNmPPh1c8fHXchdRayzUAfsY/FcAX466DiIjqxsEzdp5x58OPPPzXuAuppWZd6LFJmUxmAoAvxV0HERHVmQR+EHcJtdZSDYBRczyAaXHXQUREdWeH3GG5w+IuopZaqgEQkaPjroGIiOrUGHw47hJqqaUaAACvj7sAIiKqTxZ2n7hrqKVWawCmxl0AERHVJ1GZEncNtdRqDUDLPfVARERbrKWuiS31zRIREdEGbACIiIhaEBsAIiKiFsQGgIiIqAWxASAiImpBbACIiIhaEBsQUXDFAAAgAElEQVQAIiKiFpSMu4BGJCqHV0316bjroIaTTNjEFJuwbXEXUo9M1QxrUp+y1lbjrqVZSUW2k4QMjjpHZKEV+zUXNbkgVnYHcFm8VTQeNgDboIzyw/3F/lVx10FEtDVmHz57SjlRHnWOhX2iUCj0OSjJCc/znhQrcZfRcHgLgIiIqAWxASAiImpBbACIiIhaEBsAIiKiFsQGgIiIqAWxASAiImpBbACIiIhaEBsAIiKiFsQGgIiIqAWxASAiImpBbACIiIhaEBsAohY1b968MQC4gTpRi+JhQERNorOzM9Xe3r5PAom9INgDit0B7ArFVAimAJgCwTgoJgHA0PND8DP+i19eBfA8gNUAngbwJIBVAFYAeEitPqQJ/XuxWHwQgNb4WyOiCLABIGpAQRAkq9XqQagiIyKHAjgIwAEANhw1vPEleuP3+Ju/dCcAvG7kY9dX/k8xAlGBn/FfgOBOKO5Q1aVW7ECpVPrb6L8jIqo1NgBEDSLoCg6sSnUegLm2bI8QyPgYJvAnQNEFoEtEzkggAT/jPwmgCODGpCZv6O3vfbjmVRHRVmMDQFS/TC6Tyyj0XQCOsbC7Sn3est8ewHEAjqtIBX7Gv1uhV6vob4rF4u1xF0dEm8YGgKjOZDKZmUkkT1XoCQrdOe56tsEBAjlAVM7LZXJ/U9ErLezPisXiP+IujIj+hQ0AUR0IgqDdlu27IDgdii5tknV2Ct0Xis8bmPP9jH+jiPxkhx13+MOCBQuqcddG1OrYADS5uXPndqxbt24Ha21dzh1vjrV2dX9//6q464haEARTbcWeasv2LAA7Ncl1f1MMgHmqOm/lYysf8rP+D03S/CgMw2fjLoyoVbEBaEJ+2n8DBB+F4O3rhtbtCACmwbZ8MGLgZ/xhheaNmt+sXr/6ssHBwXLcdbnied6OsDjXlu1pAMbGXU+N7Q7FV23ZfjaXyV0sKfkWGwGi2musqwK9qiAI2r2s92MY3AbB6QB2jLumUWoTyBwV/fG49nF/zXXl0nEXNFpBEEz1M/43xMp9AjkTrXfx39h2Cj3flu0Dftb/r0wmMyHugohaCRuAJjFr1qyJtmL7ROX/oQl/rwLZS0Vv8jzv2Lhr2RadnZ0pP+ufbSv2PgCfBDAu7prqyOuguDCBxIN+1j+7p6cnEXdBRK2g6S4ULcqMSY65EorD4y4kYmPEyhWe5x0UdyFbw8/4R3W0d9wFxXde3IWPNmkKFN9Z+ejKZZ7nZeIuhqjZsQFoAl6X914A8+Kuo0Y6xMr34i5iS6TT6cl+l/8jANcB2CfuehqG4BCxUvC6vPnpdHpy3OUQNSs2AE1ARM6Pu4Ya8/y03xV3Ea/Gz/gnpkzqbyNrMWjriYicnDKpO7LZ7NFxF0PUjNgANLhsNnswWvDdpSb0HXHXsCmzZs2amMvkLgdwBYCpcdfTBHY2av7odXnz586d2xF3MUTNhA1AgxOVw+KuIQ5ipTPuGl4pyAbZtmTbHQo9Ke5amo2InLxuaN0tQVfwxrhrIWoWbAAanIhMj7uGONTb953L5k63ansFMiPuWprYflbsgJ/xT427EKJmwI2AGp1iXdwlxEGha+OuAQA6OzvHdbR3/FhVT4y7lhbRDuCnfpd/yNPPPf2x5cuXD8ddEFGj4gxA42vVA1ZWxF3A7Fmzp3W0d4QAGvXiPww06ObDgv+cvN3kG7PZ7OviLoWoUXEGoMGZlFlky3YYQFvctdSSqPwpzvH9I/z9y4ny9QB2j7OOzXhBIPdatfdC8FeB3Csq/7AJO6SqqwE888wzzwy9+O557ty5HatXr+4wxowXke2kKuMFspdC94VgHwD7AtgbdfY3JpBAICXf99+Wz+cfjLseokbDBqDBhWH4rJ/xrwHQE3ctNbQmWU3+Pq7Bc125tIpeB6Be3n3+QyC9KnpT0ib7evt7H96aL160aNEQgCEAGx++lN/4c3p6ehKPPfbYfgbmSIEcCSAAEP8z+or9UcVA0BW8NewPb4u7HKJGwgagCRhrzrPGHgNgTNy11ITg20uWLlkZx9BBNgis2j8CGB/H+COqAJaIym8TSPT29vfeH/WAI8f3Lh/5+B4A46f9g2EwWyDvVmicT2VMs2J7s9nsvGKxuDTGOogaChuAJhAOhPf5Wf90KH4Rdy01MNAxoePCOAb20t5brNqrEN8BPncpdL6F/WWpVHosphpeZPMD+VsB3Argfz3PO0CsnAzBSVDsEkM9rzNq/uR53tsLhUJfDOMTNRwuAmwS+WJ+PgQfBVCJu5bICPrV6DsWLly4vtZD5zK5I8VIHBf/sor+XI125kv5NxRKhW/UwcX/3xQKhbvzpfy5+WJ+hhHzZgiuQ+0XGE4QK9c2w6mRRLXABqCJ5Iv57wukG0Cz3QtdC8GXTNLMLhQKT9Z68Gw2O0uh16C2F/9hVb3cWHNAoVj4YKFQ+EsNxx4NGxbDxfli/mhYHKyql2PDLYtaGa9GF2az2brbKIqo3vAWQJPpK/UVAHTmMrnZqnosgJkiMl2hqbhr2yqCp6B4RFQWS5tcFYbhE3GUEXQFB1q1NwCo1Vn1awXyPUnJt+L6nl3JD+TvBPC+IB182Rp7LoCTUIs3HYpJBmah7/uZfD7/98jHI2pQbACak+0r9f0JQKyPyjW6IAimV8vVawWyXS3GE5VrNaln9eX7muqRtnAgvAfAKZ7nXSRWLgEwqwbDbo8qbujq6kr39/eveu1PJ2o9vAVAtAnpdHqsLdura7K1r+ARCE7p6+97ezM/z14oFP6SL+W7IDgFwFM1GHLPpEn+sbOzc1wNxiJqOGwAiP6dpEzqMkT/TtUC+OrQ2qF988X8/IjHqhc2X8zPT1VSB4rIlZGPpji8o73jksjHIWpAbACIXsHLeJ8EcELEwzypVo/Kl/LnDg4Orol4rLqzZOmSlX3FvveMzAZE/f2fksvm/jPiMYgaDhsAoo3kMrkjBfLlSAdRLDEpc1BhoHBjpOM0gHwxPx8WRwC4J8pxVPXbfDyQ6OXYABCNmH347CkKvQLRLY61Avl8vj8/t9FX+LuUH8jfaVLmMIFcEeEwbSr6f3M650yKcAyihsIGgGhEOVW+BMBOEcUPq+qJfaW+L2LDvX/aSBiGq/tKfSdD8NkIh9l9uH34JxHmEzUUNgBEAHJduQ8guvv+Lxgxbyv0F6Jf9Nbg8sX810TkI4iuSerxs/57I8omaihsAKjleZ63o4p+M6L4pw3M3LAYLo4ov+n0FfsuUaPHA1gXyQCKi2fPmj0tkmyiBsIGgFqeWPk+ojna91EkkA5L4c0RZDe1QqFwtRHzdkTTBEyupCrfiSCXqKGwAaCW5mf8dwI4LoLoZ4yat3Ir2m0XFsPFIvJeRHCWgKq+2+vy3uY6l6iRsAGglpVOp8cq9FsRRK81Yo4J+8O7IshuKX3FvqtE5cNRZIvId+fNmzcmimyiRsAGgFpWm2n7VARb/ZZVtScshkXHuS2rr7/vJwq9IILoPdc8t+bsCHKJGgIPA2piwaxgl2pbdS+jZoeox1LV9VbsyrVr197ZCDvbdae7d66g8mnnwYIzCqXCdc5zt43JZrNvMDAzYbE/BPtAsLuodCi0A8AkbJhef37kY0hF7xXIvVDca8XeViwWH4j1OxhRKBUu9LLerqLy/1zmqujnZs+a/YslS5esdJlL1AjYADSZnp6exBOPPnGyQM60Yg8RK1BoTcY2atDR3rE215W7UUS+FJbCW2oy8DaoSOUCAB1OQxU/y5fyP3OauZUymcxOCUkcB0U3gBwUUwAAMvIJik39PUx98T9EJfPifxs18DP+PwTSa9UuGa4O/2Hp0qXPR/wtbNb4CePPHHpuqBOCQxzGTiynyucB4EwAtRzeAmgi2Wx2t1WPrVoqIj93/CK5Ncaq6LEWdpmf9S8KgqDumszuru4ZELzfZaZAlg+tHzrTZeaWSqfTY/2Mf6Kf9W9IIPEPKL4H4J3AyMV/dHZT6PtF5PIxyTFPeF3e//kZ/6ienp6Eg+ytsnDhwvVGzbuwYbbCHcWHfN/f1WkmUQNgA9AkstnsnkbNMoV2xl3LCIHiLFu2v0Gd/Z1VpfrfANocRg5ZY0+o9a2PIAjG+1n/7JRJ3QfgCijeAiDKC/NYEXkPgOtWPrby737WPzsIgvYIx/s34UB4HwCntwEAjEEVn3OcSVT36uqFmbZNOp0ea2CuBVCPm5sc52W8unlx7e7qnqHQk1xmisiHC4XC3S4zX828efPG+F3+52zZroDiO4hu++JXswcU37Fl+zc/638Q/7rJELl8Kf8bFXW9pe8HutPdOzvOJKprbACaQJtp+xgU+8ddx+YI5LxgVrBL3HUAQEUq58Dl2hfBjX3Fvsud5b2GXCZ35NALQ7dC8D8AtqvVuK9iNygu9TP+slxX7rBaDWrVfgLAow4j28qJ8lkO84jqHhuABtfT05NQ6Dlx1/Ea2m3KnhZ3EbNmzZoIwQccRq5N2uRHHOZtViaTmZDL5C5XaG+dNnuHqmi/3+VfWIv1AaVS6QUR+ZTLTFE5g6cFUithA9DgVj66MgNg+7jreC2icnTcNbQl206FwtkLvEK/0tvfe7+rvM3JZDIzk0gOuL51EYEkBP+18rGVvbWYTu8r9v0KiiUOIyeWx5RPcZhHVNfYADQ4MXJg3DVsCYXG/q5VIO5mIRR/T6QS33CWtxl+xj8xgcQtCp0Z9VgO+RVTuTXXlUtHPlISHwaw3lWcirpeYEhUt9gANDi1Wvfv/keMmzt3rtvn7rdCLpPzABzgLFBwThiG0ZxWNyLXlTsLwHwANV1p78j2Kro46v32R85auNhh5IE1aVyI6gAbgEZn8GzcJWyh4UWLFsW2Q6BCXa5B+HO+lL/eYd6/8bv8r6roRWjsf6PjRORqr8uL9NZFqpL6XwBrXeWp6KmusojqWSO/uBAAKBrltLkHgBptSfgKI8+qH+sqT1W/5CprU/wu//MQfCbKMWooKSKXjZy6GIklS5esVOhPHUb21Hp/A6I4sAFocCZleuF6Z7QoKGLbH786XH0bgIkusgSyvNBf+KOLrE3xMt4ZEPx3VPkxSQC4YuQ2TDQDVBJfBzDsKG6iLdu5jrKI6hYbgAY3ch861v3nt0BVExpbjSJygqsshV4IwLrK25if8Y8SyPejyK4DYxV6je/7e0QRHi4NHwHgcj+GdznMIqpLbACaQNmWLwRQz6eZ/bSWO+VtbOS896McxT04badpv3WU9TIjGyX9As39b/J1qOLXM2fOdLkN80uqqH4D7m4zHd3Z2ZlylEVUl5r5xaZlDAwM/BMW74TDx6GcUfylbMsfi2v4tS+s9QCMdxImmL9gwYKqk6yNBEGQtEl7JTY6la+JHTZ1u6lfjSK4VCr9DcBSR3ETJ4ydkHntTyNqXGwAmkR+IN+vRmcDWBV3LRspaULfOjAw4GyF9taqojrPUZQmbTKSLX+1rJ8G0DIXG4Wek8vkjowiW0Sc/Y6s2re4yiKqR2wAmkihUCip0TcCuBRAJcZSnlTomUPrho4sFApPxlgHjBonL+IKLUWx65/v+3sotNaHJT0J4DYAJQiWCWQ5gKEaji8K/W4UU+zD1eEr4WgxoEBcNY9Edanuzmqn0SkUCo8DOC0Igs/qsL5dRQ8AsCPcHn/7b1T0WbHyqIj0r163OhwcHCxHOd6WCIJgqi1bV5v//MJRzstIRb6rouOiyN7IYwB+o6qLK1oZGBgY+OemSgmOCGbYpPXV6ltF5B0AoqzrwI6xHWcB+KbL0IGBgX/munLXq+ioH/tU6EHpdHryZn5eRA2PDUCTCsPwKQA/j7uOONmy7YKbY2qHx6wbs8BBzsvkMrkjFRrlGQm3qNEvTZ8+/Y9bsHZBw5vDhwA8BGD+rFmzJo5JjfkAFJ8CENW+/ufP6Zzz08WDi59zGWphfykQF/s+SMqkjgAQ6aZPRHFhA0BNS0Uzok6OqV/q+iIFAKr6OSftyb97UkQ+0VfsuwLbuCp+6dKlzwO4KJ1O/7jNtJ2r0E8DGOO0SsWk4THDHwXgdGOlRFtisS3bKjbsPzAqCs2ADQA1Ka4BoKYlVma5CUKvk5yNBJngCAhmu84FkFejB/cV+y6Hg0fiBgYG1vaV+i6ARTqSXScFHwuCwM1TGiPCMHxWILe5yBLIES5yiOoRGwBqXoKDnORY9w2Ain7CdSaA+SZlZo+sA3EqP5C/1bSZwwEUHEdPqZarUZwV4Op39kZHOUR1hw0ANaVsNrsbgNc5iFrTManD1bPlAIB0Oj1ZVd/uMhPAL/Kl/PvDMIzs6Y8wDJ8t2/JbFBq6zBWRk13mjbjJUc7kTCazk6MsorrCBoCaklh5g6Oo0sKFC51usNSWaHs3HN5PV+jioXVD/w81OGxpYGBg7Zh1Y44FcJezUEU6SAd7O8sDICkpAHDyJEpKUm5mkojqDBsAakpiZD8nOZBbXORsTKEnOox7oq3SdlItH7tcPLj4OWNND4DVjiKlaqrvcZQFAAjDcLVA7nWRpVb3cZFDVG/YAFBzUuzuJkb/5iLnRXM650yCws3iRAAictaSpUtqfg5EOBDeo9DzXeUJ5M2usl7k6nenopEcYEQUNzYA1JREZXcXOVbsPS5yXjTcPpyDg8fTAACKvr5in/P9CbZUIpX4HtzdCpg1d+7cDkdZAACBuGre2ABQU2IDQE1Jjc5wFOVkGvklDh/9M8b8j6usbTGy4NBVDW3rVq9zeh6CqxkAgezuIoeo3rABoOakmO4gZVWxWHzGQc6/KA5zlHRPWAwXO8raZvlSfgGAFS6yRORQFzkvMjBubgFAp7nIIao3bACoGQncPALofuMbYF8nKYJfOskZPQu4qUWhbn42IxLlhKvf3xS42VKaqK6wAaCmk81mt4ODba5Fxem7/66urh0ATHaRpaJ1sz2tGr3WUZTT1fZLli35J9w8CpiaNWvWBAc5RHWFDQA1Ixfv/mFhX3CR86JEIvF6R1HPT58+/XZHWaO2Zs2aZQDWOIhy/bidAnBykt9YGeukcSOqJ2wAqOmISLuTIOPsOfcNcWpcXUT+ugWn+9XM4OBgGQoXT0tsB/evSU5mcSzsWBc5RPWEDQA1HamIq132nM4AAHBy6I2qPuAixynBfQ5STCaTcf0ooJNdHG3StrnIIaonbACo6diEmxdrgThtAFR1ooscEXF+NPGoKZ51EWOMcXoyoIo6aQASNsEGgJoOGwBqOqZqnGy0o+rm4rFRnpuLiGDYSY5LButcxDi7ffMidXMegKqmXOQQ1RM2ANR0RMTJi76IuJ2OFnGxUA6iMs5FjksKdbJKXlWdrruAo0OXbMI6bQaJ6gEbAGo6VVN19Q7Z6aNfIvK8ixyFbu8ixyVjjZOaKpWK2wZA3DQASZtkA0BNhw0ANZ1k1c2Ltat3tRsFurq4uXqc0BkVdXH6YnlgYGCtg5x/UThZvV8xlfq77UI0SmwAqOnYlB1ykWNg3M4AqDzuKOr1mUymbjamSafTk+HmwJwnHGS80lQXIW3VNid/U0T1hA0ANZ1yufyUixyr1umK9BfWv3AvNmydO1qpJJJZBzlOJCV5JByccOj66OXOzs4UgEkussZsN8bJ3xRRPWEDQE1nZBp51AvuBOLiQKGXDA4OrgHwiIsshR7vIscFETnBSY6743sBAGPHjt0RbvbwX71w4UKuAaCmwwaAmtXTDjJeD8eHwCj0bidBgv8IgsDpDMW2CIJgKoBjXGSpup0BSGjCyeFCCnXxt0RUd9gAULN61EFGh+/7uzjIeYmIlJwEKSbZiv2Qk6zRlFHWjwNw8uy+qBRd5LzIwjppAATiZNaGqN6wAaCmJCIPucgx1jg9olasLHEWpvh0Npt1cvDRtvB9f1eFnuko7p/5gbzTA44E4qoBeNBFDlG9YQNAzUnh5EXb1bvIF0mb/BnuzhjYwaj5sqOsrVfF9+HofAMAIdwskNyYq98dGwBqSmwAqDk5agCg2N9JzogwDCsAbnAY+SHP8451mLdFvIx3DoC3OwsUXOcs61/cNACu/paI6gwbAGpWdznK6XKU8xIrdr7DOBEr8z3PO8Rh5qvKZrNHC+QbDiPXta1t+53DPHSnu3cGsJujOFd/S0R1hQ0ANaUx48fcATdTygePrHR3JplM3gBgpcPICWLles/zDnKYuUl+xj/KqPkNgKSrTBG5evHgYqcnHFZMZY6jqOrq9auXO8oiqitsAKgpLVq0aEihLqZuTXW4GjjIeUkYhhWBuJwFAIBpYqXP7/LnOs59iZfxPgrgGsDN9rovslV7mcu8EUe6CBHIfSP7NxA1HTYA1LQE8hcnQQbdTnI2Yo39NuDmCN2NbAfBQi/rfS2dTju7SGcymZ38jP97gVwMh+/8R9xaGCgscpwJOGoAFHqbixyiesQGgJqWQvtd5IiKk4vJxgqFwuNQ/Mx1LgAjKp9OmdRyP+OfGATBNl+w53TOmeR3+Z9LIHEPgOMc1vgSVf0SAHWZGaSDveHo/r9Cne5NQFRP2ABQ0zJq3Gy6A+yXzWb3cZT1Emvs1wBEtcXsHgCusGV7by6TuyCTyWzRivggCJJ+l+97We+S4bHDD0PwP3B8LPJG7ir0F65yHVo11aNdZYl1tHETUR1yPZ1HVDdWr199W0d7xxCAjtFmGWtOBnD+6Kv6l2Kx+A8v431NIBe4zH2FPRT6hQQSX/Az/qMAbhbIvVbt4wZmNQxSsBhvxe4ukP1s2R4BwQRRpzsgb5ribLh/9h+icrKjDZxfmLbLtDucJBHVITYA1LQGBwfLfsbPA5g32iwVPRnA5+H4gjV+4vgvDz0/9G4AzmcYNmFnAMcrFCIChW6YfBdA3B558JpU9VeF/kKv61zP8w6AhatHInsXLFhQdZRFVHd4C4CamqoudJEjkBlBNvBdZG1s4cKF66E4E47vg9e5Z63YT0YRLFV5n6sshbrcsImo7rABoKamRp3tMFdF1dnFZWP5/vwiKL4VRXadOrVUKj0WQa6B4L2uwlQ0iqcTiOoGGwBqasVi8QEA97jIEpWeqA7fMW3mswCaf8GZ4Lv5Uv73UUTnMrm3ANjVRZZAlo/87RA1LTYA1PQEssBR1HhjzVmOsl4mDMMKEngPgMejyK8Lgv6OCR2fjipeoee6yrKwv3aVRVSv2ABQ0xOV37gLw1mZTCaSx+Ly+fwKo2YugGeiyI/Z3eVq+e0LFy6M5LFHz/NyADxXeVKV37rKIqpXbACo6YX94V0CcbWf++SEJP7TUda/CfvDuwzMUQCGohojBo8mNXnUwMDAP6MaQKyc5zDutvzN+b86zCOqS2wAqCVY2F84C1N8vLOzc5yzvFcIS+HNRszREDg9ICcmD1qx3b39vQ9HNYCX9g4H4O4MBMFlzrKI6hgbAGoNBpcBGHaUtkPH2I5I1gK8KCyGobEmC8EjUY4TKcGdSZv0isXivZEOY+RCh3HrUsOpKxzmEdUtNgDUEgqFwpPYcJKdG4rzgyOC3Z3lbULYH94FAx8KN4ca1dYf1pfXZ3sHeh+NcpBcNtcDl+/+gd8vWbbkaYd5RHWLDQC1DCPmEodx49Totx3mbVI+n3+wY1JHFwTfRWNsFlSB4Av5Uv64pUuXPh/lQEEQjFeo0/0TjJgfuMwjqmdsAKhlhMUwhGCZqzwVPTaXzb3dVd7mLFy4cH2+mD9bRI4HEMUGOq7cpVYz+WL+vxHBHv+vZMv281Ds4jDyz2Ex5Ol/1DLYAFBLEch3XOap6kVRLgjcWF+x76r2jvZ9IPgC3K1ncGENBF94+tmnOwsDBWcN1qvJZDIzAZztMlNVv+4yj6jesQGgliJJWQDgQYeRe4xvH3+Rw7xXtWjRoqF8Mf/fRk0ngAWowTvtV7EOwPeTNrlPvpj/7+XLl9ekKQmCoD2BxBUAUs5CFX+fvvN050cTE9UzNgDUUsIwrIycce+MQk/zs34k5wRsTtgf3pUv5U8w1swEMB9AJBvsbMazAP7XpMwe+VL+o1Ev9HslW7bfBvBGp6GCL/DkP2o1bACo5UzbcdovBPI3p6GKS/wj/P2dZm6BcCC8J1/Kn9K2rm0aBKcodDGiWSxYVehiCE5p72jfJV/KfyoMwyciGOdVjaz6P8Nx7L3Tdpp2peNMorqXjLsAolpbsGBB1c/4FwJw+bx3BxL4TWdn56zBwcE1DnO3yOLBxc9hw0zAfM/zdhQr3VB0q2hOIHsCkK2MLAvkboXeJCK968rr+qJe1f9agnSwt1X7U9e5qvo5vvunVsQGgFpSvpT/lZ/xzwZwmMPYA8ePHX8pgBMR4735QqHwOIBfjnygs7NzXEdbx74w2Eehu4nIJFiMF5EOVbUAXoDBalV9TiD3W7H3rF279sHBwcFyXN/DK83pnDNp2Az/DsBEl7kKLRb6C79zmUnUKNgAUKuyBuYsC9uPrX93vFmq+m4v6z1TKBYiOy9ga43MSNw68tFwZs6c2ba+ff1vBXKQ42hr1HwcjbG/ApFzXANALSsshTcD+JXrXFH5sJ/1/8t1bivq6elJTNluyq8EMsd5uOKyvv6+PzvPJWoQbACopZmU+QSiOH5XcaHX5Z3pPLfFPPHYE98G8M4Iop/WhH42glyihsEGgFrayEr2T0WRLSLf9rq890eR3QIkl8l9SyBRNVFnj5wPQdSy2ABQy8uX8j8D0BtBdEJEfuZn/c9EkN20Ojs7U7lMbr5CPxZFvkJvyJfyv4wim6iRsAEgAtRUzCmI4lYAIFB81ct43wX/vb2muXPndnS0d1yt0JMiGuIZScjpEWUTNRS+IBEBCJeGj0Dw0ajyBXKm1+VdMXPmzLaoxmh0QRBMXTe0bgmAoyIc5rR8Pr8iwnyihsEGgGhEvpj/P4w8Ox8FEXnPlO2mFLPZ7J5RjdGoPM/L2LL9C4BZUY2hoj/Jl/K/jyqfqNGwASDaiEmZMwSyPMIhDjNqbvUz/rsiHKORiJ/1zxYrN6aNVE8AACAASURBVAHYNbJBILevWbvmnKjyiRoRGwCijYRhuFoTehwEz0U4zEQAV3pd3vx0Oj02wnHqWhAEU/2Mfy0U34HLk/3+3TNVqb4zji2aieoZGwCiV8jn839X0fcj4u18ReTklEkty2VyXpTj1KNcNvceW7Z3INr7/QBQUavvKRaLD0Q8DlHDYQNAtAmFQuFqALV4fO9Axf9v787j46rL/YF/nnNmkqZLkpnMJG1p2WVx4f603otAaasii7gjZStLm0mjxYu4ARXBugECKqKAIUulgEIVWdwQBUoL4nJxubJT2bomM5mZpFuSmfN9fn8k9ZYKySTznHNm5jzv16v/dZ7v028ncz458z3fLz9y7NHHrnrvke9t8mA8X82bN+9N8+bOu5+ZfwRghusDEi5c9/i637g+jlJlSAOAUm9g7WNrr2XimzwYiojo7Fwo9+z8ufOXnXrqqbYHY3rq+OOPnzL/mPlXwMGTYJzg0bDXrn107Q0ejaVU2dEAoNQo7JB9ATHd49Fw9cx8Q/fm7qfnHz1/8Zw5c9z8XtwTRx55ZO28ufMuGdgx8CKDlwPw6jHIH619bK1uwKTUKDQAKDWKNWvW5FN9qdMA/NrDYQ9h4q4pk6asnzd33qfLcaHgyIX/4upQ9UtgXAmg0cPh79sxsOM8+Hgks1LlQAOAUmN46qmnhiZNmXQqgx/1eOh9wbgubIVfnH/M/K/OnTv3EI/HH7e5c+ceOe+Yed+vDlVvAuMqAFEvx2fw76ywddoTTzyR83JcpcpRyO8GlCoHDzzwwI7jjz/+xF07dt3jytG0o5vO4Mssti6bf8z8J5j4Vib+UakcZrPgyAWzTNicRUyLmflQH1v5dd7kT1m3Zt2Ajz0oVTY0AChVoAceeGDHUUcd9aGQFfoZgU70owcGzwFjDjFdPW/uvIeZ+UEmfmjGjBl/+8lPfuJ40cOCBQsmcY6PYub3gHCcgTkSDGKwF8O/kbt6s71nPvXUU0N+NqFUOdEAoNQ4PP7447tOOumkj+zo33ELAD9386sC4wQCnUBM6N7cnZl/9PxH2OI1xPS0Q85zjz766AaguKvynDlzwjU1NQdYbB0GwhFgvNvkzNEAJoFk/iHFIlBH48zGT6x9bK0nAUipSlEiP8LemHfMvK0Ain7WmplPtS07W8jf3ad+cNr+kcH41CpnSu9OO/tc97St24aoZL+fnB0dqN23bii2u9+neyZv2TkYyvvd11hmRwdq96sditeEncmZAff7ZmZicDP8DQGjIqJBMDaAsJGZu4moD4w+WBiAQQ4WBgEABlNggRg8jZhqianOts1+AM3OG8SYuVQfS2QiWkmgH78pvj02q86JW2ArtTPc+2T35G7HIV9vSRTiwNiO6My6fMMkm6szu+zM/26asiVnLNcWLxJTrQPnrmLrTK4yz06tMj9L7gy7uWNmwRzHabTI+pxAqefXPrbWz6+xPKUBQCmllBoWqACgTwEopZRSAaQBQCmllAogDQBKKaVUAGkAUEoppQJIA4BSSikVQBoAlFJKqQDSAKCUUkoFUNACQMlvDKKUUsofhNLfPEpSoAIAgXr97kEppVTJyvjdgJcCFQAY/KLfPSillCpNDP6n3z14KVABgJh+7ncPSimlSpSNm/1uwUvBCgBV9BMA+jWAUkqp12Dm9Nq1a9f63YeXAhUA1qxZk2XwCr/7UEopVVosy7rQ7x68VqrHfLrm1Q2v/nm/ffc7GMARfveilFKqBDDuW/vY2uV+t+G1wAUAAJhaO/UXNTU1swj0dr97UUop5R8mfmTdY+tO9LsPPwQyACSTSefVV1+9d//99n+ewe8kUL3fPSmllB8YDAL53Yb3GDsZ/Ll1j61b5ncrfgng//prLViwIMQ5fjcznwDCvgyOjLdG09TcrOm1ucOK7eXVTPVfM7ts1xcpHhAdeHPtJDOz2DpPb615JGcoJ9FTIQ6JDbyjpspEi63zSrr6L9kBOy3R02iOmL5zAVkIFVvnyS01axym/HheQ6BqADUAJjE4TKAqMMIghMAgJrYmh029bSFsj+x9YhFgWwzbYoRG/lTZjCrbwB7lV4WXe6uf6Bu0XX9++ogZO99NVPwvLf/YUvOwYXIkeirEofFd75wU5qJ+yTCM3D+2TH5Eqqe9jbw/Golo2tTq/EwWuDZsG7TSpbT1GhExM/eBsJFAXWsfW3srAON3X34KfACQkO5oXAbwDcXWYeCkhkTyfomeRtPbEV9JwHnF1rEx2FCX6Hf9Qrpbpj32WyY6rtg6Fqzj6hPdD0r0NJp0RzwLoK7YOjzJqWtYlO4XaOk10h3xhwEsKLYOWbwgsiTl2sVpt3RHfDuAKcXWGXDCU2a2bt4p0FJB0h3xdQDmFleF0tFET4NIQ2NIdzQOAlxVbJ2Ik6yiVnj2C4Iav0A9BaCUUkqpYRoAlFJKqQDSAKCUUkoFkAYApZRSKoA0ACillFIBpAFAKaWUCiANAEoppVQAaQBQSimlAkgDgFJKKRVAGgCUUkqpANIAoJRSSgWQBgCllFIqgDQAKKWUUgGkAUAppZQKIA0ASimlVABpAFBKKaUCSAOAUkopFUAaAJRSSqkA0gCglFJKBZAGAKWUUiqANAAopZRSAaQBQCmllAogDQBKKaVUAGkAUEoppQJIA4BSSikVQBoAlFJKqQDSAKCUUkoFkAYApZRSKoA0ACillFIBpAFAKaWUCiANAEoppVQAaQBQSimlAkgDgFJKKRVAGgCUUkqpANIAoJRSSgWQBgCllFIqgDQAKKWUUgGkAUAppZQKIA0ASimlVABpAFBKKaUCSAOAUkopFUAaAJRSSqkA0gCglFJKBZAGAKWUUiqANAAIYJghiTo2y9SpVEwkMj9G53k3mfl07EGJOpVK5n3L+p5V4jQACCCDrRJ18gabJepUKmJskahjGdJ5BgBwt0gZO7dJpE6FIqD4eWb9bFDyNAAI4JD5OwAuskx/Q6T3RYl+KhWDnhAok6lDz6sCdcoeE/4mUGZr9NW0BoDRcPHzzBb+LtGKUnvSACCgYUl6Axh/LbLMr2mhzC3ZSuUYcw+AfHFV+JfUipxIQ2UuxHQfig+uP6MVMBL9VCqHzL0ocp4tY90r1I5S/6IBQAgDVxfzcsviYl4fCPHW1BaA24soYYisa8UaKnN1ieR6MH5SRIkBQkjft2OIN6eeY+DuIko8V7+p+5diDSk1QgOAkGgiuZrBD07oxYQb65ek/iLcUkUKOVWXAzShW/jMuD7S3KO3UvdgwboEoPSEXkx0eSSx5RXhliqS7dBFALITeKljsVlGK4q986XUv9MAIIQIHHaqTmfghfG8jsEPRqYlP+tWX5WmtnVziggfAtA7rhcSfhM1yYvc6ap81bd0v2QsOg2MXeN5HTE6o80917jVV6Wpb+35JwNnABgYz+uY+KL6lt6HXGpLBZwGAEG1rZtTYSd8NBiPFPDXGUQ3R2tT79fv/scn0tzzd8uhI4GCFkYxgBsj+eQH9bv/1xdb0v07Q2ZBYXdWaAjAF+sTyRa3+6o0DYnk/Uz0HgAbC/jrOwk4r6E59W23+1LBpQFAWG3r5lQkkXw3iBcR6E/Ye/EPYxfA9zJbR0ebe1r14j8x9a09/4zUJueAuRWMf//6hLGLGXcbmHdFE8nz9eI/ulii9087aqsOA2M5CM++zl/pA2OVbfNbo4nklURFLx4MpIbmnscHnPChIFxKwPOv81cyALUzO4dGEslbPG9QBUrI7wYq0fCHY+p2ALcn22Iz7BAdBOY6Am0erLaen35O9w6/e6wEtBAOkLoZwM3JzthMG3Tg7nneZcLPzWzdvNPvHsvJ7IUbdwG4CsBVmY4Z+zHn9wVxLdjaENlV+xxdsF43/BEw8r68AsAVmZXT9+e8MxvANISsDZEp3c/pLwXKKxoAXDa8cl1mAxv1xuLNqc2AbpYiZWRx3x4L/Hp866WSRRZvfRnAyz63oQJKvwJQSimlAkgDgFJKKRVAGgCUUkqpANIAoJRSSgWQBgCllFIqgDQAKKWUUgGkAUAppZQKIA0ASimlVABpAFBKKaUCSAOAUkopFUAaAJRSSqkA0gCglFJKBZAGAKWUUiqANAAopZRSAaQBQCmllAogDQBKKaVUAGkAUEoppQJIA4BSSikVQBoAlFJKqQDSAKCUUkoFkAYApZRSKoA0ACillFIBpAFAKaWUCiANAEoppVQAaQBQSimlAkgDgFJKKRVAGgCUUkqpANIAoJRSSgWQBgCllFIqgDQAKKWUUgGkAUAppZQKIA0ASimlVABpAFBKKaUCSAOAUkopFUAaAJRSSqkA0gCglFJKBRD53YDyTqYj/naAFjF4CYD6YusR8yNsWXdYg4N31i/rywi0WPZ4BUKZmbETYVlnAHwGRH7G+OcAfrSjdtK9sxdu3FV8vfLBbQhn7NiJIOsMgE8HFz+fRLjbgG6P7qj9BV2wflCiz3LH1x9cna3pPxnEpxvgVIkLAwF3gej2+mk9v6SFGBIoqYRpAKhwm9tmTq4J5ZrZoAWEt7k0zAAY97FF1zU09zzu0hglrbc9OovI+jSBzmagyaVh+gBazVb+uoYl6addGqMk9HZFZ1smdKEhXkSMRndGoTSIf2zl6Tv1rT3/dGeM0pZtazzI2HwhQGcCHHVpmF4wfmTB+k59S/dLLo2hJkADQIXqvS1aS4P2p8C4EEDcq3EZ/KBl4WuRJalHvBrTT5mV0/dnY5aDcR7AVR4Naxi4xwK+Hkkk/+rRmJ7IdjUdyMYsZ9A5Hs5nHuAfG4eviLX2PuvRmL7qvXn6W8gyXwT4NAC2R8PmGbjdGL4ivjT1vEdjqlFoAKhA6Y7YBwG6AcBs35og/AL5/PnR1syrvvXgouFb0/HPAlgBYJJfbQB8W9gKfW7akq1Jn3oQwatRlemPfwb+zmeeCTca8JfizaltPvXgqq2rmqZUDZnLAHwOQMinNnJMuMkZwKWN5ye3+9SDggaAipLpmLGfIaeLmN/jdy8jtoGxPNqSvMHvRiSlOxqPYfBKAt7kdy8jUiC+MNqcut3vRiYi3R4/FoQuAAf73cuIDWyopWFpz2/8bkRSpr3pw0zmJgAz/O5lGL9iLDsRW9L9O787CSoNABUi0xn7ELO10sXv8YrA91pDucXlvlCQGZTtjF/AwDUAwn738+/41qEq+5PTz+ne4XcnhSjx+WQmfC+aT36eWpHzu5lijNyt+hqAi1B6n/kM4OpIbfJSWgjH72aCptTeDGqcmEGZzviVKM0f7j29aBxzcrl+x7q5bebkSfbQjwD6sN+9jOFJQugDkcSWV/xuZDRbVzVNqcqZO8D4gN+9jOFhsnMfiyzOZv1uZCJ6Vsanhw3uY8Z/+t3LaIj5d6bGnNKwKN3vdy9BUsoXDDUGXoFQdp/4D5jQ7HcvhaE0G3ywYWnP7/3uZDwyK+vr2Qn/HMBcv3sp0BYyeH9kafJvfjfyerI31kVMVdXPARzjdy+F4adMmE+Indu7ye9OxiPb3nSAQ+Y3JfRV1ViedIhPiDenNvvdSFBoAChTI4umfgbgZL97GaftxPzBSEtqjd+NFKL/ln0a8rmhhwAc4Xcv45Q1lnVibEn3H/1uZE/buqbHcyb/MEBv8buXcXqJLWd+w5L0Br8bKUS6o+mtBPM7Fx9Jdct6EzYLyi1slSvdCbAM8QpYmf74KpTfxR8ApjLRfdmu2Dv8bmQsm9tmTs7nh+5D+V38AaDeMuaXvV3RN/vdyG6b22ZOzhnn3jK8+APAATD2g9u6pnv2SO1E9XZFZwPmV2V48QeAg60c/aavo7YE1zJVHg0AZSgzK/49AKf53UcRphlDv8x2NR3odyNvhFcgNMnO/RSMo/3upQgNZOz7hy8I/uI2hGvs3D0AjvK7l4ki4E05du7ZsHpWjd+9vJFtXdPjMPaD8PMR4KLRWxxU3/PSyv39ehw0MDQAlJnejlgCwDK/+xAw3Rhzd6l+mGb2iX8FwEl+9yFgtmVCP+XV8GpTndeVsWLfYOB9fvYggnH0lG1D1/ndxuvhFbByxrmtjL7zH82xdWbHtX43Uek0AJSR4e/16Lt+9yHoiCl9A9/2u4m9ZTpj7wbhYr/7kMLg/8r2N17l1/jpzvhJIPq8X+OLY16a7oyd5Xcbe8vOjl0G4Hi/+xDDOD/dHjvD7zYqmS4CLBPDi/4a/wpwyXynK4XY+kikpftev/sA/rVC/WkA0/3uRRgz8P6GRPJ+LwcdWUT5DDzcjtoj/SZs3lwqi9V6OxuPIuZ18G5bX69kHYffHG9NbfG7kUqkdwDKRKYv/oVKvPgDAJP5Xs8N8al+9wEApqrq66i8iz8AEAHf9/orl3wudyUq7+IPALXWkFUSd694BULEfCMq7+IPAPW2ZV3jdxOVSgNAGRhZLHep3324aHaomi/zu4lse2wOgFa/+3DRQZO3DS33arBUV9ORAJfJHhUTQFjY297o+7qG9OzYBQD+n999uIb4zEx7bIHfbVQiDQBlwBjnKyB495sbgQEYz8YbHvTTqVsa9vF2zNcyRFfA29+imDyeZzL8+e72Rk8eD7OMuRLefsZ4P59g39ZWACOnfjJ9yeNheeSPV4gJvs5zpdIAUOL6OuIHA3S6i0M4AB4F6GKL+Z05pumRJUk7mkjakdpkNVvOvjy8Gv5GAG5uglJNeesiF+uPKtsZeyfcXUC1nYC7iLDYOOZwnuTURRNJK5JI2kNV1lTbxiFMOA3g2wD0utYFoSZMxvUFeb3tTe8C8G4Xh+gDYzWBzjGOOdwhrt1zPh3DhzLjdDDdDlDatS4I70h3xn17WoQG7U8BiLg4RBbAnSBe5BAftnueo4mklR/ENIf4MIDPAnAngD732qAjU11Nx7lXP5h0EWCJy7THO1za6tdhwiqLQ18pdN94ZlC6M/5xC/g6A4eId8TYlQMd0NTS0y1eewyZjvhPGTjFhdL9BFyTG8R1hR59ym0IZ6zYYoAuB8GNuyI7QuGq/WrP3eRa0Eh3NN4L8IdcKJ1k4qv6rak3HrD45YFCXjA8n40JEH8JwEwXeno0mkge60LdUY0c7fsygJh0bSb0WIwr6nfW/YAuWD9YyGteWrn/pNr89vOJaDmABumeADwcTSRL5aTTiqABoIT13hatpQF7C4DJwqX/ZticGWvpfWYiLx45XeyzAL4B6VvmRBdFm3s8XfTT3d7YFCbeCOHz0Rn4WdgJt9a2bk5N5PUbVs+qmdI/eBmASyD8s0rEn4k0p1x5nj11S8M+Vs56BeJfp/BNDuHieHNq20RePTyfAysA+gKE55Mt5y0NS9JPS9YcS6az8RxmvkW8MON7+SF8sdDAurd0W6QOVuh6EM6Rbs22cUjd4uQL0nWDSr8CKGUD1kLIX/zvHKqy5k704g8A1IpcNJH8JhO9H4DsEb9szhWtV4CQZc6C7MWfAXwzujF56kQv/gAwe+HGXdFE8osw/CEI315lJvEP592snLUIshf/QQa3RBOpZRO9+AO75zN1MRF/BIDoqXNk7EWS9QrBzOcJlxxkoDnakrxgohd/AIi2ZvqiLclzwdwKIC/YH/IOeT7PlUwDQAkjyH5IE9AVaU6eIXVefENzzwMEvBeA4Pnz9BavzwkgQ9KbuiyPJpKX0AqZBWnRpalfAHQygIJueRfo7emVTW8TrPd/GJLz6cDwxxsSqQ6pgpHm1H0jxxAXdGu7QIuYvbujmm6L7AtgvmDJPAMfaUgku6QKRltSNzP4k1L1AIDAZ0vWCzoNACUqs7K+HhDdh35t/c66ZUSyq3cjieRfiehsCK6+ZkPvl6o1lu72xiYQ3i5XkW+NJpLflKs3LJroeYwJ50Jy9bVjxOc5dUvDPiCIBQsCPjccgGRFW5LrAD4PcvM5O/PDprcK1RqbbZ8Eyc9vxoVubBLVkEh1gPE9wZIHpNoaDhOsF2gaAEpVvno+5G6jZkJO+JRCF/OMV6S5526G3A85D99V8EQY5j0Q+z6YX+mzpy6VqfXvGpqTqwG6WaoeuTDPdt4Wq8mMuyOJpGtbX0cTqTuIIfYbLznGuwVqTHJjMVZHW5I3iNXbS2RT8rMAnpSqZ9m2LgQUogGgRBlL7sOEQVcU8110IcLhqq9h+JEhCUdtbpspvfbh9ZEl9qgagb5c6Mr0icoxvgxgwt+D74kZc/n6g6slau1mmKXmMxcKuX8eQ97wZQAm/H33nhiCF+XRxmEQSOwRy0EL1iVCtV4XrUAe4C+K1QNrABCiAaBEEYvdlt4Y3VkreQvudY08Una1ULnqyaEhT7Y9JmKZHdQIz9bXJm8TqTWKppaebiL+lkgxQk12Sr/o7VSS25Gu3YvV3vHW1BYm+o5QOU9240uvjM6C0PbKDPygvqX7JYlao4kmUj8H8AeJWlzJux56TANA6TpcoggR3enWrf+9mbBZBaHvVA1wqESdsTDL7GfAhu6khXAkao3JCok9+mUMiwWAkUVwIkfRMlu3StQpRIh5lUwlnu3JnSsOiXw2AIDN7Nk8E3CHUKn9pe9cBZUGgBLUf8s+DRDa3IMNe3bK3sjJaH+RqMWwXA8AybbYDAB1ErVs29wnUacQkcVbXwbwvxK1LEsuAGRujswGMKXYOgR0Rzd1/0mgpYLUJZLrAZJ4hp9qQnmRADQaSyq0MTbVJVIiP6+FCd0jVMhOT00fJFQr0DQAlKD8UE5q97dtkbrk74VqFUpoJTHPkqnzxsKW2K5w2brFqb8K1SoQi8wzsyW20yBbVSLzaYD7pR6hLBQJvW/ZsOvnWTDJvG+J8Gvpp4JGM7LjqMzXDU7I13NDKoUGgFJEmCZU6XnPbkvvRjzhDYb2ZEFsDt4Q2xA6gpg3eflBCgBEJDLPAIvNs9R8EiD0byucgREZkz1434Jk5tkI/ayO00aJIl58PgSBBoASxHIfyj1CdQrGsJIydTwIAHmZMYixRaLOeDCzyDxDcJ5tlnnfEnv/vrXYlplPkgtUb4i5VqIMGcvzeYbUz4oX8xwAGgBKkEVcJVOJh2TqFM4iI7PgkOH6Ih8iS2SemWQeIxsPC7bI44bELDbPxsi8b9ny/n1rmIXmkzxYnEZlO88k9gir3Ps2yDQAlCBiW2RrXYbULe5xjGmExvTgompYaAtjokaROuMgdZeISW4bZ2KWqcXev2+lfqMkD963xEJj+DDPTJD5WfEhdFciDQAlKI+8SEoGaF+ZOuNh7SdTh4TmYJQRLLEP0hkidcY3qNA8yx2KI3bxYz/et0Lzye6/b01Zz7PYwlvX5zkINACUIkfmQ5mAA7M31kUkahU8JrPMQT7GiJ5+97psErr40T5bVzUV/fjbeDBD6MAkEptnsoXChIU5InXGgcgSmU9H7D01Gpn/M7LY03nmFQgBEHl8jyzZ0xyDSgNACdpWNe1lQGT1vm2qw54drMMrYDHhZJFilvWiSJ1R5HealyCycRFXVQ/x+4qvU+Boq2GDIPL/ymCxeWbKy9RiLOi9LSqy0K2g4doQBvgkiVohwPX3rUUs8yidwXu9DK7ZfWPHAKiXqGVgXJ/nINAAUIJG9pN/VaIWMX1Yok4hMrMajwIwXaIWwTwnUWc0I2eey6xKZv6ASJ0CZPtix0JooyhiEpvnyOJsFoDEavpqDNonCtQpSG+4aT4AiTtlg3VTu18RqDMqA6H/M0JNdY6PF6lVADaQ+hnZGX01vUmoVqBpAChdz0oUYeCDmY4ZUt8Xj2WZVKE84HoAAAAmkplnwqkjOzi6z6LzxUrZlsi/fw8i9Ygh9m8ci2UcobF4vRf7btiDg2L/Zwb4lFSt0QzfaaBFQuWe93qjqEqlAaBEEfEfhUpNYuS+JlTrDWU6G/8D4NNlqlE6tiHl+kEwAEBgqS1na/NDg66fXpfqajqSGadI1GJCT91i2YNgiEhqPuelO2IfFKr1hno7G48CZO6SEUjqZ3ZU9cv6MhAKyMT8nt6OuOt3W6py5tMQujsIj+Y5CDQAlCg29JBcNTqrt73pXXL1XotXw2bD34XQ+4nAD3uV8Bn0sFw1+lS2rdG1Pcq5DWHLmOsAkEQ9YjwkvYMhs5GbT6Kr3Txch1ejygJ/F0LzCdAamTqFYLHPBwKu2bB6Vo1Uvb0lO2MzwfiCXEWzRq5WsGkAKFGRuuQfAbFntC0ic3dve9SV/fUz/bGrQJgvVY8hGX5GN5gPPQqQzIYohBpj88/dWsCWsWPfBSAW5JjkLiK7OYS1APIixRiHVdu5W0dOGRSX6W+8nhn/KVXPcF4wTI5ONrjirVO3Da5yY565DWGb6Q4ILf4DwHnby6BV2TQAlChaiCECfiVYcjrIvlv64pTpjJ8H0OcFSxrmvGcn681s3bwT4AcFSx5uDdhdI488icl0xv8boE8KlnRMHr8QrAcAiDenthHzGql6BHws0xkX/wqrtyP2GYBbBUs+0dCSFtnnviCTnN+AsUuqHDM+nu2KXS5Vb6QmZa34TQCOFSz7x8bFya2C9QJNA0AJY8ie1U3AO60B+8/JzpjIUbuZjvinmdEpUWs3Yn7I0w9SAADfJloNOCU7K/6rzMr6on/rYQb1tjeuYMb1Er3t4YF4a8qdMwyIROcTwKWZ9ngHr0bRW+DyatjpjvhVBPq2RGO7Ecm+h8bSsCjdD4ukjtcFADDTinRH480S8/zSyv0nZTobb2NCs0Rv/8LwdJ4rnQaAEhZxUvczyR6MwsAhNtNjvR3xUyd6y69nZXx6uj1+JwPXQfo9JH/xGNOAU3UPhHcWY+B97IQeTd3cMOFbzNn2pgMynfFfEfGXJXsb5t4FK0/8MwA7JWsyoTnTH3+otyv65onWyLY1HpTpj/8KgPRizXzOojuEa46JmVe5ULUl0x//baqt4bCJVki3Nx5R6+xYB/CZkp0ByIVM+E7hmoHmyndrSk5vR+NXCCx6a+7/8B+JsLx+SWpNIYvBem+L1loD9gU8/AEqvo84Ad3ba6sPmL1wmXGLwQAACHRJREFUo9itzUKl2+PXg/DfLpRmgH5sObi8vrXnn4W8oLu9samKcDED5wNSB0O9xuY+e8pBI/tNuCLdHrsJRJ9woXQeoJVwcl+PtmYK2iujZ2V8um2wnJg+4cp8MlZHW5Knidcda9jVsDP98acAiNzR20seoE7m/NcLvSOXbovsS1bociacB8AW74jp9mhLj9SjhAoaAEpe/y37NORzQy/D3YN9NgK4D4Z/bYXsp4d2mZ7G85PbszfWRThUtZ+xMYcYHwVwHODqKX2XRBPJb7pY/w1lOmbsx8i/ACDs2iCMvxD4HhA9krPxfHxKMo0MeLtpigyFcCCI5xL4wwCOghsfoP9qgz/bkEh9x636AJDtajrQGPMcILsWYg9MhP9h4B4Aa/MW1r9mPqv4IALmgv81n27d7WQyeEdkafJvLtUfVaYzfh4zVro4BAP8J4DuBWFdztALjXU9GWTAPVZjNMQ4iIjngfgjAP0X3LumMBv7bQ1Ltz7lUv1A0gBQBtLtsatBJPgYTSmitENm/3hzyrdDPno74j8k4Fy/xvcCE3oG8+EDhhc/uivd0Xi7C7eBS80vo4mkZ7tA7o3bEM7Y8ecAHOBXD97ge6KJ1Ef97qLS6BqAcmCcb0Bqy9pSxXy5nxd/AIDlXAZU+DGjzJd6cfEHADi55ZB7lLUU5cH0RT8boFbkWH5NQ4mhIePwcr+7qEQaAMpAtDXTR0Dl/gAw/hKpS/7A7zYalqQ3ALjC7z7cQoQ/RzemurwaL9qaeZXAV3s1nteI6LvRlp7/9buPhkTyJ5B9ZLi0EH871torvWW1ggaAslHfnFzF5N0GOR7KGzKf9GIP9UJEapPfAuhpv/uQR0NwsNTrPdSz9tSr4dG5Dh7bYKrzX/W7id1s4NOozLstL+cH8A2/m6hUGgDKBBE4b3AmgErbBONLsUSv1P7xRaOFGGJjLZTcZKUUEPgiPxaqHbD45QHY1qkVNp8OEZ/bsChdMmfS1yWS68Hc4ncfwvJs6KyRUzuVCzQAlJGmlp5ui81ZQGn8tizg/sjG5DV+N7G3hqVbn4JFn/W7DzGEX9Q3J6U3EipYdHH3P8iqoO+pGV+ONKc82/a3UNGW1I8Z+KHffQj6UsPSnt/73UQl0wBQZupbeh9i5kr4MH3GxuBZpXqsZ7S55wcAtfndh4C/cbVzlvShP+NVvyT5fQI8W3/gFiL8NLIpeaXffbyRnbXVywA85ncfAu4oxV8OKo0GgDLU0JL6FsDX+t1HETYTQifVJfrTfjcymkhtz/kE3OV3H0V4MW/jpFK4VU0Erq9NLmXG3X73UoS1WWvK2aUaWgFg9sKNu+DkTwbwd797KcKayM6680p5niuFBoAyFWlOXVSmv6FuBawTIoktr/jdyFhoIZzttdVnE/Bbv3sZP37FBk4opYNTaCGcQRNeBKDkbp+PhQh/Jjv3YTd3T5QSbc30mbA5GeW5+PIPcPIfoQvWD/rdSBBoAChTROBooucTAC7xu5dxeMm2MS+a6H7S70YKNXvhxl31tckPgLHa714KR0+zZY6tSyTX+93J3ma2bt4Z2Vl3EhF+6ncv4/CwqXaOiyzOZv1upFCxc3s32Rg8GoSy+Q6dwQ86xMdHWzN9fvcSFBoAylw0kfwmmJaJnWnvnj/kmI6qW5x8we9GxosWYihSlzyTSfxEPnEMftAaGpw7sqdBSaIL1g/WT0ueDuBGv3sZE2NVpDZ5Yil8jTJedYn+dH4AJwDk2fHaE8WElVEndZLvm4EFjG4FXCGy7bE5huhOAAf53cu/Ibo5Mq3nv2khSj2kjCnT2fhRZu4CUPRRv8IYwNWR2uSlpbKnQiEy7Y0fY+IuAHV+97KXQQIujiSS3/W7kWIxg7Kd8QsYdLVLh0sVY4CASyphnsuRBoAKkllZX2+c8HUEnINS+L9lbCKLl0WaUyX/G8h4JG+OHWJb1Algrt+9AAADL1jMSyMtqTV+9zIRqbaGw6yQ1QnG0X73AmD40CZGs18H/Lgl1dV0pOWYdhDe5ncvAMDA/5BtLYku7v6H370Elf8XCSUu3R4/FsANPv6g55lwI6qdy8rx1mkhmEHZrsazDfgaYjT60wR2Mejq/tDkq8phcdpods8nM18LIO5TGzsAfC1Sm7y2nO6ijAevQCg7K34+A18FUOtTG30EfLm+Nvn9Sp3ncqEBoELxCljpWfFTCPgKgMM9GtYQcJfjmMuDsnd3sjM2zR5eg3ERwFGPhh0E0S1s8l8r9Kz2cuHTfG5nQpfJ81Xx1lRlH7o1YlvX9PiQY84n4gvh3dcv25nQ5Vi4spSeTgkyDQAVjlfASu8T/xhZSIBxHFw4Z54JPWD82Hboe/WtPf+Url8Okp2xaRbQQkyLAbzVpWFeYtCtecaNTS093S6NURJ6b4vWYiC0lGDOA+gtboxBwPPMWGXT4E2lvieFW/o6aqMOVX+CGOcycIhLwzwH4BZraOgH9cv6Mi6NoSZAA0CAJDtjMy2DMyzgRAYdA0JNEeU2MvAgge+KOKn7qRU5sUbLXKYj/nZmPgNExwH4DxT3tM0zAB4EY3UkkXzU7x39/DC8wBWnA3QcgCNQ1HzyU8z0W1i0uqG553GpHitBb3vTuyzihcx8HAhvxcSvDwzgKQL91jCtbmjp/oNgm0qQBoCA4usPrs5Ozb4LjLezwaEgOhTAbABT9/iTAbAdoG0A1gPmWWJ61jHm8aDc4i9Wf9vMmBPKH8uG3wziwwjWIQyOYfi261QMX8y2A8iAkQXhBWZ6FuBnjMXr4s2pzb7+A0rMa+YTdDhZfAgzGvB68zn85wUCP2NAzzg21umt58Jsu6mpcaiKj7WYD2fQ4Qw+hIAoQPUYnmcA2A5wFkAGRM8Tm2cN09N50LpKv0NVKf4/SaTMKZbvjU8AAAAASUVORK5CYII=;" vertex="1" parent="1">
          <mxGeometry x="600" y="1020" width="60" height="60" as="geometry" />
        </mxCell>
        <mxCell id="uI7jijBP5rXE629CTqQX-6" value="" style="shape=image;verticalLabelPosition=bottom;labelBackgroundColor=default;verticalAlign=top;aspect=fixed;imageAspect=0;image=data:image/png,iVBORw0KGgoAAAANSUhEUgAAAS4AAAHiCAYAAABWaiGMAAAcyklEQVR42u2dTWgVyfqH6+TrTL6MEw3jxxiU0aA4GUXRQRSZ4CCRgIiCMiAiDIIgQ0AEQRAXAUEEF4IgZOFCyEJwIWQjZJGFm0AW2WSTRRZZZJNNNtlkc/9d9xzvaP75OCdd1fW+Vc8DPy7c4d6prq73SZ/q6ipjAAAACqaUpTlLd5bfslzN8jjLpyyfsyxk+U+W2SzjWd5neZDlUpa+LDuyNNKNAOBTUruy3P5GSK7zJcufWTqr/z4AgLqxT1IjniRVS1ay3MzSzq0AgM3Yl2UyoKw2ywgSA4Cv/JDllVBZbZRBfk4CpElvlkVlwlobO+Ff5lYCxM9J5bJaL1NZWrm1APFxPMtqhNL6NhNZWrjVAPrpMv6WMEjNU8McGIBKbOG+SExYa3OAYQCgh4OJC+vbjPH0BSCfl8hq3XQzNADkYZcFLCGoTXObYQIgh+NIqeaMM1wAwnMXGdUd+2TawNABCMNbJJQrfPsIUDCfEQ+T9gCamEY4TrOHIQWAtDRmB0MLwA+TCMZr2GkCwDFMxBcTVtkDOOIeQiksCww3gPycQSZBvm8EgG3SjkSC5SrDD6B+7FzLKgIJmk6GIUB9vEMcwbPKMASonRNIQ0zeMBwBtqYBWYhLD8MSYHM+IgpxWWFYAmzMXiQhNjcZngDrs6ywoO2JOvZw2Waz9apz+8/bsvQbnS8fWFUPsIZLin42nTPuNuJrynJLybW/ZpgCfP8kIr1o7beSvg9b7TCVQ10l90MjwxWgwnXBhToaoFjtLg1SN0p8x3AFkPu0ZT82Dr1y3C5DkPj1AE9dkDynBRbmsLA+eiOsfx4zbCF1pElrv9B+OimsnwCSpdvIelvYIry/ugT1Vz/DF1JlUtB8lpY1Ss1C5r2WGL6QIlIm5ZeNvoWVjUL6jj3qITkkzNmsGr1vyFoE9N99hjGkxqKAwtN+GOrPhkl6gKR+Jg5F0pehDxJpYThDKhwKXGxTkfXnXMC+PMtwhlQI/T1eU2T9GXK+a57hDKkQUlp/R9qnD5nnqhm7Hm7QVL67nDc6duZw/cfGXvvlal+wXVENNAW+abHepJDzhhqWRbQadtfd6izNVvS0MUd42vLGo0D9ekK40D8gprq2b+IJbB1GeNryRqiDRkaF9scBRMSZmtrntyYS6d9p5rn+y0Xkkzt70FV4cXUn0r/7EZeIhbmxhHkvE/bMRP44+E2DkGtvRjacZu6aVsNaoyII8Yq/Tci1LyIb53mZurhC/Yw5n1g/h5jf6RVw3b8iGW9pTllc5wJ1enti/dwRoI/PCbjuVQTjLW9SFtcdwzKIIgixGPV24GtuRy7ME/tilA6PdoL+beDr/RuxeE9XquKaRFzRimuSn4nRZzBVcU0hrmjFNZ3Y9aaYZA8D5rd53H2NuOLfVYJiQlyIC3GpyjLiQlyIC3FpyyfEhbgQF+LSlhuIC3EhLreMIhbv6UFciAtxueUQYmEhN+Kir7X1cwmxRL3cBXHR19H28xMEw6p5xEVfa+vnBgTDOaSIi77W2M9nEQ3nkCIu+lpjP79FNs5y3ADiQlyF8Rnp5M4VlIW4EFfxvEY+284ZdIW4EFc4jiGhurJgdJxMjrjo6yT6+RpS2vID6gMoCnEhLpnY9Ug3TZiTkKRlPMtpw1tDxIW4ACgmCgpxASAu+pp+BkBc9DXiAoqJgkJcABQT4qKfARAXfU0/A8VEQSEuAIqJgkJcAIiLvqafAXFRUIgLgGKioBAXAOKir+lnAMSFuAAoJgoKcQEgLvqafgZAXIgLgGKioBAXAOKir+lnAMRFXyMuoJgoKMQFgLjoa/oZAHHR1/QzUEwUFOICoJgoKPoZAHHR1/QzIC4KCnEBUEwUFOICQFz0Nf0MgLgQFwDFREEhrm2zI8vlLO+yzAcclyEyX73uwSxdWUpoCXEhLrm0ZHmfmKRqzUSWnegJcSEuOdgnirfIqabMVAUPiAtxBaQbGW0rV1EV4kJcYfgNAeXKG3SFuBAXT1oaM4ayEBfiKoYGhOM0w2gLcSEu/8wgG+fpQVyIC3H5oxfJeMkq4kJciMsfK0jGW04iLsSFuNxTRi5es4K4EBfics915OI9LYgLcSEufiZqyynEhbgQVxxjK6W8QlyIC3EhLm2ZRVyIC3EhLpZFUEyIC3ERzxlHXIgLcSEubbmDuBAX4nLLGGLxnn2IC3EhLrccQizeU0JciAtxuaWEWLxmziQM4kJcPnmEYNghAnHR19r6macunrYQF32tsp/7EA3fKCIu+lpjPz9GNs5y1gDiQlyF8Rzp5M4gykJciKt4riCfbacfXSEuxBUOu8HgLCKqOVNZmlAV4kJcMrBHlk0jpk2F1YWiEBfikoldMvFTlhum8pnQYoKSstf83lROrO42Ca+IR1z09X8Y3kAxUVCICwBx0df0MwDioq/pZ6CYKCjEBUAxIS76GQBx0df0M1BMFBTiAqCYKCjEBYC46Gv6GQBxIS4AiomCQlwAiIu+pp8BEBfiAqCYKCjEBYC46Gv6GQBxIS4AiomCQlwAiIu+pp8BEBd9jbiAYqKgEBcAxYS46GcAxEVf089AMVFQiAuAYqKgEBcA4qKv6WdAXBQU4gKgmCgoxAWAuOhr+hkAcSEuAIpJeEGVspSz7MpyoPqf5ep/j7hk0JllIMu7LPMBx2WIzFev+3KWHSgJcZ3KsrxFO1arA6aEuAqnOcubxCRVa8arMoeExHVhm2164llgiOtfXiKnmvIlSxOailtcVjpTDtrWg7i80VF9ykVK9eUCqopTXA01/CysJ6cRl3N6EVCuPENXcYmr5FhaX/Mz4nJGN+JxklcoKx5xjXtsZwPicvKHBem4y020pV9cfZ7bOYm4cjOBbJynE3HpLihNgyRFce1CMl6yjLj0FtRRU9wracS1PRaQjLccQlw6C2qpwPaWEFfdNCMXr1lCXPoKqugJ327EVTeXkIv3NCEuXQX1U8HtvYq46mYRsXjPccSlq6BuFNzeD4hLzdhKKU8Rl66C+lBwexcRF+ISmGnEpaugFhS2GXER9lxLXFy0GXERtwukERcSQFxIpZDcR1xIgDa7hU99WISKuBCXOnH9ili8pxFxIQHa7BZ2hWDlPOJCXCrfOL1CMN5yEHEhAdrshwYEw+4QiAtxaVzj8zuicZ4OxIUEaDM/GTVlyADios2F8Rbp5M4dlIW4aHPxDCAfjihDXLRZ43dsbYadUevJbJYWVIW4aLMM7MG7c4hpw8wYNxtYIi4kgLg8YJdM7DGVPdbGTJobENprfm8qG1buNm62CkdcSABxASAuxIW4ABAXbUZcgLiQAG0GQFxIAHEBIC7ajLgAcSEB2gyAuJAA4gJAXIgLcQEgLtoMgLiQAOICQFyIC3EBIC7aDIC4kADiAkBciAtxASAu2gyAuJAA4gJAXIgLcQEgLtqMuABxIQHaDIC4EBfiAkBctBlxAeJCArQZAHEhAcQFgLgQF+ICQFy0GQBxIQHEBYC4EBfiAkBctBkAcSEBxAWAuBAX4qqTjiwDWd5lmQ84pvNkvtr+ger1AOKizRHSmOWFUknVmpdZmlAU4qLNcfAkcmGtzT00hbhos15+yLKSmLS+ZjFLA7pCXLRZFz2JCmtt+OmIuGizosl3pFXJapYS2kJctFk2pWqxIq1/M4O2EBdtls1rRLVuBhAXEqDNMmlFUJumhLiQAG2Wx2fktGkGERcSoM3y5raQE19GIC7arIo+pFRTyogLCdBmOYwjpZpyEnEhAdrMuNSWp4gLCdBmxqW2TCMuJECbGZdM0DNAkADiQlyeM4W4kABtZlxqyyPEhQRosxw+IqWa0oe4kABtlsMvSIltbhAXbdYGK+e3zopJGMRFm6XCzhCb5wTiQgK0WR4NyGnTDQUN4kICtFkml5HUuulGXEiANsvmHaL6LrcNIC7arAKWRyT+bSLios1aGU5cWkPoCnHRZp10ZVlKTFgLprKNNSAu2qycPVnmIxfWnKmcJwmIizZHRqla3NezjCl+Gluqtv969Xo4OxFx0WaAmDiFuGgzgBbKAuYHEFcxOcVwhxh4KOQ3PeIqLvaP1A8MfdCI/URgVdBkJOIqPo8pA9DESyPvLQriCvdxLq/YQTR20dqykfn6F3GFzWvKAyQyZGSvW0FcMp6+uikVkIBduDZp5C+4Q1xy8oSygZDsN3pWCiMuWVnM0kIJQdHcNbo+cUBcMsO6LyiMcWXSQlyy84qSAp/Yo4mWFUoLccmPXbTaQImBa7qVCgtx6UoXpQauOK1cWohLV5j3gtzciEBaiEtfHlB6sF0eRyItxKUzo5Qg1MtoRNJCXHrzhVKEWvkQmbQQl/7DG9haGDZlPEJpIS79sctwWC4B6zIR2WB/n6XTUd8gLhkfaTdRphDrz8OLHn5aaN2/vbMq8JjkxZMX/JcYBrZdee1zwzrtB09YkZ+PSF7MeSXOK+WDeCrLjgL6KaYTc6zg5yKY80JeiXJX8cCddjh/lZq4vtKhfF5zgRJOjwHFgzXELpoxn1FYViww5JUQPysdpP0B+yyFw1XbsswqHBczlHT8lBUOzCcC5jNSOhW618g6Wq6WjFHa8VJSNiDnq08BEkjxOPubyuTFOY6RMqNoEA4J67sUxWVpVDb/NUSZx8UzRZOtEg9RSFVcX9G0J9t+yj0OtAy6h4L7MHVxWeyK9UklY6mRstdNi5KBtk9g39nBbyeqXwTqkxfVf7+0IvxTwXhapvR1I/1wC0mHJJSqohgzct+c9RoZK8bLCsYWGxEq5Y3wgfVayM+fs1mWjK43aEvVdoeWvvSP8wfQgC6OCR9QVwP3z5Hq014MHx3PV+93qCex68L7pw0d6KBB+EA6HHC+73kkstooL02Yt7K9gvtkBSXo4IvgQdQZoD/st41zkQtrbeZM8d902nkvqQucX6MF2fwuuJiKfhLoNXpP3nb5dq3IdU325+qi0L44gh74iVjvo3qRk8j7FE62FzGZv7tAeUn9WJs9vAQyIVRaRQ2WDqNzd4Oi9zEr6sl3UuD1j6MJWRxOWFr23/EKKdW9uLWIe/NZ4LX3ows5pHqowSkklCu/FnCPPvGTEdbjicCB0ez5mu1nMFOIx0kmCyhkadMYvGUMTKvAQmjnKUtlfK+vk7atUhf6CMe0sMHQ6/l63yEY1U8ikpan8CF2IPYJG/Q+N3FrNazJKnLphK+f+tKW7PAtYwAkFfJzfhpGF19Pz21M1KeLpM0BfZ6yMoxAguaGp/van8gfXVhDCn+xxhCHmA+3ffBI0DU2oRT/XBJ0w3cl8tIh9Xz2dJ+lLGn5hFbSedq65+Ha7NPbAqIQmVkPT9eSJutbUYs//hA0iH1IizeH8jctdE2PkGubQi/xP201Iq1ks+BhXD8Qcm2dKCbeNzEXkVby8fEmWcJWRNNoxj0Sdpf08TjNnJbebxxdUhZyXe2oxh27hdxU1yuqJxGA6rg+Auy2gGv6gG7cIWGDvNuOr+kNhR9F7joeFxKmDTgJ2wESTqN2fVLKTQo+qpxwODa6BFzPU7STnxEBN3Kvw+s5QKFHGZfroEYFXA/kJPQN/OLwWpoo8GizatwtUJWwMPU06tk+RwXcwLLD65mnwKOOy8MobgkQMWyT0Gtb3jq8lkcUdhK5EtGvDRakKv1Z5eqr+T0UdFJxdQRa6L3Y3qMhfY/KI46uo2TkHs1O5H/TGHrsgLLHZFdrWVivxSaEeegLfB1HUVHthD69542j6+imgJNOYwR/xBfRUe38E8ncFh9P8z1jDHNdrKRX8BfG1bqtqxQuybI/gpq4iJK2JvRX8i4OyixRsMS4XQ91P+A1cAZjDYT8js/VN4nPKVji+Ikl9Gr6BtQk9/Wvi88c+KyH+FpWMM7bRZmE/onl4lszlj8QXyvqfwzY/ln0tDGHAt6Yjw7a30iBEs9/GFmMKpCPyiflX1CcZJNccjDGbimvkSjR/NeEN4mkiHEWcmPN+yhK1qT2c+V/CYmeHFT+AgvWcCLgzXBxsglFSWqJi3MZh5TP00XFB8V/RfZSkKSO5D0tKuTPxW5UJeOJ5ZODts9SjKSOPFJcL/dQ1b+EXBW8R3HbSbqT9MOB2r2Crv5ll+Lf7OcoQrKN5F1a0GWYoA/OoOKbsEIRkm3ExSnYodpeRlkVvgS6AXnXpfAzkYT8oxlqv7djKCvsX468b0hOU3wkR9pyjr9rgdo9grLCrjjPu1UH5ySSPPkn5/jbEajdnLlowq5J0fqkSPi5GPqPfvKEOnNwLme7Oyk6IuCpnxX0ib1RvJaz3XybSFxkX85xOKF0fk49oT716cnZbpZBEBd5knMc/hGo3Ud4oxgmjUrbTeJK3onunYHafRNx6ZtcZF95ImUshtp19yPi0jdYeik24jB5DiDmzWIAQq08H8/Z7jsUG3GYnxL846+aUGu48v4+n6PYiMPkPQFoEXEVS6iVv31MzBNBmcg5HkMd0pLsWq5Qc0VdiItENEEfaivnxlTFdSZQh7conJcjiGsjjgRqc2uq4rqi8BG3lSIjwsTVrfSXi1ruKRTXboqM8MfUybbnanml8K/bQYqMeEietVzNgdp8NFVxTSoU1ymKjAibLwo173oWcekR1yWKjHjIzhxjMtTq+SupimtBobhYNU+kbSOOuApG4xucuxQZ8ZB9CsU1iLj0iOsBRUY85JDCWvoLcfHERRCXtlq6nKq4ZhAXIbl35A31U/FSquKaUCiuyxQZQVxpL4cYUyiuAYqMeEiez2dCrePqT1VcLxSK6zhFRjyknGNMhtpK/Fiq4hoJ1OF5vgvbS5ERD8lzvmJboDYfSFVctxUOEg6CJdL+mO5SOC+nmouBOjzPflyc8EPYj6uSZA+F7QvU4R0K3+AQxLURFwK1uSlVcfUE6vC8x55TaMRllnKOR4372qkm1AZofyAuIigjOcfjtMKnRNWEOoX3Rc52f6bYiMOcUfqHNFlCzRct52w3e3IRl+lEXPrQ2Ok7KTYiZK4o1B//JcSlb7BwRBmR8kc01Dzxs9TFFWoX1LJS4ZK4MpNzHP6q9AWXeoYDdfzhnO2epOiIg1zMOQ5Dfe+7L3VxnQzU8Y9ztvs0RUccJO9p0FrbrZ5Q3/6t5Gx3C0VHBLyZ0zhHzJKIRAcNiSPzOcdfmaUQab5ZzPu4O0bxkRw5nXP8nQnU7lmUVWEl0A0YyNnuAxQfyZG8Hyl/CdTuGygr7JvFvH852CmCpDhVsQdlVehVPMk4TQGSbeSW4vmtJpRVIeTmfN05236IIiTbSEvOcRfye1kQ8Nibdz0XPxdJ0UtxLMuB2r6Aqr5nUfFfkA8UI6kj5xX/sRxEVd9zJeDNaM7Z9h8pRlLgvOqRgG3vQFXf0654otSySkGSGjLmYKzNKpYu81zCfi6eoihJDWnPOc5Cbqm0iqLWZz7gTSkrFy+RHxcrzk8EbP8dFLU+FwLelKcO2n+L4iSbxMUBqgsB29+GotYn9I4LeWFpBNkoy9QH81y+ctBB+/+mSMk62etgbA0HbP8EatqcFwFvjovFdTx1kbVZiuCP+hHUtDmh10S1OLiGmxQrMe4+K7P0B76GBtQk+y/L2wiugcjJpKPxtBLwGhZRUm2MBh5sjQ6ugY+viaudFHYHvoYTKEnHz8VhR9cxS+EmnUeRjCNWyyv6qeXiZpUpXjYKzEl74GuYR0X18SbwDbvv6DpuU8BJxtW5gzOBr6MfFdVHRyRPXZYlCjmpjDoaN10R1QA/FwvMY0fXwRmM6cTlh8hzga/lMwraHlcFDMRGR9cyQFGzZqsO9gu4lh4UtD0aBNw8l391PlPYUcfl7gkS9neDHExE9FdUyoAksr/lGxJwPUOoJx/dAm7iksPrYYkE81qbIeVbVz7xieSt3DWH13OMYo8qZYdjQ8LBK6Moxw19Qgaoy4MwWd8VR352OCYOCLmmFpTjDgk3dNrxNb2i8FXnHGMctuIPITd2wPF1fUQAKnM30j9iO1BNnE9druc0LJOIQFUeOr7/vwi5riUU4wcp80I+jiGfQQgq8szxfZe0Yy4LThN46vrHw7VNIIYktqn5lqmI/xjDN1yL9I0Sc16y87eHe/2XoOvrRi3pPHW5/JaRt41yM+jhHvcIur45lFIMfwq66b4esTlcVkZ+8XBvG4VdI28SC0TSN39jnq6xH3EETbun+7oo6Bo5L7FgeoUN8ruerrNs+DA7xCJMXxvoSXsB04RKikfaYRTnPF4rbxz1vjmUOnf5EIWEoU3gwD/g8XqHEIvX7PV47+4KvF4IiMQ3cD4X8rUa9rD3sVmkz73VBwVe82nUEZaS0GLo8nzdfyEcJznm+T6dE3jNLH8QQp/QomjzfN3NhkNnt5t3xv8JNlLfCrNtjSCk7ufenrC4Jcauu+so4J6cFHr9t1GFLBoEF0tRn1OwaHXzFHW46Xmh17+MJmRyQXDR9BY453cfSRW2TGUt1wX3QweKkMuU4IFzseAn0NQF9nvBY++Z4L64jxr4yZgnwwX3R6n6JJrK6nv7Oc3BAONuXPi8HijgqPDieh+oXzpN5bvKWDf4Kwfo04aqGCT3DZ/1KEL61jB2EWmo19L2KeyI0b+U4lOWfQHHWI+CPjqLCvSxrGBgHQncR6XqT6tPSmT1qiqMUuB+u6agr8ZQgE5alBTjI0F9Zj8pumQqq6ulPFX1C/q5Y4WpYZdalj4w31XYpHKzwP5rqj7hXDWV7V58S8q+SOgyMo+A7zF6fkY3U/r60bQs4LySPrVPHuWqZHqrcyk3qn39tBp7lPtINfer/9yuKN9vKrtuNgv4yVcrjxSNocOUfDxo2s9q2vAmSApWzCuKxs4/3LL4WDa63ppd55YF5aWy8cI2zJHSYPS98rfLJn7k1hXKSYXjhEWmkdNhdK5ZsrtfsB2J/7GxoHBsrCqaK4QcHDN6F10+YZA6x74k+KB4TPAGMSG0799+B4Hlxp5v+F75ONjFbUyPGLY/vo/A6sb+5B6N4N4f5Famy3AEA9jmNXNgW2IXkE5Hcr+PczvhaSSD2Waev8TfYZ9G7b5cKxHdYz6chv/xMqKB/e1EfjnR+2m3y45xC59LlCqsZSTCgf41dxOQmF3O8CLie3iREoWNeBLxwP/2s5DOSH4G7jFxTLRL24YaFHI3gUL4mhlTOUyirERU9uNs+ynUckL36CglCbVyJaHC+DZ2EvuBqez40BxYUlamfZH/hN8qeyhFqJfDCRfMevuFWYH8keWnqlQazfbWkNn/jf1utKU6L7W/Oulsdzddpa//9xnPD5Qg5JnwpZBI0R9Ms6gYctOQ2JwKCZdxyg1cz7l8obCIxzyhzMAXDykw4iH9lBb4po9CI8bdW9wyJQVFYfeEX6LwCPNZoJGnFCDZRv6kdCA0eylEUmPsUzrbD4EY7FvHzxQmMbw1BIWco0CJ+f+r4HsoDZCO/RSGNV/EZoRyAG0cp3CTnsvqpARAM88o5KRyhSEPsWDfJE1R1FHH7r7Kx9EQJXaSdoUijyqzWVoZ2pACv1Pw6mN3DNnHUIYUuYQAVH5feJChC1DZRx0pyF+P1cdQBfgeO7F7AUGI3Lb6Z4YnwNbYQxIWkEbQTJjKqUIAUCf2bdV7JFJo7GaRfAgN4Ohn5AnDUgqfSxoOMswA/GF3zBxBNk5yy1Q2hQSAAtmd5R0CqivDhjMLAcTwY5bHiGnddVfXDHu7A4jHbq3zW5aZRGU1ZipLGPh2EED5vNhJU3nFH6OoRrMcrgobACLFns5t14r9lWXO6FtfZT+V2skTFQBYCdh1Y4dM5ROkjybs5zVvswyZyjKFMpICgO3QWBWIfQnwS5azWW6YyiEQr03lsJCNtqwer8Yu47ALPK9mOZWlN0tX9f+3gS4Gyfwf4x+0YTthWGwAAAAASUVORK5CYII=;" vertex="1" parent="1">
          <mxGeometry x="370" y="1020" width="37.59" height="60" as="geometry" />
        </mxCell>
        <mxCell id="uI7jijBP5rXE629CTqQX-8" value="" style="fontColor=#0066CC;verticalAlign=top;verticalLabelPosition=bottom;labelPosition=center;align=center;html=1;outlineConnect=0;fillColor=#CCCCCC;strokeColor=#6881B3;gradientColor=none;gradientDirection=north;strokeWidth=2;shape=mxgraph.networks.router;" vertex="1" parent="1">
          <mxGeometry x="180" y="910" width="100" height="30" as="geometry" />
        </mxCell>
      </root>
    </mxGraphModel>
  </diagram>
</mxfile>
